LinguisticsPro-SemiBold.ufo
<glyph name="exclam" format="2">
  <advance width="267"/>
  <unicode hex="0021"/>
  <outline>
    <contour>
      <point x="50.667" y="71.333" type="curve" smooth="yes"/>
      <point x="50.667" y="120.667"/>
      <point x="85" y="154.667"/>
      <point x="134" y="154.667" type="curve" smooth="yes"/>
      <point x="182.667" y="154.667"/>
      <point x="216.667" y="120.667"/>
      <point x="216.667" y="71.333" type="curve" smooth="yes"/>
      <point x="216.667" y="22"/>
      <point x="183" y="-12"/>
      <point x="134" y="-12" type="curve" smooth="yes"/>
      <point x="84.667" y="-12"/>
      <point x="50.667" y="22"/>
    </contour>
    <contour>
      <point x="107.333" y="215.667" type="line"/>
      <point x="60.667" y="608" type="line" smooth="yes"/>
      <point x="59" y="622"/>
      <point x="57.667" y="639"/>
      <point x="57.667" y="648.667" type="curve" smooth="yes"/>
      <point x="57.667" y="687.333"/>
      <point x="74" y="707"/>
      <point x="133.667" y="707" type="curve" smooth="yes"/>
      <point x="194.333" y="707"/>
      <point x="210.667" y="687.333"/>
      <point x="210.667" y="648.667" type="curve" smooth="yes"/>
      <point x="210.667" y="637.333"/>
      <point x="209.333" y="621.667"/>
      <point x="207.667" y="608" type="curve" smooth="yes"/>
      <point x="159.667" y="215.667" type="line"/>
    </contour>
  </outline>
</glyph>
<glyph name="numbersign" format="2">
  <advance width="550"/>
  <unicode hex="0023"/>
  <outline>
    <contour>
      <point x="13" y="223.333" type="line"/>
      <point x="17" y="286.667" type="line"/>
      <point x="130.333" y="286.667" type="line"/>
      <point x="162.667" y="402.333" type="line"/>
      <point x="63" y="402.333" type="line"/>
      <point x="67" y="465.667" type="line"/>
      <point x="181" y="465.667" type="line"/>
      <point x="237.667" y="668" type="line"/>
      <point x="306.333" y="668" type="line"/>
      <point x="249.667" y="465.667" type="line"/>
      <point x="370" y="465.667" type="line"/>
      <point x="426.667" y="668" type="line"/>
      <point x="494.333" y="668" type="line"/>
      <point x="437.667" y="465.667" type="line"/>
      <point x="537.667" y="465.667" type="line"/>
      <point x="534.333" y="402.333" type="line"/>
      <point x="419.333" y="402.333" type="line"/>
      <point x="387" y="286.667" type="line"/>
      <point x="487.667" y="286.667" type="line"/>
      <point x="484.333" y="223.333" type="line"/>
      <point x="369.333" y="223.333" type="line"/>
      <point x="307" y="0" type="line"/>
      <point x="238.333" y="0" type="line"/>
      <point x="301.667" y="223.333" type="line"/>
      <point x="182" y="223.333" type="line"/>
      <point x="119" y="0" type="line"/>
      <point x="49.333" y="0" type="line"/>
      <point x="112.667" y="223.333" type="line"/>
    </contour>
    <contour>
      <point x="199.667" y="286.667" type="line"/>
      <point x="319.333" y="286.667" type="line"/>
      <point x="351.667" y="402.333" type="line"/>
      <point x="232" y="402.333" type="line"/>
    </contour>
  </outline>
</glyph>
<glyph name="dollar" format="2">
  <advance width="550"/>
  <unicode hex="0024"/>
  <outline>
    <contour>
      <point x="40" y="116.333" type="curve" smooth="yes"/>
      <point x="40" y="151.667"/>
      <point x="74.333" y="183"/>
      <point x="107.667" y="183" type="curve" smooth="yes"/>
      <point x="123.667" y="183"/>
      <point x="134" y="174.667"/>
      <point x="142.333" y="154.333" type="curve" smooth="yes"/>
      <point x="170.333" y="89.667"/>
      <point x="208" y="48"/>
      <point x="246.333" y="42.333" type="curve"/>
      <point x="246.333" y="291" type="line"/>
      <point x="201.333" y="307" type="line" smooth="yes"/>
      <point x="94.333" y="344.333"/>
      <point x="44.667" y="403.333"/>
      <point x="44.667" y="487.667" type="curve" smooth="yes"/>
      <point x="44.667" y="593.667"/>
      <point x="123.333" y="662.667"/>
      <point x="246.333" y="667.667" type="curve"/>
      <point x="246.333" y="746.333" type="line"/>
      <point x="297" y="746.333" type="line"/>
      <point x="297" y="668" type="line"/>
      <point x="399.667" y="664"/>
      <point x="483.333" y="615.333"/>
      <point x="483.333" y="562.333" type="curve" smooth="yes"/>
      <point x="483.333" y="530.333"/>
      <point x="452" y="506"/>
      <point x="418.333" y="506" type="curve" smooth="yes"/>
      <point x="399.667" y="506"/>
      <point x="390.667" y="513.333"/>
      <point x="383.333" y="533" type="curve" smooth="yes"/>
      <point x="362.333" y="589.333"/>
      <point x="332.667" y="620.667"/>
      <point x="297" y="625.667" type="curve"/>
      <point x="297" y="407.333" type="line"/>
      <point x="337.667" y="393" type="line" smooth="yes"/>
      <point x="458.667" y="350.667"/>
      <point x="511.667" y="290"/>
      <point x="511.667" y="198.333" type="curve" smooth="yes"/>
      <point x="511.667" y="85"/>
      <point x="418.333" y="0"/>
      <point x="297" y="0" type="curve"/>
      <point x="297" y="-103.333" type="line"/>
      <point x="246.333" y="-103.333" type="line"/>
      <point x="246.333" y="0" type="line"/>
      <point x="130.667" y="4"/>
      <point x="40" y="58.333"/>
    </contour>
    <contour>
      <point x="152.333" y="528.333" type="curve" smooth="yes"/>
      <point x="152.333" y="480"/>
      <point x="184.667" y="445.333"/>
      <point x="246.333" y="427" type="curve"/>
      <point x="246.333" y="625.333" type="line"/>
      <point x="192.333" y="623.333"/>
      <point x="152.333" y="582.333"/>
    </contour>
    <contour>
      <point x="297" y="42.333" type="line"/>
      <point x="358" y="42.333"/>
      <point x="396.667" y="82.667"/>
      <point x="396.667" y="146.333" type="curve" smooth="yes"/>
      <point x="396.667" y="206.667"/>
      <point x="363" y="250"/>
      <point x="297" y="274" type="curve"/>
    </contour>
  </outline>
</glyph>
<glyph name="percent" format="2">
  <advance width="871"/>
  <unicode hex="0025"/>
  <outline>
    <contour>
      <point x="43.333" y="495" type="curve" smooth="yes"/>
      <point x="43.333" y="615.333"/>
      <point x="100.333" y="680"/>
      <point x="216.248" y="680" type="curve" smooth="yes"/>
      <point x="268" y="680"/>
      <point x="303.199" y="667.141"/>
      <point x="327.721" y="648.182" type="curve" smooth="yes"/>
      <point x="342.015" y="637.204"/>
      <point x="354" y="633"/>
      <point x="375" y="633" type="curve" smooth="yes"/>
      <point x="527.333" y="633" type="line" smooth="yes"/>
      <point x="577.353" y="633"/>
      <point x="591" y="641.667"/>
      <point x="609.667" y="668.667" type="curve" smooth="yes"/>
      <point x="631.667" y="700.667" type="line"/>
      <point x="674.333" y="671.667" type="line"/>
      <point x="241" y="-29" type="line"/>
      <point x="197.667" y="4.067" type="line"/>
      <point x="561.667" y="593.667" type="line"/>
      <point x="369.333" y="593.667" type="line"/>
      <point x="376.333" y="572"/>
      <point x="383" y="542.333"/>
      <point x="383" y="500.602" type="curve" smooth="yes"/>
      <point x="383" y="374.667"/>
      <point x="322" y="311.333"/>
      <point x="211" y="311.333" type="curve" smooth="yes"/>
      <point x="100.333" y="311.333"/>
      <point x="43.333" y="374.667"/>
    </contour>
    <contour>
      <point x="144" y="496.978" type="curve" smooth="yes"/>
      <point x="144" y="393.667"/>
      <point x="169.667" y="347.333"/>
      <point x="213" y="347.333" type="curve" smooth="yes"/>
      <point x="257.333" y="347.333"/>
      <point x="282.333" y="393.667"/>
      <point x="282.333" y="496.913" type="curve" smooth="yes"/>
      <point x="282.333" y="604.333"/>
      <point x="255.333" y="642.667"/>
      <point x="213" y="642.667" type="curve" smooth="yes"/>
      <point x="171.667" y="642.667"/>
      <point x="144" y="604.333"/>
    </contour>
    <contour>
      <point x="487.667" y="173.057" type="curve" smooth="yes"/>
      <point x="487.667" y="294.562"/>
      <point x="544.667" y="358"/>
      <point x="658" y="358" type="curve" smooth="yes"/>
      <point x="770.333" y="358"/>
      <point x="827.333" y="294.562"/>
      <point x="827.333" y="173.057" type="curve" smooth="yes"/>
      <point x="827.333" y="51.552"/>
      <point x="770.333" y="-12"/>
      <point x="658" y="-12" type="curve" smooth="yes"/>
      <point x="544.667" y="-12"/>
      <point x="487.667" y="51.552"/>
    </contour>
    <contour>
      <point x="588.333" y="173.87" type="curve" smooth="yes"/>
      <point x="588.333" y="70.733"/>
      <point x="613.333" y="24"/>
      <point x="658" y="24" type="curve" smooth="yes"/>
      <point x="701.667" y="24"/>
      <point x="726.667" y="70.733"/>
      <point x="726.667" y="173.87" type="curve" smooth="yes"/>
      <point x="726.667" y="283.457"/>
      <point x="699" y="322"/>
      <point x="658" y="322" type="curve" smooth="yes"/>
      <point x="616" y="322"/>
      <point x="588.333" y="283.457"/>
    </contour>
  </outline>
</glyph>
<glyph name="ampersand" format="2">
  <advance width="734"/>
  <unicode hex="0026"/>
  <outline>
    <contour>
      <point x="45.333" y="180.667" type="curve" smooth="yes"/>
      <point x="45.333" y="278.667"/>
      <point x="127.667" y="330.333"/>
      <point x="188" y="361.333" type="curve"/>
      <point x="157" y="402"/>
      <point x="128" y="451.667"/>
      <point x="128" y="511" type="curve" smooth="yes"/>
      <point x="128" y="606"/>
      <point x="200.333" y="680"/>
      <point x="308" y="680" type="curve" smooth="yes"/>
      <point x="401.333" y="680"/>
      <point x="473.667" y="624.667"/>
      <point x="473.667" y="536" type="curve" smooth="yes"/>
      <point x="473.667" y="451.333"/>
      <point x="405.667" y="410.333"/>
      <point x="335.667" y="376" type="curve"/>
      <point x="384" y="318.667"/>
      <point x="448.333" y="250.333"/>
      <point x="524" y="178.333" type="curve"/>
      <point x="558.333" y="220.333"/>
      <point x="570.333" y="281"/>
      <point x="570.333" y="332.667" type="curve" smooth="yes"/>
      <point x="570.333" y="360.333"/>
      <point x="566" y="392.667"/>
      <point x="560" y="416" type="curve"/>
      <point x="585" y="432"/>
      <point x="616.333" y="441.333"/>
      <point x="641" y="441.333" type="curve" smooth="yes"/>
      <point x="647" y="441.333"/>
      <point x="654.667" y="440.667"/>
      <point x="660" y="439" type="curve"/>
      <point x="680.333" y="415"/>
      <point x="687" y="387"/>
      <point x="687" y="364.667" type="curve" smooth="yes"/>
      <point x="687" y="289.333"/>
      <point x="608.667" y="191.333"/>
      <point x="562" y="145.333" type="curve"/>
      <point x="610.667" y="97.333"/>
      <point x="680" y="37"/>
      <point x="720" y="22" type="curve"/>
      <point x="715.667" y="-6.667" type="line"/>
      <point x="678" y="-6" type="line" smooth="yes"/>
      <point x="592.333" y="-4"/>
      <point x="546.333" y="14.667"/>
      <point x="483" y="62.333" type="curve"/>
      <point x="420.667" y="13.667"/>
      <point x="353" y="-12"/>
      <point x="274.667" y="-12" type="curve" smooth="yes"/>
      <point x="148" y="-12"/>
      <point x="45.333" y="56"/>
    </contour>
    <contour>
      <point x="175.667" y="210.667" type="curve" smooth="yes"/>
      <point x="175.667" y="117.667"/>
      <point x="244" y="53.667"/>
      <point x="334" y="53.667" type="curve" smooth="yes"/>
      <point x="377" y="53.667"/>
      <point x="417.667" y="68.667"/>
      <point x="444.333" y="93.333" type="curve"/>
      <point x="352.333" y="170.333"/>
      <point x="270.667" y="257.667"/>
      <point x="219.333" y="319.333" type="curve"/>
      <point x="201.667" y="304"/>
      <point x="175.667" y="267"/>
    </contour>
    <contour>
      <point x="236.333" y="547.333" type="curve" smooth="yes"/>
      <point x="236.333" y="497.333"/>
      <point x="261" y="453.333"/>
      <point x="300.667" y="411.333" type="curve"/>
      <point x="339.667" y="440"/>
      <point x="368.667" y="485"/>
      <point x="368.667" y="543.333" type="curve" smooth="yes"/>
      <point x="368.667" y="600.667"/>
      <point x="341" y="637.667"/>
      <point x="304.333" y="637.667" type="curve" smooth="yes"/>
      <point x="267.333" y="637.667"/>
      <point x="236.333" y="602"/>
    </contour>
  </outline>
</glyph>
<glyph name="quotesingle" format="2">
  <advance width="261"/>
  <unicode hex="0027"/>
  <outline>
    <contour>
      <point x="81.3337" y="670.667" type="line" smooth="yes"/>
      <point x="79.8187" y="678.804"/>
      <point x="78.7097" y="688.923"/>
      <point x="78.7097" y="696.605" type="curve" smooth="yes"/>
      <point x="78.7097" y="727.071"/>
      <point x="95.8627" y="742.667"/>
      <point x="140" y="742.667" type="curve" smooth="yes"/>
      <point x="184.356" y="742.667"/>
      <point x="201.896" y="727.371"/>
      <point x="201.896" y="695.039" type="curve" smooth="yes"/>
      <point x="201.896" y="688.742"/>
      <point x="201.226" y="678.869"/>
      <point x="199.667" y="670.667" type="curve" smooth="yes"/>
      <point x="158.667" y="450" type="line"/>
      <point x="121.334" y="450" type="line"/>
    </contour>
  </outline>
</glyph>
<glyph name="parenleft" format="2">
  <advance width="360"/>
  <unicode hex="0028"/>
  <outline>
    <contour>
      <point x="101" y="282" type="curve" smooth="yes"/>
      <point x="101" y="450"/>
      <point x="138" y="691"/>
      <point x="334.333" y="696.667" type="curve"/>
      <point x="337.667" y="665.667" type="line"/>
      <point x="239.333" y="638"/>
      <point x="191.667" y="459.333"/>
      <point x="191.667" y="282" type="curve" smooth="yes"/>
      <point x="191.667" y="104"/>
      <point x="241" y="-74.333"/>
      <point x="337.667" y="-101.667" type="curve"/>
      <point x="334.333" y="-132.667" type="line"/>
      <point x="138" y="-127"/>
      <point x="101" y="114"/>
    </contour>
  </outline>
</glyph>
<glyph name="comma" format="2">
	<unicode hex="002C"/>
	<advance width="275"/>
	<outline>
		<contour>
			<point x="43.6667" y="-132.667" type="line"/>
			<point x="77.6667" y="-95"/>
			<point x="103" y="-53"/>
			<point x="103" y="-7.33333" type="curve" smooth="yes"/>
			<point x="103" y="39"/>
			<point x="65.3333" y="59"/>
			<point x="65.3333" y="101.667" type="curve" smooth="yes"/>
			<point x="65.3333" y="135"/>
			<point x="88" y="167"/>
			<point x="131" y="167" type="curve" smooth="yes"/>
			<point x="178.333" y="167"/>
			<point x="215" y="126"/>
			<point x="215" y="60.3333" type="curve" smooth="yes"/>
			<point x="215" y="-27.3333"/>
			<point x="131.333" y="-106.667"/>
			<point x="70" y="-158.333" type="curve"/>
		</contour>
	</outline>
</glyph>
<glyph name="hyphen" format="2">
  <advance width="397"/>
  <unicode hex="002D"/>
  <outline>
    <contour>
      <point x="56.6667" y="207.333" type="line"/>
      <point x="56.6667" y="294" type="line"/>
      <point x="340" y="294" type="line"/>
      <point x="340" y="207.333" type="line"/>
    </contour>
  </outline>
</glyph>
<glyph name="slash" format="2">
	<unicode hex="002F"/>
	<advance width="405"/>
	<outline>
		<contour>
			<point x="53.3333" y="-15" type="line"/>
			<point x="263.333" y="707" type="line"/>
			<point x="352.333" y="707" type="line"/>
			<point x="142.333" y="-15" type="line"/>
		</contour>
	</outline>
</glyph>
<glyph name="one" format="2">
	<unicode hex="0031"/>
	<advance width="550"/>
	<outline>
		<contour>
			<point x="104.333" y="0" type="line"/>
			<point x="104.333" y="35" type="line"/>
			<point x="177.667" y="41.3333" type="line" smooth="yes"/>
			<point x="203.305" y="43.5429"/>
			<point x="212" y="55.1315"/>
			<point x="212" y="85" type="curve" smooth="yes"/>
			<point x="212" y="554.667" type="line" smooth="yes"/>
			<point x="212" y="588.333"/>
			<point x="203.667" y="597"/>
			<point x="180.667" y="601" type="curve" smooth="yes"/>
			<point x="108.333" y="613.333" type="line"/>
			<point x="108.333" y="642.333" type="line"/>
			<point x="336.333" y="680" type="line"/>
			<point x="344" y="672.667" type="line"/>
			<point x="344" y="85" type="line" smooth="yes"/>
			<point x="344" y="50.6667"/>
			<point x="355.333" y="43.3333"/>
			<point x="378.333" y="41.3333" type="curve" smooth="yes"/>
			<point x="451.667" y="35" type="line"/>
			<point x="451.667" y="0" type="line"/>
		</contour>
	</outline>
</glyph>
<glyph name="two" format="2">
  <advance width="550"/>
  <unicode hex="0032"/>
  <outline>
    <contour>
      <point x="29" y="15.333" type="line"/>
      <point x="35.333" y="86"/>
      <point x="83.667" y="164"/>
      <point x="219.507" y="277.911" type="curve" smooth="yes"/>
      <point x="321" y="363.333"/>
      <point x="349.667" y="433.333"/>
      <point x="349.667" y="510.885" type="curve" smooth="yes"/>
      <point x="349.667" y="583.333"/>
      <point x="327" y="637.667"/>
      <point x="270.187" y="637.667" type="curve" smooth="yes"/>
      <point x="214" y="637.667"/>
      <point x="180.333" y="584"/>
      <point x="164.313" y="511.412" type="curve" smooth="yes"/>
      <point x="158.333" y="485"/>
      <point x="144.667" y="474.333"/>
      <point x="124.328" y="474.333" type="curve" smooth="yes"/>
      <point x="96.333" y="474.333"/>
      <point x="49.667" y="494.333"/>
      <point x="49.667" y="535.111" type="curve" smooth="yes"/>
      <point x="49.667" y="609.667"/>
      <point x="141.333" y="680"/>
      <point x="277.811" y="680" type="curve" smooth="yes"/>
      <point x="394.667" y="680"/>
      <point x="490.667" y="629.333"/>
      <point x="490.667" y="498.37" type="curve" smooth="yes"/>
      <point x="490.667" y="387.667"/>
      <point x="422" y="334"/>
      <point x="312.667" y="269.333" type="curve" smooth="yes"/>
      <point x="207.667" y="207.667"/>
      <point x="166" y="146.667"/>
      <point x="150" y="106" type="curve"/>
      <point x="405.333" y="106" type="line" smooth="yes"/>
      <point x="446.667" y="106"/>
      <point x="462" y="113"/>
      <point x="488.333" y="165.667" type="curve"/>
      <point x="521" y="160.667" type="line"/>
      <point x="483" y="0" type="line"/>
      <point x="41.667" y="0" type="line"/>
    </contour>
  </outline>
</glyph>
<glyph name="three" format="2">
	<unicode hex="0033"/>
	<advance width="550"/>
	<outline>
		<contour>
			<point x="27" y="113.333" type="curve" smooth="yes"/>
			<point x="27" y="156"/>
			<point x="70.6667" y="180.333"/>
			<point x="100.667" y="180.333" type="curve" smooth="yes"/>
			<point x="120.667" y="180.333"/>
			<point x="134" y="166.667"/>
			<point x="140" y="148.333" type="curve" smooth="yes"/>
			<point x="165" y="69"/>
			<point x="203.333" y="30.3333"/>
			<point x="255.333" y="30.3333" type="curve" smooth="yes"/>
			<point x="319.667" y="30.3333"/>
			<point x="360.667" y="79"/>
			<point x="360.667" y="185.333" type="curve" smooth="yes"/>
			<point x="360.667" y="296.333"/>
			<point x="311.333" y="336.667"/>
			<point x="249.667" y="336.667" type="curve" smooth="yes"/>
			<point x="207" y="336.667"/>
			<point x="175.333" y="324"/>
			<point x="156.667" y="324" type="curve" smooth="yes"/>
			<point x="138.333" y="324"/>
			<point x="131.333" y="339.667"/>
			<point x="131.333" y="360.667" type="curve" smooth="yes"/>
			<point x="131.333" y="382.667"/>
			<point x="138.333" y="397.333"/>
			<point x="156.667" y="397.333" type="curve" smooth="yes"/>
			<point x="175.333" y="397.333"/>
			<point x="208.333" y="384.667"/>
			<point x="249.667" y="384.667" type="curve" smooth="yes"/>
			<point x="326.667" y="384.667"/>
			<point x="337.667" y="473.667"/>
			<point x="337.667" y="517.667" type="curve" smooth="yes"/>
			<point x="337.667" y="563.667"/>
			<point x="324.667" y="637.667"/>
			<point x="257.667" y="637.667" type="curve" smooth="yes"/>
			<point x="207" y="637.667"/>
			<point x="177" y="595.667"/>
			<point x="155" y="523.667" type="curve" smooth="yes"/>
			<point x="149" y="504.667"/>
			<point x="137.667" y="493.667"/>
			<point x="118.667" y="493.667" type="curve" smooth="yes"/>
			<point x="98" y="493.667"/>
			<point x="50.3333" y="511.333"/>
			<point x="50.3333" y="551.667" type="curve" smooth="yes"/>
			<point x="50.3333" y="616"/>
			<point x="138" y="680"/>
			<point x="260" y="680" type="curve" smooth="yes"/>
			<point x="364.333" y="680"/>
			<point x="475.333" y="642.333"/>
			<point x="475.333" y="513.333" type="curve" smooth="yes"/>
			<point x="475.333" y="415"/>
			<point x="389" y="380.333"/>
			<point x="335.667" y="368" type="curve"/>
			<point x="335.667" y="364" type="line"/>
			<point x="379.333" y="358.333"/>
			<point x="503.667" y="325.667"/>
			<point x="503.667" y="185.667" type="curve" smooth="yes"/>
			<point x="503.667" y="58.3333"/>
			<point x="408.667" y="-12"/>
			<point x="252.333" y="-12" type="curve" smooth="yes"/>
			<point x="84" y="-12"/>
			<point x="27" y="73.6667"/>
		</contour>
	</outline>
</glyph>
<glyph name="five" format="2">
  <advance width="547"/>
  <unicode hex="0035"/>
  <outline>
    <contour>
      <point x="38.6667" y="116.667" type="curve" smooth="yes"/>
      <point x="38.6667" y="153.667"/>
      <point x="78.9997" y="179.667"/>
      <point x="108.334" y="179.667" type="curve" smooth="yes"/>
      <point x="130.334" y="179.667"/>
      <point x="142.667" y="166"/>
      <point x="149" y="146.333" type="curve" smooth="yes"/>
      <point x="175" y="68.667"/>
      <point x="207" y="30.333"/>
      <point x="259.667" y="30.333" type="curve" smooth="yes"/>
      <point x="330" y="30.333"/>
      <point x="362" y="99.667"/>
      <point x="362" y="195.333" type="curve" smooth="yes"/>
      <point x="362" y="322.667"/>
      <point x="306" y="371.667"/>
      <point x="235" y="371.667" type="curve" smooth="yes"/>
      <point x="188.667" y="371.667"/>
      <point x="148.334" y="350.667"/>
      <point x="108.334" y="302.667" type="curve"/>
      <point x="72.9997" y="326.667" type="line"/>
      <point x="92.9997" y="659" type="line"/>
      <point x="101.667" y="668" type="line"/>
      <point x="468.334" y="668" type="line"/>
      <point x="476.667" y="656" type="line"/>
      <point x="442.667" y="562" type="line"/>
      <point x="182.334" y="562" type="line" smooth="yes"/>
      <point x="158" y="562"/>
      <point x="153.667" y="557.333"/>
      <point x="149.334" y="526.333" type="curve" smooth="yes"/>
      <point x="127.667" y="376" type="line"/>
      <point x="129.667" y="374" type="line"/>
      <point x="166.334" y="401.667"/>
      <point x="222" y="429.667"/>
      <point x="288.667" y="429.667" type="curve" smooth="yes"/>
      <point x="444.667" y="429.667"/>
      <point x="502.667" y="321.667"/>
      <point x="502.667" y="212" type="curve" smooth="yes"/>
      <point x="502.667" y="91.333"/>
      <point x="434.334" y="-12"/>
      <point x="255.667" y="-12" type="curve" smooth="yes"/>
      <point x="93.3337" y="-12"/>
      <point x="38.6667" y="74.667"/>
    </contour>
  </outline>
</glyph>
<glyph name="six" format="2">
  <advance width="550"/>
  <unicode hex="0036"/>
  <outline>
    <contour>
      <point x="34.667" y="314.973" type="curve" smooth="yes"/>
      <point x="34.667" y="524.663"/>
      <point x="111.628" y="680"/>
      <point x="304.462" y="680" type="curve" smooth="yes"/>
      <point x="434.263" y="680"/>
      <point x="491.1" y="609.667"/>
      <point x="491.1" y="564.697" type="curve" smooth="yes"/>
      <point x="491.1" y="525.667"/>
      <point x="448.203" y="507.333"/>
      <point x="423.61" y="507.333" type="curve" smooth="yes"/>
      <point x="403.327" y="507.333"/>
      <point x="389.976" y="519.667"/>
      <point x="385.631" y="535" type="curve" smooth="yes"/>
      <point x="368.512" y="598"/>
      <point x="339.628" y="637.667"/>
      <point x="293.918" y="637.667" type="curve" smooth="yes"/>
      <point x="220.389" y="637.667"/>
      <point x="170.329" y="533.969"/>
      <point x="170.333" y="344" type="curve"/>
      <point x="172.34" y="343.904" type="line"/>
      <point x="207.864" y="385.606"/>
      <point x="259.079" y="427.333"/>
      <point x="335.237" y="427.333" type="curve" smooth="yes"/>
      <point x="434.613" y="427.333"/>
      <point x="524.333" y="357"/>
      <point x="524.333" y="218.581" type="curve" smooth="yes"/>
      <point x="524.333" y="92.667"/>
      <point x="450.263" y="-12"/>
      <point x="285.666" y="-12" type="curve" smooth="yes"/>
      <point x="105.333" y="-12"/>
      <point x="34.667" y="113.667"/>
    </contour>
    <contour>
      <point x="170.333" y="234.667" type="curve" smooth="yes"/>
      <point x="170.333" y="122.667"/>
      <point x="205.27" y="30.333"/>
      <point x="286.509" y="30.333" type="curve" smooth="yes"/>
      <point x="357.418" y="30.333"/>
      <point x="388.667" y="100.667"/>
      <point x="388.667" y="191.35" type="curve" smooth="yes"/>
      <point x="388.667" y="308.667"/>
      <point x="336.934" y="355.667"/>
      <point x="276.238" y="355.667" type="curve" smooth="yes"/>
      <point x="208.292" y="355.667"/>
      <point x="170.333" y="294.333"/>
    </contour>
  </outline>
</glyph>
<glyph name="seven" format="2">
  <advance width="547"/>
  <unicode hex="0037"/>
  <outline>
    <contour>
      <point x="32.9997" y="508.667" type="line"/>
      <point x="71.9997" y="668" type="line"/>
      <point x="504.334" y="668" type="line"/>
      <point x="516" y="656.333" type="line"/>
      <point x="496.297" y="564.112"/>
      <point x="453.573" y="484.973"/>
      <point x="365.334" y="354.333" type="curve" smooth="yes"/>
      <point x="310.563" y="273.266"/>
      <point x="295.667" y="165.502"/>
      <point x="295.667" y="42" type="curve" smooth="yes"/>
      <point x="295.667" y="-3.673"/>
      <point x="261.536" y="-12"/>
      <point x="225.556" y="-12" type="curve" smooth="yes"/>
      <point x="190.151" y="-12"/>
      <point x="154.334" y="-4"/>
      <point x="154.334" y="50.522" type="curve" smooth="yes"/>
      <point x="154.334" y="141"/>
      <point x="212.373" y="247"/>
      <point x="294.065" y="351.704" type="curve" smooth="yes"/>
      <point x="376.667" y="458"/>
      <point x="398.667" y="528"/>
      <point x="408.667" y="562" type="curve"/>
      <point x="143.667" y="562" type="line" smooth="yes"/>
      <point x="99.9997" y="562"/>
      <point x="87.6667" y="546.333"/>
      <point x="75.3337" y="521.667" type="curve" smooth="yes"/>
      <point x="65.3337" y="502" type="line"/>
    </contour>
  </outline>
</glyph>
<glyph name="eight" format="2">
	<unicode hex="0038"/>
	<advance width="550"/>
	<outline>
		<contour>
			<point x="32" y="186.667" type="curve" smooth="yes"/>
			<point x="32" y="280.667"/>
			<point x="88.3333" y="338.667"/>
			<point x="164" y="360.667" type="curve"/>
			<point x="164" y="363" type="line"/>
			<point x="103.333" y="380.333"/>
			<point x="56" y="426.667"/>
			<point x="56" y="504" type="curve" smooth="yes"/>
			<point x="56" y="616"/>
			<point x="143.333" y="680"/>
			<point x="275" y="680" type="curve" smooth="yes"/>
			<point x="408" y="680"/>
			<point x="494" y="618"/>
			<point x="494" y="504" type="curve" smooth="yes"/>
			<point x="494" y="426.667"/>
			<point x="447" y="380.333"/>
			<point x="386" y="362.333" type="curve"/>
			<point x="386" y="360" type="line"/>
			<point x="462.667" y="338.667"/>
			<point x="518" y="280.667"/>
			<point x="518" y="186.667" type="curve" smooth="yes"/>
			<point x="518" y="53"/>
			<point x="417.667" y="-12"/>
			<point x="275" y="-12" type="curve" smooth="yes"/>
			<point x="133" y="-12"/>
			<point x="32" y="53.6667"/>
		</contour>
		<contour>
			<point x="170.667" y="183.667" type="curve" smooth="yes"/>
			<point x="170.667" y="95"/>
			<point x="205" y="30.3333"/>
			<point x="275" y="30.3333" type="curve" smooth="yes"/>
			<point x="345" y="30.3333"/>
			<point x="379.333" y="95"/>
			<point x="379.333" y="183.667" type="curve" smooth="yes"/>
			<point x="379.333" y="268.667"/>
			<point x="343" y="334"/>
			<point x="275" y="334" type="curve" smooth="yes"/>
			<point x="207" y="334"/>
			<point x="170.667" y="268.667"/>
		</contour>
		<contour>
			<point x="187" y="508" type="curve" smooth="yes"/>
			<point x="187" y="437.333"/>
			<point x="218.333" y="378"/>
			<point x="275" y="378" type="curve" smooth="yes"/>
			<point x="333.667" y="378"/>
			<point x="363" y="437.333"/>
			<point x="363" y="508" type="curve" smooth="yes"/>
			<point x="363" y="582.333"/>
			<point x="333" y="637.667"/>
			<point x="275" y="637.667" type="curve" smooth="yes"/>
			<point x="219" y="637.667"/>
			<point x="187" y="582.333"/>
		</contour>
	</outline>
</glyph>
<glyph name="nine" format="2">
  <advance width="547"/>
  <unicode hex="0039"/>
  <outline>
    <contour>
      <point x="33.3337" y="456.926" type="curve" smooth="yes"/>
      <point x="33.3337" y="585"/>
      <point x="120.36" y="680"/>
      <point x="270.908" y="680" type="curve" smooth="yes"/>
      <point x="463.634" y="680"/>
      <point x="506.334" y="523.391"/>
      <point x="506.334" y="349.749" type="curve" smooth="yes"/>
      <point x="506.334" y="167.146"/>
      <point x="463.821" y="-12"/>
      <point x="244.353" y="-12" type="curve" smooth="yes"/>
      <point x="102.757" y="-12"/>
      <point x="50.5997" y="61.99"/>
      <point x="50.5997" y="104.332" type="curve" smooth="yes"/>
      <point x="50.5997" y="140.41"/>
      <point x="89.8397" y="165.333"/>
      <point x="118.685" y="165.333" type="curve" smooth="yes"/>
      <point x="137.054" y="165.333"/>
      <point x="149.364" y="155.229"/>
      <point x="155.35" y="136.695" type="curve" smooth="yes"/>
      <point x="179.667" y="62.876"/>
      <point x="205.334" y="30.333"/>
      <point x="251.843" y="30.333" type="curve" smooth="yes"/>
      <point x="332.563" y="30.333"/>
      <point x="370.667" y="137.95"/>
      <point x="370.667" y="328.667" type="curve"/>
      <point x="368.667" y="328.667" type="line"/>
      <point x="338" y="292.333"/>
      <point x="290" y="259.333"/>
      <point x="229.299" y="259.333" type="curve" smooth="yes"/>
      <point x="126.367" y="259.333"/>
      <point x="33.3337" y="323.333"/>
    </contour>
    <contour>
      <point x="169" y="485.382" type="curve" smooth="yes"/>
      <point x="169" y="391.667"/>
      <point x="208.667" y="327.667"/>
      <point x="279.896" y="327.667" type="curve" smooth="yes"/>
      <point x="345.661" y="327.667"/>
      <point x="369" y="382.142"/>
      <point x="369" y="439.667" type="curve" smooth="yes"/>
      <point x="369" y="550.667"/>
      <point x="335.334" y="637.667"/>
      <point x="264.807" y="637.667" type="curve" smooth="yes"/>
      <point x="204.667" y="637.667"/>
      <point x="169" y="574.333"/>
    </contour>
  </outline>
</glyph>
<glyph name="semicolon" format="2">
  <advance width="275"/>
  <unicode hex="003B"/>
  <outline>
    <contour>
      <point x="43.667" y="-132.667" type="line"/>
      <point x="77.667" y="-95"/>
      <point x="103" y="-53"/>
      <point x="103" y="-7.333" type="curve" smooth="yes"/>
      <point x="103" y="39"/>
      <point x="65.333" y="59"/>
      <point x="65.333" y="101.667" type="curve" smooth="yes"/>
      <point x="65.333" y="135"/>
      <point x="88" y="167"/>
      <point x="131" y="167" type="curve" smooth="yes"/>
      <point x="178.333" y="167"/>
      <point x="215" y="126"/>
      <point x="215" y="60.333" type="curve" smooth="yes"/>
      <point x="215" y="-27.333"/>
      <point x="131.333" y="-106.667"/>
      <point x="70" y="-158.333" type="curve"/>
    </contour>
    <contour>
      <point x="54.667" y="406.333" type="curve" smooth="yes"/>
      <point x="54.667" y="455.333"/>
      <point x="88.333" y="490"/>
      <point x="137.667" y="490" type="curve" smooth="yes"/>
      <point x="187.333" y="490"/>
      <point x="220.667" y="455.333"/>
      <point x="220.667" y="406.333" type="curve"/>
      <point x="220.333" y="357.667"/>
      <point x="187.333" y="323.333"/>
      <point x="137.667" y="323.333" type="curve" smooth="yes"/>
      <point x="88.333" y="323.333"/>
      <point x="54.667" y="357.667"/>
    </contour>
  </outline>
</glyph>
<glyph name="equal" format="2">
  <advance width="590"/>
  <unicode hex="003D"/>
  <outline>
    <contour>
      <point x="53" y="105.667" type="line"/>
      <point x="53" y="178.667" type="line"/>
      <point x="537" y="178.667" type="line"/>
      <point x="537" y="105.667" type="line"/>
    </contour>
    <contour>
      <point x="53" y="321.333" type="line"/>
      <point x="53" y="394.333" type="line"/>
      <point x="537" y="394.333" type="line"/>
      <point x="537" y="321.333" type="line"/>
    </contour>
  </outline>
</glyph>
<glyph name="greater" format="2">
	<unicode hex="003E"/>
	<advance width="590"/>
	<outline>
		<contour>
			<point x="56" y="3.66667" type="line"/>
			<point x="56" y="86.6667" type="line"/>
			<point x="449.667" y="248.667" type="line"/>
			<point x="56" y="411.333" type="line"/>
			<point x="56" y="495" type="line"/>
			<point x="534" y="289.333" type="line"/>
			<point x="534" y="207.333" type="line"/>
		</contour>
	</outline>
</glyph>
<glyph name="question" format="2">
  <advance width="434"/>
  <unicode hex="003F"/>
  <outline>
    <contour>
      <point x="23" y="584.026" type="curve" smooth="yes"/>
      <point x="23" y="629.333"/>
      <point x="81.667" y="707"/>
      <point x="219.841" y="707" type="curve" smooth="yes"/>
      <point x="327.667" y="707"/>
      <point x="408.333" y="659.999"/>
      <point x="408.333" y="562.53" type="curve" smooth="yes"/>
      <point x="408.333" y="500.742"/>
      <point x="383.201" y="476.5"/>
      <point x="307.084" y="434.234" type="curve" smooth="yes"/>
      <point x="255.854" y="405.627"/>
      <point x="231.667" y="371.333"/>
      <point x="231.667" y="337.258" type="curve" smooth="yes"/>
      <point x="231.667" y="298.333"/>
      <point x="263.333" y="277"/>
      <point x="300.97" y="277" type="curve" smooth="yes"/>
      <point x="314.333" y="277"/>
      <point x="328" y="279.667"/>
      <point x="337.667" y="282.333" type="curve"/>
      <point x="347.667" y="257.667" type="line"/>
      <point x="312" y="232.333"/>
      <point x="263.333" y="215.667"/>
      <point x="216.952" y="215.667" type="curve" smooth="yes"/>
      <point x="149" y="215.667"/>
      <point x="87.333" y="249.667"/>
      <point x="87.333" y="317.353" type="curve" smooth="yes"/>
      <point x="87.333" y="353"/>
      <point x="104.038" y="385.392"/>
      <point x="171.667" y="429" type="curve" smooth="yes"/>
      <point x="243.903" y="475.65"/>
      <point x="263.722" y="515.572"/>
      <point x="263.978" y="574.877" type="curve" smooth="yes"/>
      <point x="264.212" y="629"/>
      <point x="248" y="664.667"/>
      <point x="214.597" y="664.667" type="curve" smooth="yes"/>
      <point x="184.667" y="664.667"/>
      <point x="162" y="636"/>
      <point x="144" y="555.667" type="curve" smooth="yes"/>
      <point x="139" y="533.333"/>
      <point x="123.667" y="523"/>
      <point x="100.979" y="523" type="curve" smooth="yes"/>
      <point x="69.667" y="523"/>
      <point x="23" y="542.667"/>
    </contour>
    <contour>
      <point x="130" y="70.667" type="curve" smooth="yes"/>
      <point x="130" y="119.667"/>
      <point x="164" y="153.667"/>
      <point x="212.667" y="153.667" type="curve" smooth="yes"/>
      <point x="261.333" y="153.667"/>
      <point x="295.333" y="119.667"/>
      <point x="295.333" y="70.667" type="curve" smooth="yes"/>
      <point x="295.333" y="22"/>
      <point x="261.333" y="-12"/>
      <point x="212.667" y="-12" type="curve" smooth="yes"/>
      <point x="164" y="-12"/>
      <point x="130" y="22"/>
    </contour>
  </outline>
</glyph>
<glyph name="at" format="2">
  <advance width="820"/>
  <unicode hex="0040"/>
  <outline>
    <contour>
      <point x="45.333" y="309" type="curve" smooth="yes"/>
      <point x="45.333" y="557"/>
      <point x="246.333" y="707"/>
      <point x="460.667" y="707" type="curve" smooth="yes"/>
      <point x="661.667" y="707"/>
      <point x="783" y="574.667"/>
      <point x="783" y="422" type="curve" smooth="yes"/>
      <point x="783" y="294.333"/>
      <point x="697.667" y="164.667"/>
      <point x="557.333" y="164.667" type="curve" smooth="yes"/>
      <point x="493" y="164.667"/>
      <point x="470.667" y="192"/>
      <point x="470.667" y="231.667" type="curve" smooth="yes"/>
      <point x="470.667" y="254.667"/>
      <point x="478" y="286.333"/>
      <point x="485.333" y="309.667" type="curve"/>
      <point x="482.667" y="311.333" type="line"/>
      <point x="442.667" y="230.667"/>
      <point x="378.667" y="164.667"/>
      <point x="305.667" y="164.667" type="curve" smooth="yes"/>
      <point x="254.333" y="164.667"/>
      <point x="223.667" y="196.667"/>
      <point x="223.667" y="249" type="curve" smooth="yes"/>
      <point x="223.667" y="328.333"/>
      <point x="292.333" y="540.333"/>
      <point x="480.667" y="540.333" type="curve" smooth="yes"/>
      <point x="505.333" y="540.333"/>
      <point x="521" y="536.667"/>
      <point x="535.333" y="529.333" type="curve"/>
      <point x="538.667" y="536" type="line"/>
      <point x="633.667" y="536" type="line"/>
      <point x="563.667" y="264" type="line" smooth="yes"/>
      <point x="562" y="258"/>
      <point x="561" y="246.333"/>
      <point x="561" y="240.667" type="curve" smooth="yes"/>
      <point x="561" y="224.333"/>
      <point x="572.333" y="213.333"/>
      <point x="594" y="213.333" type="curve" smooth="yes"/>
      <point x="665.333" y="213.333"/>
      <point x="716.333" y="330.667"/>
      <point x="716.333" y="409.667" type="curve" smooth="yes"/>
      <point x="716.333" y="569.333"/>
      <point x="601" y="653.333"/>
      <point x="466" y="653.333" type="curve" smooth="yes"/>
      <point x="276" y="653.333"/>
      <point x="144" y="488"/>
      <point x="144" y="314.667" type="curve" smooth="yes"/>
      <point x="144" y="194"/>
      <point x="208" y="34.667"/>
      <point x="426" y="34.667" type="curve" smooth="yes"/>
      <point x="490.333" y="34.667"/>
      <point x="556.333" y="48.667"/>
      <point x="602.667" y="68.333" type="curve"/>
      <point x="612.667" y="36.667" type="line"/>
      <point x="556.667" y="-0.333"/>
      <point x="465.667" y="-15"/>
      <point x="407" y="-15" type="curve" smooth="yes"/>
      <point x="216.667" y="-15"/>
      <point x="45.333" y="87.333"/>
    </contour>
    <contour>
      <point x="332.333" y="255.667" type="curve" smooth="yes"/>
      <point x="332.333" y="229.667"/>
      <point x="342.333" y="216.333"/>
      <point x="357" y="216.333" type="curve" smooth="yes"/>
      <point x="401" y="216.333"/>
      <point x="471.333" y="338.667"/>
      <point x="496" y="410.667" type="curve" smooth="yes"/>
      <point x="526.333" y="495.333" type="line"/>
      <point x="516" y="502.667"/>
      <point x="504.667" y="505.333"/>
      <point x="493.333" y="505.333" type="curve" smooth="yes"/>
      <point x="399" y="505.333"/>
      <point x="332.333" y="323"/>
    </contour>
  </outline>
</glyph>
<glyph name="A" format="2">
  <advance width="641"/>
  <unicode hex="0041"/>
  <anchor x="315.667" y="733.333" name="top"/>
  <anchor x="507.333" y="10" name="ogonek"/>
  <anchor x="316" y="663.333" name="aring"/>
  <anchor x="160.667" y="705.333" name="tonos"/>
  <outline>
    <contour>
      <point x="-28.333" y="0" type="line"/>
      <point x="-28.333" y="35" type="line"/>
      <point x="28.667" y="38"/>
      <point x="40" y="46.333"/>
      <point x="56.667" y="92.667" type="curve" smooth="yes"/>
      <point x="267" y="692" type="line"/>
      <point x="375.667" y="692" type="line"/>
      <point x="577.667" y="87" type="line" smooth="yes"/>
      <point x="592.333" y="42.333"/>
      <point x="604.667" y="38"/>
      <point x="658.667" y="35" type="curve"/>
      <point x="658.667" y="0" type="line"/>
      <point x="362.667" y="0" type="line"/>
      <point x="362.667" y="35" type="line"/>
      <point x="416.333" y="40.333" type="line" smooth="yes"/>
      <point x="433" y="41.667"/>
      <point x="440.333" y="48.333"/>
      <point x="440.333" y="60.333" type="curve" smooth="yes"/>
      <point x="440.333" y="65.333"/>
      <point x="439" y="71"/>
      <point x="436.667" y="78.667" type="curve" smooth="yes"/>
      <point x="379.667" y="253" type="line"/>
      <point x="175.667" y="253" type="line"/>
      <point x="123.333" y="77.333" type="line" smooth="yes"/>
      <point x="121.333" y="70.333"/>
      <point x="120" y="64.333"/>
      <point x="120" y="59.333" type="curve" smooth="yes"/>
      <point x="120" y="48"/>
      <point x="126.667" y="41.333"/>
      <point x="143.667" y="40" type="curve" smooth="yes"/>
      <point x="201" y="35" type="line"/>
      <point x="201" y="0" type="line"/>
    </contour>
    <contour>
      <point x="190.667" y="297.667" type="line"/>
      <point x="365" y="297.667" type="line"/>
      <point x="280" y="565.667" type="line"/>
      <point x="277" y="565.667" type="line"/>
    </contour>
  </outline>
</glyph>
<glyph name="B" format="2">
	<unicode hex="0042"/>
	<advance width="671"/>
	<outline>
		<contour>
			<point x="33.6667" y="0" type="line"/>
			<point x="33.6667" y="35" type="line"/>
			<point x="110.333" y="39"/>
			<point x="116.333" y="43"/>
			<point x="116.333" y="95.6667" type="curve" smooth="yes"/>
			<point x="116.333" y="596.333" type="line" smooth="yes"/>
			<point x="116.333" y="649"/>
			<point x="110.333" y="653"/>
			<point x="33.6667" y="657" type="curve"/>
			<point x="33.6667" y="692" type="line"/>
			<point x="350" y="692" type="line" smooth="yes"/>
			<point x="482" y="692"/>
			<point x="566" y="659.333"/>
			<point x="579" y="569.333" type="curve"/>
			<point x="592.333" y="505.667"/>
			<point x="566.333" y="457.333"/>
			<point x="501" y="425" type="curve"/>
			<point x="501" y="399.114"/>
			<point x="482.667" y="378.94"/>
			<point x="451.333" y="372.333" type="curve"/>
			<point x="513.333" y="362.887"/>
			<point x="568" y="325.8"/>
			<point x="568" y="251.667" type="curve"/>
			<point x="600.333" y="211.333"/>
			<point x="617.667" y="162"/>
			<point x="590.333" y="100.667" type="curve"/>
			<point x="562.333" y="31.6667"/>
			<point x="483.667" y="0"/>
			<point x="357" y="0" type="curve" smooth="yes"/>
		</contour>
		<contour>
			<point x="256" y="111.333" type="line" smooth="yes"/>
			<point x="256" y="58"/>
			<point x="276" y="42.3333"/>
			<point x="336" y="42.3333" type="curve" smooth="yes"/>
			<point x="411.333" y="42.3333"/>
			<point x="476" y="76.3333"/>
			<point x="476" y="187.667" type="curve" smooth="yes"/>
			<point x="476" y="279"/>
			<point x="422" y="347"/>
			<point x="314" y="347" type="curve" smooth="yes"/>
			<point x="256" y="347" type="line"/>
		</contour>
		<contour>
			<point x="256" y="389.333" type="line"/>
			<point x="311" y="389.333" type="line" smooth="yes"/>
			<point x="409.667" y="389.333"/>
			<point x="456.667" y="439"/>
			<point x="456.667" y="521" type="curve" smooth="yes"/>
			<point x="456.667" y="605.333"/>
			<point x="406" y="649.667"/>
			<point x="321.667" y="649.667" type="curve" smooth="yes"/>
			<point x="269" y="649.667"/>
			<point x="256" y="645.333"/>
			<point x="256" y="608.333" type="curve" smooth="yes"/>
		</contour>
	</outline>
</glyph>
<glyph name="C" format="2">
	<unicode hex="0043"/>
	<advance width="687"/>
	<outline>
		<contour>
			<point x="44" y="338" type="curve" smooth="yes"/>
			<point x="44" y="582"/>
			<point x="182.667" y="707"/>
			<point x="416.667" y="707" type="curve" smooth="yes"/>
			<point x="486" y="707"/>
			<point x="581.333" y="695.667"/>
			<point x="636.333" y="664.667" type="curve"/>
			<point x="636.333" y="493.333" type="line"/>
			<point x="601" y="493.333" type="line"/>
			<point x="579.333" y="580.667"/>
			<point x="532.333" y="664.667"/>
			<point x="417.333" y="664.667" type="curve" smooth="yes"/>
			<point x="230.333" y="664.667"/>
			<point x="199.333" y="454.667"/>
			<point x="199.333" y="349" type="curve" smooth="yes"/>
			<point x="199.333" y="235.667"/>
			<point x="230.333" y="27.3333"/>
			<point x="418.667" y="27.3333" type="curve" smooth="yes"/>
			<point x="536.667" y="27.3333"/>
			<point x="582.333" y="110.667"/>
			<point x="617" y="218.667" type="curve"/>
			<point x="652.333" y="218.667" type="line"/>
			<point x="639.667" y="33" type="line"/>
			<point x="583.667" y="0.333333"/>
			<point x="483.667" y="-15"/>
			<point x="407.667" y="-15" type="curve" smooth="yes"/>
			<point x="159.667" y="-15"/>
			<point x="44" y="115.667"/>
		</contour>
	</outline>
	<anchor name="cedilla" x="399" y="10"/>
</glyph>
<glyph name="D" format="2">
  <advance width="778"/>
  <unicode hex="0044"/>
  <outline>
    <contour>
      <point x="33.667" y="0" type="line"/>
      <point x="33.667" y="35" type="line"/>
      <point x="110.333" y="39"/>
      <point x="116.333" y="43"/>
      <point x="116.333" y="95.667" type="curve" smooth="yes"/>
      <point x="116.333" y="596.333" type="line" smooth="yes"/>
      <point x="116.333" y="649"/>
      <point x="110.333" y="653"/>
      <point x="33.667" y="657" type="curve"/>
      <point x="33.667" y="692" type="line"/>
      <point x="373" y="692" type="line" smooth="yes"/>
      <point x="624" y="692"/>
      <point x="733.667" y="569.333"/>
      <point x="733.667" y="353" type="curve" smooth="yes"/>
      <point x="733.667" y="73.667"/>
      <point x="543.333" y="0"/>
      <point x="337" y="0" type="curve" smooth="yes"/>
    </contour>
    <contour>
      <point x="256" y="101.667" type="line" smooth="yes"/>
      <point x="256" y="54"/>
      <point x="273" y="42.333"/>
      <point x="339.333" y="42.333" type="curve" smooth="yes"/>
      <point x="465.333" y="42.333"/>
      <point x="578.333" y="93.333"/>
      <point x="578.333" y="350" type="curve" smooth="yes"/>
      <point x="578.333" y="538.333"/>
      <point x="510" y="649.667"/>
      <point x="350" y="649.667" type="curve" smooth="yes"/>
      <point x="272.333" y="649.667"/>
      <point x="256" y="644.667"/>
      <point x="256" y="612" type="curve" smooth="yes"/>
    </contour>
  </outline>
</glyph>
<glyph name="F" format="2">
  <advance width="589"/>
  <unicode hex="0046"/>
  <outline>
    <contour>
      <point x="36.333" y="0" type="line"/>
      <point x="36.333" y="35" type="line"/>
      <point x="113" y="39"/>
      <point x="119" y="43"/>
      <point x="119" y="95.667" type="curve" smooth="yes"/>
      <point x="119" y="596.333" type="line" smooth="yes"/>
      <point x="119" y="649"/>
      <point x="113" y="653"/>
      <point x="36.333" y="657" type="curve"/>
      <point x="36.333" y="692" type="line"/>
      <point x="559.667" y="692" type="line"/>
      <point x="559.667" y="515.333" type="line"/>
      <point x="524.333" y="515.333" type="line"/>
      <point x="499" y="614"/>
      <point x="479.333" y="649.667"/>
      <point x="372" y="649.667" type="curve" smooth="yes"/>
      <point x="294.333" y="649.667" type="line" smooth="yes"/>
      <point x="264.667" y="649.667"/>
      <point x="258.667" y="644"/>
      <point x="258.667" y="613.667" type="curve" smooth="yes"/>
      <point x="258.667" y="368.333" type="line"/>
      <point x="381.333" y="368.333" type="line" smooth="yes"/>
      <point x="451.667" y="368.333"/>
      <point x="461.667" y="387.667"/>
      <point x="475.333" y="457.667" type="curve"/>
      <point x="510.667" y="457.667" type="line"/>
      <point x="510.667" y="231.667" type="line"/>
      <point x="475.333" y="231.667" type="line"/>
      <point x="461.667" y="301.667"/>
      <point x="451.667" y="321"/>
      <point x="381.333" y="321" type="curve" smooth="yes"/>
      <point x="258.667" y="321" type="line"/>
      <point x="258.667" y="95.667" type="line" smooth="yes"/>
      <point x="258.667" y="43"/>
      <point x="265" y="39"/>
      <point x="358" y="35" type="curve"/>
      <point x="358" y="0" type="line"/>
    </contour>
  </outline>
</glyph>
<glyph name="H" format="2">
	<unicode hex="0048"/>
	<advance width="804"/>
	<outline>
		<contour>
			<point x="33.6667" y="0" type="line"/>
			<point x="33.6667" y="35" type="line"/>
			<point x="110.333" y="39"/>
			<point x="116.333" y="43"/>
			<point x="116.333" y="95.6667" type="curve" smooth="yes"/>
			<point x="116.333" y="596.333" type="line" smooth="yes"/>
			<point x="116.333" y="649"/>
			<point x="110.333" y="653"/>
			<point x="33.6667" y="657" type="curve"/>
			<point x="33.6667" y="692" type="line"/>
			<point x="338.667" y="692" type="line"/>
			<point x="338.667" y="657" type="line"/>
			<point x="262.333" y="653"/>
			<point x="256" y="649"/>
			<point x="256" y="596.333" type="curve" smooth="yes"/>
			<point x="256" y="385.667" type="line"/>
			<point x="548" y="385.667" type="line"/>
			<point x="548" y="596.333" type="line" smooth="yes"/>
			<point x="548" y="649"/>
			<point x="542" y="653"/>
			<point x="465.333" y="657" type="curve"/>
			<point x="465.333" y="692" type="line"/>
			<point x="770.333" y="692" type="line"/>
			<point x="770.333" y="657" type="line"/>
			<point x="694" y="653"/>
			<point x="687.667" y="649"/>
			<point x="687.667" y="596.333" type="curve" smooth="yes"/>
			<point x="687.667" y="95.6667" type="line" smooth="yes"/>
			<point x="687.667" y="43"/>
			<point x="694" y="39"/>
			<point x="770.333" y="35" type="curve"/>
			<point x="770.333" y="0" type="line"/>
			<point x="465.333" y="0" type="line"/>
			<point x="465.333" y="35" type="line"/>
			<point x="542" y="39"/>
			<point x="548" y="43"/>
			<point x="548" y="95.6667" type="curve" smooth="yes"/>
			<point x="548" y="341" type="line"/>
			<point x="256" y="341" type="line"/>
			<point x="256" y="95.6667" type="line" smooth="yes"/>
			<point x="256" y="43"/>
			<point x="262.333" y="39"/>
			<point x="338.667" y="35" type="curve"/>
			<point x="338.667" y="0" type="line"/>
		</contour>
	</outline>
	<anchor name="tonos" x="2" y="702"/>
</glyph>
<glyph name="I" format="2">
  <advance width="372"/>
  <unicode hex="0049"/>
  <anchor x="203.333" y="10" name="ogonek"/>
  <anchor x="0" y="702" name="tonos"/>
  <anchor x="186.333" y="-62.667" name="bottom"/>
  <outline>
    <contour>
      <point x="33.667" y="0" type="line"/>
      <point x="33.667" y="35" type="line"/>
      <point x="110.333" y="39"/>
      <point x="116.333" y="43"/>
      <point x="116.333" y="95.667" type="curve" smooth="yes"/>
      <point x="116.333" y="596.333" type="line" smooth="yes"/>
      <point x="116.333" y="649"/>
      <point x="110.333" y="653"/>
      <point x="33.667" y="657" type="curve"/>
      <point x="33.667" y="692" type="line"/>
      <point x="338.667" y="692" type="line"/>
      <point x="338.667" y="657" type="line"/>
      <point x="262.333" y="653"/>
      <point x="256" y="649"/>
      <point x="256" y="596.333" type="curve" smooth="yes"/>
      <point x="256" y="95.667" type="line" smooth="yes"/>
      <point x="256" y="43"/>
      <point x="262.333" y="39"/>
      <point x="338.667" y="35" type="curve"/>
      <point x="338.667" y="0" type="line"/>
    </contour>
  </outline>
</glyph>
<glyph name="J" format="2">
  <advance width="374"/>
  <unicode hex="004A"/>
  <outline>
    <contour>
      <point x="4" y="-85" type="line"/>
      <point x="117.039" y="-51.74"/>
      <point x="126" y="35.241"/>
      <point x="126" y="143" type="curve" smooth="yes"/>
      <point x="126" y="596.333" type="line" smooth="yes"/>
      <point x="126" y="649"/>
      <point x="120" y="653"/>
      <point x="43.333" y="657" type="curve"/>
      <point x="43.333" y="692" type="line"/>
      <point x="348.333" y="692" type="line"/>
      <point x="348.333" y="657" type="line"/>
      <point x="272" y="653"/>
      <point x="265.667" y="649"/>
      <point x="265.667" y="596.333" type="curve" smooth="yes"/>
      <point x="265.667" y="143" type="line" smooth="yes"/>
      <point x="265.667" y="-38.031"/>
      <point x="184.849" y="-111.231"/>
      <point x="9.667" y="-114" type="curve"/>
    </contour>
  </outline>
</glyph>
<glyph name="K" format="2">
  <advance width="691"/>
  <unicode hex="004B"/>
  <outline>
    <contour>
      <point x="256" y="360.333" type="line"/>
      <point x="330.667" y="443"/>
      <point x="418.003" y="540.721"/>
      <point x="484.333" y="621.333" type="curve" smooth="yes"/>
      <point x="491.677" y="630.063"/>
      <point x="495" y="636.667"/>
      <point x="495" y="642" type="curve" smooth="yes"/>
      <point x="495" y="648.333"/>
      <point x="489.647" y="652.19"/>
      <point x="480" y="653.333" type="curve" smooth="yes"/>
      <point x="439.333" y="658.333" type="line"/>
      <point x="439.333" y="692" type="line"/>
      <point x="701.667" y="692" type="line"/>
      <point x="701.667" y="658.333" type="line"/>
      <point x="632.667" y="653.333"/>
      <point x="612.913" y="644.042"/>
      <point x="574.667" y="611.667" type="curve" smooth="yes"/>
      <point x="507.911" y="555.707"/>
      <point x="444" y="490.667"/>
      <point x="370.667" y="412.333" type="curve"/>
      <point x="415.667" y="340.333"/>
      <point x="606.333" y="53"/>
      <point x="701.667" y="27.667" type="curve"/>
      <point x="701.667" y="-5" type="line"/>
      <point x="635.333" y="-4" type="line" smooth="yes"/>
      <point x="536.666" y="-3.016"/>
      <point x="483.764" y="26.75"/>
      <point x="417" y="108" type="curve" smooth="yes"/>
      <point x="356.097" y="181.083"/>
      <point x="312" y="250.333"/>
      <point x="258" y="345" type="curve"/>
      <point x="256" y="345" type="line"/>
    </contour>
    <contour>
      <point x="33.667" y="0" type="line"/>
      <point x="33.667" y="35" type="line"/>
      <point x="110.333" y="39"/>
      <point x="116.333" y="43"/>
      <point x="116.333" y="95.667" type="curve" smooth="yes"/>
      <point x="116.333" y="596.333" type="line" smooth="yes"/>
      <point x="116.333" y="649"/>
      <point x="110.333" y="653"/>
      <point x="33.667" y="657" type="curve"/>
      <point x="33.667" y="692" type="line"/>
      <point x="338.667" y="692" type="line"/>
      <point x="338.667" y="657" type="line"/>
      <point x="262.333" y="653"/>
      <point x="256" y="649"/>
      <point x="256" y="596.333" type="curve" smooth="yes"/>
      <point x="256" y="95.667" type="line" smooth="yes"/>
      <point x="256" y="43"/>
      <point x="262.333" y="39"/>
      <point x="338.667" y="35" type="curve"/>
      <point x="338.667" y="0" type="line"/>
    </contour>
  </outline>
</glyph>
<glyph name="L" format="2">
  <advance width="579"/>
  <unicode hex="004C"/>
  <anchor x="525" y="742" name="quote"/>
  <anchor x="377.333" y="387" name="dot"/>
  <outline>
    <contour>
      <point x="33.667" y="0" type="line"/>
      <point x="33.667" y="35" type="line"/>
      <point x="110.333" y="39"/>
      <point x="116.333" y="43"/>
      <point x="116.333" y="95.667" type="curve" smooth="yes"/>
      <point x="116.333" y="596.333" type="line" smooth="yes"/>
      <point x="116.333" y="649"/>
      <point x="110.333" y="653"/>
      <point x="33.667" y="657" type="curve"/>
      <point x="33.667" y="692" type="line"/>
      <point x="348.667" y="692" type="line"/>
      <point x="348.667" y="657" type="line"/>
      <point x="262.333" y="653"/>
      <point x="256" y="649"/>
      <point x="256" y="596.333" type="curve" smooth="yes"/>
      <point x="256" y="119.333" type="line" smooth="yes"/>
      <point x="256" y="50"/>
      <point x="287.667" y="42.333"/>
      <point x="374" y="42.333" type="curve" smooth="yes"/>
      <point x="481" y="42.333"/>
      <point x="512" y="83.333"/>
      <point x="542.667" y="193.667" type="curve"/>
      <point x="578" y="193.667" type="line"/>
      <point x="566" y="0" type="line"/>
    </contour>
  </outline>
</glyph>
<glyph name="M" format="2">
	<unicode hex="004D"/>
	<advance width="927"/>
	<outline>
		<contour>
			<point x="26.3333" y="657" type="curve"/>
			<point x="26.3333" y="692" type="line"/>
			<point x="270" y="692" type="line"/>
			<point x="463.667" y="211.667" type="line"/>
			<point x="466.333" y="211.667" type="line"/>
			<point x="653.333" y="692" type="line"/>
			<point x="893" y="692" type="line"/>
			<point x="893" y="657" type="line"/>
			<point x="816.667" y="653"/>
			<point x="810.333" y="649"/>
			<point x="810.333" y="596.333" type="curve" smooth="yes"/>
			<point x="810.333" y="95.6667" type="line" smooth="yes"/>
			<point x="810.333" y="43"/>
			<point x="816.667" y="39"/>
			<point x="893" y="35" type="curve"/>
			<point x="893" y="0" type="line"/>
			<point x="594" y="0" type="line"/>
			<point x="594" y="35" type="line"/>
			<point x="670.667" y="39"/>
			<point x="676.667" y="43"/>
			<point x="676.667" y="95.6667" type="curve" smooth="yes"/>
			<point x="676.667" y="595.333" type="line"/>
			<point x="673.667" y="595.333" type="line"/>
			<point x="447.333" y="16" type="line"/>
			<point x="397.667" y="16" type="line"/>
			<point x="168.333" y="595.333" type="line"/>
			<point x="165.667" y="595.333" type="line"/>
			<point x="165.667" y="235.667" type="line" smooth="yes"/>
			<point x="165.667" y="164"/>
			<point x="167" y="125.333"/>
			<point x="171.333" y="90.3333" type="curve" smooth="yes"/>
			<point x="176.667" y="43.6667"/>
			<point x="209.333" y="40"/>
			<point x="267" y="35" type="curve"/>
			<point x="267" y="0" type="line"/>
			<point x="28.6667" y="0" type="line"/>
			<point x="28.6667" y="35" type="line"/>
			<point x="78" y="41"/>
			<point x="98" y="49"/>
			<point x="103.333" y="90.3333" type="curve" smooth="yes"/>
			<point x="107.667" y="124.667"/>
			<point x="109" y="163.333"/>
			<point x="109" y="235.667" type="curve" smooth="yes"/>
			<point x="109" y="596.333" type="line" smooth="yes"/>
			<point x="109" y="649"/>
			<point x="103" y="653"/>
		</contour>
	</outline>
</glyph>
<glyph name="N" format="2">
	<unicode hex="004E"/>
	<advance width="753"/>
	<outline>
		<contour>
			<point x="28" y="657" type="curve"/>
			<point x="28" y="692" type="line"/>
			<point x="250" y="692" type="line"/>
			<point x="590" y="190" type="line"/>
			<point x="593.333" y="190" type="line"/>
			<point x="593.333" y="456.333" type="line" smooth="yes"/>
			<point x="593.333" y="528.667"/>
			<point x="591.333" y="566.667"/>
			<point x="587.667" y="601.667" type="curve" smooth="yes"/>
			<point x="583.667" y="644.333"/>
			<point x="549" y="652"/>
			<point x="490.667" y="657" type="curve"/>
			<point x="490.667" y="692" type="line"/>
			<point x="730.333" y="692" type="line"/>
			<point x="730.333" y="657" type="line"/>
			<point x="681" y="651"/>
			<point x="659" y="643.667"/>
			<point x="655" y="601.667" type="curve" smooth="yes"/>
			<point x="652" y="567.333"/>
			<point x="650" y="528.667"/>
			<point x="650" y="456.333" type="curve" smooth="yes"/>
			<point x="650" y="0" type="line"/>
			<point x="554.667" y="0" type="line"/>
			<point x="170.667" y="572.667" type="line"/>
			<point x="167.333" y="572.667" type="line"/>
			<point x="167.333" y="235.667" type="line" smooth="yes"/>
			<point x="167.333" y="163.333"/>
			<point x="169.333" y="125.333"/>
			<point x="173" y="90.3333" type="curve" smooth="yes"/>
			<point x="177.667" y="44.3333"/>
			<point x="211.667" y="40"/>
			<point x="270" y="35" type="curve"/>
			<point x="270" y="0" type="line"/>
			<point x="30.3333" y="0" type="line"/>
			<point x="30.3333" y="35" type="line"/>
			<point x="84.3333" y="41.6667"/>
			<point x="102.667" y="49"/>
			<point x="106" y="96.3333" type="curve" smooth="yes"/>
			<point x="108.333" y="124.667"/>
			<point x="110.667" y="163.333"/>
			<point x="110.667" y="235.667" type="curve" smooth="yes"/>
			<point x="110.667" y="596.333" type="line" smooth="yes"/>
			<point x="110.667" y="649"/>
			<point x="104.667" y="653"/>
		</contour>
	</outline>
</glyph>
<glyph name="O" format="2">
	<unicode hex="004F"/>
	<advance width="766"/>
	<outline>
		<contour>
			<point x="44" y="346" type="curve" smooth="yes"/>
			<point x="44" y="568.333"/>
			<point x="155" y="707"/>
			<point x="383" y="707" type="curve" smooth="yes"/>
			<point x="611" y="707"/>
			<point x="722" y="568.333"/>
			<point x="722" y="346" type="curve" smooth="yes"/>
			<point x="722" y="123.667"/>
			<point x="611" y="-15"/>
			<point x="383" y="-15" type="curve" smooth="yes"/>
			<point x="155" y="-15"/>
			<point x="44" y="123.667"/>
		</contour>
		<contour>
			<point x="199.333" y="348" type="curve" smooth="yes"/>
			<point x="199.333" y="216.333"/>
			<point x="227" y="27.3333"/>
			<point x="383" y="27.3333" type="curve" smooth="yes"/>
			<point x="540.333" y="27.3333"/>
			<point x="566.667" y="216.333"/>
			<point x="566.667" y="346" type="curve" smooth="yes"/>
			<point x="566.667" y="475.667"/>
			<point x="540.333" y="664.667"/>
			<point x="383" y="664.667" type="curve" smooth="yes"/>
			<point x="225.667" y="664.667"/>
			<point x="199.333" y="475.667"/>
		</contour>
	</outline>
	<anchor name="tonos" x="47.3333" y="702"/>
</glyph>
<glyph name="P" format="2">
	<unicode hex="0050"/>
	<advance width="633"/>
	<outline>
		<contour>
			<point x="33.6667" y="0" type="line"/>
			<point x="33.6667" y="35" type="line"/>
			<point x="110.333" y="39"/>
			<point x="116.333" y="43"/>
			<point x="116.333" y="95.6667" type="curve" smooth="yes"/>
			<point x="116.333" y="596.333" type="line" smooth="yes"/>
			<point x="116.333" y="649"/>
			<point x="110.333" y="653"/>
			<point x="33.6667" y="657" type="curve"/>
			<point x="33.6667" y="692" type="line"/>
			<point x="333.333" y="692" type="line" smooth="yes"/>
			<point x="471" y="692"/>
			<point x="606.667" y="657.667"/>
			<point x="606.667" y="491.333" type="curve" smooth="yes"/>
			<point x="606.667" y="318"/>
			<point x="459.333" y="278"/>
			<point x="315" y="278" type="curve" smooth="yes"/>
			<point x="256" y="278" type="line"/>
			<point x="256" y="95.6667" type="line" smooth="yes"/>
			<point x="256" y="43"/>
			<point x="262.333" y="39"/>
			<point x="355.333" y="35" type="curve"/>
			<point x="355.333" y="0" type="line"/>
		</contour>
		<contour>
			<point x="256" y="362" type="line" smooth="yes"/>
			<point x="256" y="324.333"/>
			<point x="272.333" y="320.333"/>
			<point x="318" y="320.333" type="curve" smooth="yes"/>
			<point x="414" y="320.333"/>
			<point x="458.667" y="394.667"/>
			<point x="458.667" y="487" type="curve" smooth="yes"/>
			<point x="458.667" y="600"/>
			<point x="399.667" y="649.667"/>
			<point x="320.667" y="649.667" type="curve" smooth="yes"/>
			<point x="265" y="649.667"/>
			<point x="256" y="640.667"/>
			<point x="256" y="612.667" type="curve" smooth="yes"/>
		</contour>
	</outline>
	<anchor name="tonos" x="-4" y="702"/>
</glyph>
<glyph name="Q" format="2">
  <advance width="766"/>
  <unicode hex="0051"/>
  <outline>
    <contour>
      <point x="44" y="349.333" type="curve" smooth="yes"/>
      <point x="44" y="568.333"/>
      <point x="154.667" y="707"/>
      <point x="383" y="707" type="curve" smooth="yes"/>
      <point x="611.333" y="707"/>
      <point x="722" y="568.333"/>
      <point x="722" y="352" type="curve" smooth="yes"/>
      <point x="722" y="135.333"/>
      <point x="610.333" y="-16.667"/>
      <point x="381.333" y="-16.667" type="curve" smooth="yes"/>
      <point x="162.667" y="-16.667"/>
      <point x="44" y="123"/>
    </contour>
    <contour>
      <point x="199.333" y="345" type="curve" smooth="yes"/>
      <point x="199.333" y="208.667"/>
      <point x="227" y="27.333"/>
      <point x="383" y="27.333" type="curve" smooth="yes"/>
      <point x="539" y="27.333"/>
      <point x="566.667" y="208.667"/>
      <point x="566.667" y="345" type="curve" smooth="yes"/>
      <point x="566.667" y="481.667"/>
      <point x="539" y="664.667"/>
      <point x="383" y="664.667" type="curve" smooth="yes"/>
      <point x="227" y="664.667"/>
      <point x="199.333" y="481.667"/>
    </contour>
    <contour>
      <point x="481" y="6.167" type="line"/>
      <point x="506.333" y="-50.667"/>
      <point x="598" y="-150.667"/>
      <point x="672.667" y="-150.667" type="curve"/>
      <point x="673.203" y="-150.667"/>
      <point x="680.624" y="-150.667"/>
      <point x="686" y="-150.333" type="curve"/>
      <point x="691" y="-171.667" type="line"/>
      <point x="668" y="-185.667"/>
      <point x="632.667" y="-193"/>
      <point x="595" y="-193" type="curve" smooth="yes"/>
      <point x="452" y="-193"/>
      <point x="358" y="-86"/>
      <point x="325.667" y="-0.5" type="curve"/>
    </contour>
  </outline>
</glyph>
<glyph name="R" format="2">
	<unicode hex="0052"/>
	<advance width="671"/>
	<outline>
		<contour>
			<point x="33.6667" y="0" type="line"/>
			<point x="33.6667" y="35" type="line"/>
			<point x="110.333" y="39"/>
			<point x="116.333" y="43"/>
			<point x="116.333" y="95.6667" type="curve" smooth="yes"/>
			<point x="116.333" y="596.333" type="line" smooth="yes"/>
			<point x="116.333" y="649"/>
			<point x="110.333" y="653"/>
			<point x="33.6667" y="657" type="curve"/>
			<point x="33.6667" y="692" type="line"/>
			<point x="362.333" y="692" type="line" smooth="yes"/>
			<point x="504.667" y="692"/>
			<point x="602.667" y="645.667"/>
			<point x="602.667" y="517" type="curve" smooth="yes"/>
			<point x="602.667" y="426"/>
			<point x="533" y="361.667"/>
			<point x="435.667" y="347" type="curve"/>
			<point x="435.667" y="345" type="line"/>
			<point x="539.667" y="319"/>
			<point x="558.333" y="252.667"/>
			<point x="571.333" y="172.667" type="curve" smooth="yes"/>
			<point x="580.667" y="113.667"/>
			<point x="602" y="39.6667"/>
			<point x="670" y="35" type="curve"/>
			<point x="670" y="0" type="line"/>
			<point x="600.333" y="0" type="line" smooth="yes"/>
			<point x="453.667" y="0"/>
			<point x="439.667" y="78"/>
			<point x="419.667" y="196.667" type="curve" smooth="yes"/>
			<point x="408" y="264"/>
			<point x="394.667" y="320.667"/>
			<point x="309.667" y="320.667" type="curve" smooth="yes"/>
			<point x="256" y="320.667" type="line"/>
			<point x="256" y="95.6667" type="line" smooth="yes"/>
			<point x="256" y="44.6667"/>
			<point x="261.333" y="39.3333"/>
			<point x="333.667" y="35" type="curve"/>
			<point x="333.667" y="0" type="line"/>
		</contour>
		<contour>
			<point x="256" y="363" type="line"/>
			<point x="315.667" y="363" type="line" smooth="yes"/>
			<point x="415.333" y="363"/>
			<point x="455" y="418.333"/>
			<point x="455" y="506.333" type="curve" smooth="yes"/>
			<point x="455" y="616"/>
			<point x="393" y="649.667"/>
			<point x="323" y="649.667" type="curve" smooth="yes"/>
			<point x="264.333" y="649.667"/>
			<point x="256" y="639"/>
			<point x="256" y="607" type="curve" smooth="yes"/>
		</contour>
	</outline>
</glyph>
<glyph name="S" format="2">
	<unicode hex="0053"/>
	<advance width="554"/>
	<outline>
		<contour>
			<point x="44.6667" y="219" type="line"/>
			<point x="80" y="219" type="line"/>
			<point x="113.667" y="98.3333"/>
			<point x="185" y="27.3333"/>
			<point x="273" y="27.3333" type="curve" smooth="yes"/>
			<point x="338.667" y="27.3333"/>
			<point x="389.667" y="68"/>
			<point x="389.667" y="144.667" type="curve" smooth="yes"/>
			<point x="389.667" y="218.333"/>
			<point x="330.333" y="263.667"/>
			<point x="255.667" y="294.667" type="curve" smooth="yes"/>
			<point x="234.333" y="303.667" type="line" smooth="yes"/>
			<point x="144.667" y="341.667"/>
			<point x="54.3333" y="395.667"/>
			<point x="54.3333" y="512" type="curve" smooth="yes"/>
			<point x="54.3333" y="628.667"/>
			<point x="144.333" y="707"/>
			<point x="296" y="707" type="curve" smooth="yes"/>
			<point x="359" y="707"/>
			<point x="431" y="693.333"/>
			<point x="478" y="663" type="curve"/>
			<point x="478" y="506.667" type="line"/>
			<point x="442.667" y="506.667" type="line"/>
			<point x="418.667" y="618.333"/>
			<point x="362.667" y="664.667"/>
			<point x="292.667" y="664.667" type="curve" smooth="yes"/>
			<point x="224.667" y="664.667"/>
			<point x="180.667" y="620"/>
			<point x="180.667" y="557" type="curve" smooth="yes"/>
			<point x="180.667" y="488.333"/>
			<point x="244.667" y="450"/>
			<point x="307.333" y="424.333" type="curve" smooth="yes"/>
			<point x="330.667" y="415" type="line" smooth="yes"/>
			<point x="430" y="375.333"/>
			<point x="523.333" y="322.667"/>
			<point x="523.333" y="196.667" type="curve" smooth="yes"/>
			<point x="523.333" y="92"/>
			<point x="459.667" y="-15"/>
			<point x="273" y="-15" type="curve" smooth="yes"/>
			<point x="200.333" y="-15"/>
			<point x="106.667" y="1.33333"/>
			<point x="58" y="46.3333" type="curve"/>
		</contour>
	</outline>
	<anchor name="cedilla" x="277.667" y="6.66667"/>
</glyph>
<glyph name="T" format="2">
  <advance width="623"/>
  <unicode hex="0054"/>
  <outline>
    <contour>
      <point x="17.333" y="511.333" type="line"/>
      <point x="17.333" y="692" type="line"/>
      <point x="605.667" y="692" type="line"/>
      <point x="605.667" y="511.333" type="line"/>
      <point x="570.333" y="511.333" type="line"/>
      <point x="544.333" y="614.333"/>
      <point x="528" y="649.667"/>
      <point x="427.667" y="649.667" type="curve" smooth="yes"/>
      <point x="381.333" y="649.667" type="line"/>
      <point x="381.333" y="94.333" type="line" smooth="yes"/>
      <point x="381.333" y="42.333"/>
      <point x="408.333" y="39.667"/>
      <point x="482" y="35" type="curve"/>
      <point x="482" y="0" type="line"/>
      <point x="141" y="0" type="line"/>
      <point x="141" y="35" type="line"/>
      <point x="214.667" y="39.667"/>
      <point x="241.667" y="42.333"/>
      <point x="241.667" y="94.333" type="curve" smooth="yes"/>
      <point x="241.667" y="649.667" type="line"/>
      <point x="195.333" y="649.667" type="line" smooth="yes"/>
      <point x="95" y="649.667"/>
      <point x="78.667" y="614.333"/>
      <point x="52.667" y="511.333" type="curve"/>
    </contour>
  </outline>
</glyph>
<glyph name="U" format="2">
  <advance width="788"/>
  <unicode hex="0055"/>
  <anchor x="424.333" y="0" name="ogonek"/>
  <outline>
    <contour>
      <point x="29" y="657" type="curve"/>
      <point x="29" y="692" type="line"/>
      <point x="330" y="692" type="line"/>
      <point x="330" y="657" type="line"/>
      <point x="255.667" y="653"/>
      <point x="249.333" y="649"/>
      <point x="249.333" y="596.333" type="curve" smooth="yes"/>
      <point x="249.333" y="232.333" type="line" smooth="yes"/>
      <point x="249.333" y="115"/>
      <point x="283.333" y="27.333"/>
      <point x="393.667" y="27.333" type="curve" smooth="yes"/>
      <point x="505.667" y="27.333"/>
      <point x="538.333" y="114.667"/>
      <point x="538.333" y="232.333" type="curve" smooth="yes"/>
      <point x="538.333" y="596.333" type="line" smooth="yes"/>
      <point x="538.333" y="649"/>
      <point x="532.333" y="653"/>
      <point x="457.667" y="657" type="curve"/>
      <point x="457.667" y="692" type="line"/>
      <point x="758.667" y="692" type="line"/>
      <point x="758.667" y="657" type="line"/>
      <point x="684.333" y="653"/>
      <point x="678" y="649"/>
      <point x="678" y="596.333" type="curve" smooth="yes"/>
      <point x="678" y="235" type="line" smooth="yes"/>
      <point x="678" y="58.333"/>
      <point x="581.333" y="-15"/>
      <point x="389.667" y="-15" type="curve" smooth="yes"/>
      <point x="197" y="-15"/>
      <point x="109.667" y="58.667"/>
      <point x="109.667" y="234.333" type="curve" smooth="yes"/>
      <point x="109.667" y="596.333" type="line" smooth="yes"/>
      <point x="109.667" y="649"/>
      <point x="103.667" y="653"/>
    </contour>
  </outline>
</glyph>
<glyph name="V" format="2">
	<unicode hex="0056"/>
	<advance width="641"/>
	<outline>
		<contour>
			<point x="-16.6667" y="657" type="curve"/>
			<point x="-16.6667" y="692" type="line"/>
			<point x="271.333" y="692" type="line"/>
			<point x="271.333" y="657" type="line"/>
			<point x="222" y="652" type="line" smooth="yes"/>
			<point x="206.667" y="650.667"/>
			<point x="200.333" y="645.333"/>
			<point x="200.333" y="635" type="curve" smooth="yes"/>
			<point x="200.333" y="630"/>
			<point x="202" y="623.333"/>
			<point x="204.333" y="616" type="curve" smooth="yes"/>
			<point x="364.667" y="135.333" type="line"/>
			<point x="368.667" y="135.333" type="line"/>
			<point x="524.667" y="619.667" type="line" smooth="yes"/>
			<point x="526.333" y="625"/>
			<point x="527.333" y="630"/>
			<point x="527.333" y="635" type="curve" smooth="yes"/>
			<point x="527.333" y="645"/>
			<point x="521.667" y="650.667"/>
			<point x="506" y="652" type="curve" smooth="yes"/>
			<point x="450.333" y="657" type="line"/>
			<point x="450.333" y="692" type="line"/>
			<point x="678.667" y="692" type="line"/>
			<point x="678.667" y="657" type="line"/>
			<point x="623.333" y="653.333"/>
			<point x="610.333" y="649"/>
			<point x="593" y="600.333" type="curve" smooth="yes"/>
			<point x="378" y="0" type="line"/>
			<point x="270.333" y="0" type="line"/>
			<point x="63.3333" y="603.333" type="line" smooth="yes"/>
			<point x="47.3333" y="649.667"/>
			<point x="36" y="655"/>
		</contour>
	</outline>
</glyph>
<glyph name="W" format="2">
  <advance width="935"/>
  <unicode hex="0057"/>
  <outline>
    <contour>
      <point x="-11" y="658.333" type="curve"/>
      <point x="-11" y="692" type="line"/>
      <point x="264" y="692" type="line"/>
      <point x="264" y="658.333" type="line"/>
      <point x="216.667" y="652" type="line" smooth="yes"/>
      <point x="202.333" y="650"/>
      <point x="194.333" y="647"/>
      <point x="194.333" y="633" type="curve" smooth="yes"/>
      <point x="194.333" y="628"/>
      <point x="195.333" y="621.667"/>
      <point x="197.667" y="613" type="curve" smooth="yes"/>
      <point x="319" y="146" type="line"/>
      <point x="321" y="146" type="line"/>
      <point x="454.667" y="676" type="line"/>
      <point x="553.667" y="676" type="line"/>
      <point x="698" y="146" type="line"/>
      <point x="701.667" y="146" type="line"/>
      <point x="815.333" y="611.667" type="line" smooth="yes"/>
      <point x="817" y="618"/>
      <point x="818" y="623"/>
      <point x="818" y="627.667" type="curve" smooth="yes"/>
      <point x="818" y="640.667"/>
      <point x="811.333" y="649"/>
      <point x="795.333" y="651" type="curve" smooth="yes"/>
      <point x="736.667" y="658.333" type="line"/>
      <point x="736.667" y="692" type="line"/>
      <point x="965.667" y="692" type="line"/>
      <point x="965.667" y="658.333" type="line"/>
      <point x="909" y="652.333"/>
      <point x="897.667" y="647.667"/>
      <point x="883.333" y="597.333" type="curve" smooth="yes"/>
      <point x="717" y="0" type="line"/>
      <point x="607" y="0" type="line"/>
      <point x="469.333" y="496.667" type="line"/>
      <point x="466.667" y="496.667" type="line"/>
      <point x="335.667" y="0" type="line"/>
      <point x="226" y="0" type="line"/>
      <point x="62.667" y="604.667" type="line" smooth="yes"/>
      <point x="50.333" y="648.333"/>
      <point x="42" y="654"/>
    </contour>
  </outline>
</glyph>
<glyph name="X" format="2">
  <advance width="631"/>
  <unicode hex="0058"/>
  <outline>
    <contour>
      <point x="-19" y="0" type="line"/>
      <point x="-19" y="35" type="line"/>
      <point x="45.667" y="39.667"/>
      <point x="55.333" y="42"/>
      <point x="86" y="87" type="curve" smooth="yes"/>
      <point x="255" y="335" type="line"/>
      <point x="91" y="602" type="line" smooth="yes"/>
      <point x="62.333" y="648"/>
      <point x="53" y="653.667"/>
      <point x="-4.667" y="657" type="curve"/>
      <point x="-4.667" y="692" type="line"/>
      <point x="284.667" y="692" type="line"/>
      <point x="284.667" y="657" type="line"/>
      <point x="240.667" y="652" type="line"/>
      <point x="229" y="651"/>
      <point x="223.333" y="645.333"/>
      <point x="223.333" y="637.333" type="curve" smooth="yes"/>
      <point x="223.333" y="631.667"/>
      <point x="225.333" y="625.333"/>
      <point x="230.333" y="617.333" type="curve" smooth="yes"/>
      <point x="338.667" y="442" type="line"/>
      <point x="340.667" y="442" type="line"/>
      <point x="452.333" y="620.667" type="line"/>
      <point x="457" y="627.667"/>
      <point x="458.333" y="633.333"/>
      <point x="458.333" y="637.667" type="curve" smooth="yes"/>
      <point x="458.333" y="645.333"/>
      <point x="452.667" y="650"/>
      <point x="442.667" y="651" type="curve"/>
      <point x="398" y="657" type="line"/>
      <point x="398" y="692" type="line"/>
      <point x="627" y="692" type="line"/>
      <point x="627" y="657" type="line"/>
      <point x="573.333" y="654"/>
      <point x="554" y="651"/>
      <point x="521.333" y="606" type="curve" smooth="yes"/>
      <point x="370" y="397" type="line"/>
      <point x="560" y="94" type="line" smooth="yes"/>
      <point x="589.667" y="46"/>
      <point x="600.333" y="38.667"/>
      <point x="666.333" y="35" type="curve"/>
      <point x="666.333" y="0" type="line"/>
      <point x="347.667" y="0" type="line"/>
      <point x="347.667" y="35" type="line"/>
      <point x="400" y="41" type="line" smooth="yes"/>
      <point x="413.667" y="42.667"/>
      <point x="420.333" y="48.333"/>
      <point x="420.333" y="56.333" type="curve" smooth="yes"/>
      <point x="420.333" y="61"/>
      <point x="418" y="66.667"/>
      <point x="414.667" y="72.667" type="curve"/>
      <point x="286" y="284.333" type="line"/>
      <point x="282.667" y="284.333" type="line"/>
      <point x="160.333" y="72.333" type="line"/>
      <point x="156.667" y="66.667"/>
      <point x="155.333" y="61"/>
      <point x="155.333" y="56.333" type="curve" smooth="yes"/>
      <point x="155.333" y="47.333"/>
      <point x="162" y="41"/>
      <point x="174.667" y="40" type="curve" smooth="yes"/>
      <point x="234.667" y="35" type="line"/>
      <point x="234.667" y="0" type="line"/>
    </contour>
  </outline>
</glyph>
<glyph name="backslash" format="2">
	<unicode hex="005C"/>
	<advance width="406"/>
	<outline>
		<contour>
			<point x="53" y="707" type="line"/>
			<point x="142" y="707" type="line"/>
			<point x="353" y="-15" type="line"/>
			<point x="264" y="-15" type="line"/>
		</contour>
	</outline>
</glyph>
<glyph name="asciicircum" format="2">
  <advance width="590"/>
  <unicode hex="005E"/>
  <outline>
    <contour>
      <point x="56" y="219.333" type="line"/>
      <point x="252.667" y="668" type="line"/>
      <point x="342.333" y="668" type="line"/>
      <point x="534" y="219.333" type="line"/>
      <point x="441" y="219.333" type="line"/>
      <point x="297" y="570.333" type="line"/>
      <point x="149" y="219.333" type="line"/>
    </contour>
  </outline>
</glyph>
<glyph name="grave" format="2">
  <advance width="420"/>
  <unicode hex="0060"/>
  <outline>
    <contour>
      <point x="43" y="680" type="curve" smooth="yes"/>
      <point x="43" y="703.333"/>
      <point x="70.333" y="734.333"/>
      <point x="91.333" y="734.333" type="curve" smooth="yes"/>
      <point x="110.333" y="734.333"/>
      <point x="127.333" y="723"/>
      <point x="162" y="687.333" type="curve" smooth="yes"/>
      <point x="298.333" y="548" type="line"/>
      <point x="279.333" y="521.333" type="line"/>
      <point x="107" y="618" type="line" smooth="yes"/>
      <point x="73" y="636.667"/>
      <point x="43" y="655.667"/>
    </contour>
  </outline>
</glyph>
<glyph name="a" format="2">
	<unicode hex="0061"/>
	<advance width="537"/>
	<outline>
		<contour>
			<point x="43.6667" y="132.333" type="curve" smooth="yes"/>
			<point x="43.6667" y="185.667"/>
			<point x="68.6667" y="232.667"/>
			<point x="144.667" y="255" type="curve" smooth="yes"/>
			<point x="214.667" y="275.667"/>
			<point x="303.333" y="303"/>
			<point x="335" y="327.667" type="curve"/>
			<point x="335" y="377" type="line" smooth="yes"/>
			<point x="335" y="441.667"/>
			<point x="300.333" y="459.667"/>
			<point x="268.333" y="459.667" type="curve" smooth="yes"/>
			<point x="235.667" y="459.667"/>
			<point x="200.333" y="441.667"/>
			<point x="174.667" y="361.333" type="curve" smooth="yes"/>
			<point x="167.333" y="338.667"/>
			<point x="158" y="324.333"/>
			<point x="136.667" y="324.333" type="curve" smooth="yes"/>
			<point x="113" y="324.333"/>
			<point x="58.3333" y="341.333"/>
			<point x="58.3333" y="386" type="curve" smooth="yes"/>
			<point x="58.3333" y="443.667"/>
			<point x="147.333" y="502"/>
			<point x="285.333" y="502" type="curve" smooth="yes"/>
			<point x="452" y="502"/>
			<point x="463" y="425"/>
			<point x="463" y="364.333" type="curve" smooth="yes"/>
			<point x="463" y="129.667" type="line" smooth="yes"/>
			<point x="463" y="63"/>
			<point x="478.333" y="45.6667"/>
			<point x="520" y="45.6667" type="curve" smooth="yes"/>
			<point x="530.333" y="45.6667"/>
			<point x="540.333" y="46.6667"/>
			<point x="545" y="48" type="curve"/>
			<point x="549" y="18" type="line"/>
			<point x="514.333" y="3"/>
			<point x="458" y="-12"/>
			<point x="419" y="-12" type="curve" smooth="yes"/>
			<point x="367.333" y="-12"/>
			<point x="350.667" y="13.6667"/>
			<point x="337.333" y="46.6667" type="curve"/>
			<point x="304.667" y="23"/>
			<point x="254" y="-12"/>
			<point x="186.667" y="-12" type="curve" smooth="yes"/>
			<point x="93.3333" y="-12"/>
			<point x="43.6667" y="57"/>
		</contour>
		<contour>
			<point x="179.333" y="152" type="curve" smooth="yes"/>
			<point x="179.333" y="93"/>
			<point x="212.667" y="57.6667"/>
			<point x="258.667" y="57.6667" type="curve" smooth="yes"/>
			<point x="290.667" y="57.6667"/>
			<point x="335" y="74"/>
			<point x="335" y="137" type="curve" smooth="yes"/>
			<point x="335" y="280.667" type="line"/>
			<point x="311.667" y="266.667"/>
			<point x="270.333" y="249.333"/>
			<point x="236.333" y="236.667" type="curve" smooth="yes"/>
			<point x="196.667" y="222"/>
			<point x="179.333" y="195"/>
		</contour>
	</outline>
	<anchor name="aring" x="270.667" y="540"/>
	<anchor name="ogonek" x="437" y="10"/>
</glyph>
<glyph name="b" format="2">
  <advance width="603"/>
  <unicode hex="0062"/>
  <outline>
    <contour>
      <point x="16.667" y="683.333" type="line"/>
      <point x="16.667" y="715.667" type="line"/>
      <point x="204.333" y="742" type="line"/>
      <point x="211.333" y="736" type="line"/>
      <point x="211.333" y="432.333" type="line"/>
      <point x="255" y="465.667"/>
      <point x="307.333" y="502"/>
      <point x="378.135" y="502" type="curve" smooth="yes"/>
      <point x="501.333" y="502"/>
      <point x="563.667" y="389.333"/>
      <point x="563.667" y="258.429" type="curve" smooth="yes"/>
      <point x="563.667" y="41.333"/>
      <point x="445.667" y="-12"/>
      <point x="311.842" y="-12" type="curve" smooth="yes"/>
      <point x="237.667" y="-12"/>
      <point x="191.667" y="4.333"/>
      <point x="156" y="23.667" type="curve"/>
      <point x="106.667" y="-12" type="line"/>
      <point x="79.333" y="2.667" type="line"/>
      <point x="79.333" y="628" type="line" smooth="yes"/>
      <point x="79.333" y="667.333"/>
      <point x="72" y="675"/>
      <point x="52.667" y="678" type="curve" smooth="yes"/>
    </contour>
    <contour>
      <point x="211.333" y="157" type="line" smooth="yes"/>
      <point x="211.333" y="91.795"/>
      <point x="226.124" y="30.333"/>
      <point x="303.369" y="30.333" type="curve" smooth="yes"/>
      <point x="390.667" y="30.333"/>
      <point x="423" y="108.333"/>
      <point x="423" y="237.593" type="curve" smooth="yes"/>
      <point x="423" y="408"/>
      <point x="359.667" y="432.667"/>
      <point x="310.096" y="432.667" type="curve" smooth="yes"/>
      <point x="238.513" y="432.667"/>
      <point x="211.333" y="379.958"/>
      <point x="211.333" y="315" type="curve" smooth="yes"/>
    </contour>
  </outline>
</glyph>
<glyph name="c" format="2">
  <advance width="495"/>
  <unicode hex="0063"/>
  <anchor x="275" y="0" name="cedilla"/>
  <outline>
    <contour>
      <point x="39" y="238.667" type="curve" smooth="yes"/>
      <point x="39" y="396.333"/>
      <point x="121.333" y="502"/>
      <point x="282.667" y="502" type="curve" smooth="yes"/>
      <point x="385.333" y="502"/>
      <point x="474" y="459"/>
      <point x="474" y="398" type="curve" smooth="yes"/>
      <point x="474" y="354.333"/>
      <point x="429" y="338"/>
      <point x="399.667" y="338" type="curve" smooth="yes"/>
      <point x="375.333" y="338"/>
      <point x="363.333" y="349.333"/>
      <point x="356.333" y="371" type="curve" smooth="yes"/>
      <point x="338.667" y="428"/>
      <point x="317.667" y="459.667"/>
      <point x="279.333" y="459.667" type="curve" smooth="yes"/>
      <point x="228" y="459.667"/>
      <point x="179.667" y="401.667"/>
      <point x="179.667" y="266.333" type="curve" smooth="yes"/>
      <point x="179.667" y="127.333"/>
      <point x="231" y="56.667"/>
      <point x="319.333" y="56.667" type="curve" smooth="yes"/>
      <point x="375" y="56.667"/>
      <point x="414.333" y="84"/>
      <point x="447.333" y="152.667" type="curve"/>
      <point x="480.333" y="137.333" type="line"/>
      <point x="445" y="19"/>
      <point x="351.667" y="-12"/>
      <point x="273.667" y="-12" type="curve" smooth="yes"/>
      <point x="129" y="-12"/>
      <point x="39" y="73"/>
    </contour>
  </outline>
</glyph>
<glyph name="d" format="2">
  <advance width="603"/>
  <unicode hex="0064"/>
  <anchor x="643.667" y="742" name="quote"/>
  <outline>
    <contour>
      <point x="39" y="235.667" type="curve" smooth="yes"/>
      <point x="39" y="399.333"/>
      <point x="132.667" y="502"/>
      <point x="297.667" y="502" type="curve" smooth="yes"/>
      <point x="336.333" y="502"/>
      <point x="367.333" y="496.333"/>
      <point x="391.333" y="485.333" type="curve"/>
      <point x="391.333" y="628" type="line" smooth="yes"/>
      <point x="391.333" y="667.333"/>
      <point x="384" y="675"/>
      <point x="364.667" y="678" type="curve" smooth="yes"/>
      <point x="328.667" y="683.333" type="line"/>
      <point x="328.667" y="715.667" type="line"/>
      <point x="516.333" y="742" type="line"/>
      <point x="523.333" y="736" type="line"/>
      <point x="523.333" y="87" type="line" smooth="yes"/>
      <point x="523.333" y="42"/>
      <point x="530" y="38.667"/>
      <point x="591.667" y="35" type="curve"/>
      <point x="591.667" y="0" type="line"/>
      <point x="400.333" y="0" type="line"/>
      <point x="391" y="9" type="line"/>
      <point x="391" y="52" type="line"/>
      <point x="337" y="8.667"/>
      <point x="285.333" y="-12"/>
      <point x="240.333" y="-12" type="curve" smooth="yes"/>
      <point x="114" y="-12"/>
      <point x="39" y="89"/>
    </contour>
    <contour>
      <point x="179.667" y="256.667" type="curve" smooth="yes"/>
      <point x="179.667" y="129.333"/>
      <point x="224.333" y="57.333"/>
      <point x="304.333" y="57.333" type="curve" smooth="yes"/>
      <point x="369.667" y="57.333"/>
      <point x="391.333" y="105.333"/>
      <point x="391.333" y="158" type="curve" smooth="yes"/>
      <point x="391.333" y="354" type="line" smooth="yes"/>
      <point x="391.333" y="412.667"/>
      <point x="372.667" y="459.667"/>
      <point x="308" y="459.667" type="curve" smooth="yes"/>
      <point x="232" y="459.667"/>
      <point x="179.667" y="394.333"/>
    </contour>
  </outline>
</glyph>
<glyph name="e" format="2">
	<unicode hex="0065"/>
	<advance width="517"/>
	<outline>
		<contour>
			<point x="39" y="240" type="curve" smooth="yes"/>
			<point x="39" y="386.667"/>
			<point x="108.333" y="502"/>
			<point x="283.333" y="502" type="curve" smooth="yes"/>
			<point x="470" y="502"/>
			<point x="497" y="370.333"/>
			<point x="497" y="295.667" type="curve" smooth="yes"/>
			<point x="497" y="264"/>
			<point x="478.667" y="255.667"/>
			<point x="447" y="255.667" type="curve" smooth="yes"/>
			<point x="179.667" y="255.667" type="line"/>
			<point x="179.667" y="248.667" type="line" smooth="yes"/>
			<point x="179.667" y="146.333"/>
			<point x="212.333" y="56.3333"/>
			<point x="316.667" y="56.3333" type="curve" smooth="yes"/>
			<point x="384.333" y="56.3333"/>
			<point x="425.667" y="93.6667"/>
			<point x="455" y="151" type="curve"/>
			<point x="489.667" y="132.333" type="line"/>
			<point x="457.333" y="47.3333"/>
			<point x="395" y="-12"/>
			<point x="274.667" y="-12" type="curve" smooth="yes"/>
			<point x="101" y="-12"/>
			<point x="39" y="100.333"/>
		</contour>
		<contour>
			<point x="179.667" y="299.667" type="curve"/>
			<point x="324.333" y="299.667" type="line" smooth="yes"/>
			<point x="349" y="299.667"/>
			<point x="356.333" y="308"/>
			<point x="356.333" y="340.333" type="curve" smooth="yes"/>
			<point x="356.333" y="377"/>
			<point x="346" y="459.667"/>
			<point x="275.333" y="459.667" type="curve" smooth="yes"/>
			<point x="197.333" y="459.667"/>
			<point x="179.667" y="362"/>
		</contour>
	</outline>
	<anchor name="ogonek" x="327.667" y="0"/>
</glyph>
<glyph name="g" format="2">
  <advance width="529"/>
  <unicode hex="0067"/>
  <anchor x="254" y="580" name="top"/>
  <outline>
    <contour>
      <point x="30.667" y="-103.667" type="curve" smooth="yes"/>
      <point x="30.667" y="-27.333"/>
      <point x="104" y="-6.667"/>
      <point x="147" y="4" type="curve"/>
      <point x="147" y="6" type="line"/>
      <point x="101" y="14.333"/>
      <point x="55.667" y="53.667"/>
      <point x="55.667" y="95.333" type="curve" smooth="yes"/>
      <point x="55.667" y="134.333"/>
      <point x="96.333" y="168"/>
      <point x="158.333" y="185.667" type="curve"/>
      <point x="158.333" y="187.667" type="line"/>
      <point x="101.667" y="198"/>
      <point x="40.333" y="246"/>
      <point x="40.333" y="330.333" type="curve" smooth="yes"/>
      <point x="40.333" y="409.333"/>
      <point x="93.667" y="502"/>
      <point x="263.333" y="502" type="curve" smooth="yes"/>
      <point x="316.667" y="502"/>
      <point x="372.333" y="488.667"/>
      <point x="403.333" y="469.667" type="curve"/>
      <point x="529" y="512" type="line"/>
      <point x="539" y="501.667" type="line"/>
      <point x="519" y="430.667" type="line"/>
      <point x="448.667" y="418.667" type="line"/>
      <point x="463" y="401.667"/>
      <point x="474" y="369.333"/>
      <point x="474" y="332" type="curve" smooth="yes"/>
      <point x="474" y="215.667"/>
      <point x="369" y="172.667"/>
      <point x="259.667" y="172.667" type="curve" smooth="yes"/>
      <point x="247" y="172.667"/>
      <point x="230" y="173"/>
      <point x="211" y="175.333" type="curve"/>
      <point x="197.333" y="172"/>
      <point x="167" y="158.667"/>
      <point x="167" y="133.667" type="curve" smooth="yes"/>
      <point x="167" y="116"/>
      <point x="183" y="97.333"/>
      <point x="239.667" y="97.333" type="curve" smooth="yes"/>
      <point x="328.333" y="97.333" type="line" smooth="yes"/>
      <point x="433.333" y="97.333"/>
      <point x="524" y="60"/>
      <point x="524" y="-53.667" type="curve" smooth="yes"/>
      <point x="524" y="-195.333"/>
      <point x="384.333" y="-242"/>
      <point x="267.333" y="-242" type="curve" smooth="yes"/>
      <point x="133.333" y="-242"/>
      <point x="30.667" y="-195"/>
    </contour>
    <contour>
      <point x="152" y="-87" type="curve" smooth="yes"/>
      <point x="152" y="-159"/>
      <point x="212.667" y="-199.667"/>
      <point x="287.667" y="-199.667" type="curve" smooth="yes"/>
      <point x="354" y="-199.667"/>
      <point x="415.333" y="-167.667"/>
      <point x="415.333" y="-96.333" type="curve" smooth="yes"/>
      <point x="415.333" y="-28"/>
      <point x="359" y="-8.333"/>
      <point x="272.333" y="-8.333" type="curve" smooth="yes"/>
      <point x="213.667" y="-8.333"/>
      <point x="152" y="-14"/>
    </contour>
    <contour>
      <point x="179" y="340.333" type="curve" smooth="yes"/>
      <point x="179" y="260.667"/>
      <point x="216" y="215"/>
      <point x="264.667" y="215" type="curve" smooth="yes"/>
      <point x="313.333" y="215"/>
      <point x="347.333" y="260"/>
      <point x="347.333" y="338.333" type="curve" smooth="yes"/>
      <point x="347.333" y="423.667"/>
      <point x="307" y="459.667"/>
      <point x="263.667" y="459.667" type="curve" smooth="yes"/>
      <point x="220.333" y="459.667"/>
      <point x="179" y="424.333"/>
    </contour>
  </outline>
</glyph>
<glyph name="j" format="2">
	<unicode hex="006A"/>
	<advance width="304"/>
	<outline>
		<contour>
			<point x="-19" y="-206.667" type="line"/>
			<point x="88.1002" y="-174.442"/>
			<point x="100.667" y="-91.7513"/>
			<point x="100.667" y="32.6667" type="curve" smooth="yes"/>
			<point x="100.667" y="388" type="line" smooth="yes"/>
			<point x="100.667" y="425.877"/>
			<point x="93.4611" y="434.51"/>
			<point x="74" y="437" type="curve" smooth="yes"/>
			<point x="38" y="442" type="line"/>
			<point x="38" y="474.333" type="line"/>
			<point x="225.667" y="502" type="line"/>
			<point x="232.667" y="496" type="line"/>
			<point x="232.667" y="19" type="line" smooth="yes"/>
			<point x="232.667" y="-164.942"/>
			<point x="159.155" y="-235.333"/>
			<point x="-15.6667" y="-235.333" type="curve"/>
		</contour>
		<contour>
			<point x="82" y="640" type="curve" smooth="yes"/>
			<point x="82" y="683.333"/>
			<point x="113.667" y="718.333"/>
			<point x="163" y="718.333" type="curve" smooth="yes"/>
			<point x="213" y="718.333"/>
			<point x="244.667" y="683.333"/>
			<point x="244.667" y="640" type="curve" smooth="yes"/>
			<point x="244.667" y="596"/>
			<point x="211.667" y="561"/>
			<point x="163" y="561" type="curve" smooth="yes"/>
			<point x="113.667" y="561"/>
			<point x="82" y="596"/>
		</contour>
	</outline>
</glyph>
<glyph name="k" format="2">
	<unicode hex="006B"/>
	<advance width="571"/>
	<outline>
		<contour>
			<point x="19.3333" y="0" type="line"/>
			<point x="19.3333" y="35" type="line"/>
			<point x="81.3333" y="38.6667"/>
			<point x="87.6667" y="42"/>
			<point x="87.6667" y="87" type="curve" smooth="yes"/>
			<point x="87.6667" y="628" type="line" smooth="yes"/>
			<point x="87.6667" y="667.333"/>
			<point x="80.3333" y="675"/>
			<point x="61" y="678" type="curve" smooth="yes"/>
			<point x="25" y="683.333" type="line"/>
			<point x="25" y="715.667" type="line"/>
			<point x="212.667" y="742" type="line"/>
			<point x="219.667" y="736" type="line"/>
			<point x="219.667" y="270.667" type="line"/>
			<point x="221.667" y="270.667" type="line"/>
			<point x="233.353" y="287.694"/>
			<point x="305.883" y="385.028"/>
			<point x="320" y="403" type="curve" smooth="yes"/>
			<point x="342" y="432.333"/>
			<point x="358.333" y="453.333"/>
			<point x="382.333" y="470" type="curve"/>
			<point x="401.445" y="484.667"/>
			<point x="435.829" y="490"/>
			<point x="456" y="490" type="curve"/>
			<point x="552.667" y="480.667" type="line"/>
			<point x="533.333" y="473.748"/>
			<point x="525" y="456.893"/>
			<point x="513.667" y="445" type="curve"/>
			<point x="446.333" y="424.667"/>
			<point x="395" y="385.667"/>
			<point x="343.667" y="333.333" type="curve" smooth="yes"/>
			<point x="336.144" y="325.478"/>
			<point x="328.757" y="315.757"/>
			<point x="328" y="311" type="curve"/>
			<point x="376" y="237"/>
			<point x="439.333" y="153.333"/>
			<point x="504.667" y="83" type="curve" smooth="yes"/>
			<point x="535" y="50"/>
			<point x="552" y="37"/>
			<point x="576" y="29" type="curve"/>
			<point x="576" y="-1.66667" type="line"/>
			<point x="491" y="-0.666667" type="line" smooth="yes"/>
			<point x="431.667" y="0"/>
			<point x="392" y="12.6667"/>
			<point x="356.333" y="55.6667" type="curve" smooth="yes"/>
			<point x="308.333" y="114"/>
			<point x="258" y="188.333"/>
			<point x="221.667" y="254" type="curve"/>
			<point x="219.667" y="254" type="line"/>
			<point x="219.667" y="87" type="line" smooth="yes"/>
			<point x="219.667" y="42"/>
			<point x="226.333" y="38.6667"/>
			<point x="288" y="35" type="curve"/>
			<point x="288" y="0" type="line"/>
		</contour>
	</outline>
</glyph>
<glyph name="l" format="2">
  <advance width="299"/>
  <unicode hex="006C"/>
  <anchor x="131" y="766.667" name="top"/>
  <outline>
    <contour>
      <point x="19.333" y="0" type="line"/>
      <point x="19.333" y="35" type="line"/>
      <point x="81.333" y="38.667"/>
      <point x="87.667" y="42"/>
      <point x="87.667" y="87" type="curve" smooth="yes"/>
      <point x="87.667" y="628" type="line" smooth="yes"/>
      <point x="87.667" y="667.333"/>
      <point x="80.333" y="675"/>
      <point x="61" y="678" type="curve" smooth="yes"/>
      <point x="25" y="683.333" type="line"/>
      <point x="25" y="715.667" type="line"/>
      <point x="212.667" y="742" type="line"/>
      <point x="219.667" y="736" type="line"/>
      <point x="219.667" y="87" type="line" smooth="yes"/>
      <point x="219.667" y="42"/>
      <point x="226.333" y="38.667"/>
      <point x="288" y="35" type="curve"/>
      <point x="288" y="0" type="line"/>
    </contour>
  </outline>
</glyph>
<glyph name="o" format="2">
	<unicode hex="006F"/>
	<advance width="582"/>
	<outline>
		<contour>
			<point x="39" y="245" type="curve" smooth="yes"/>
			<point x="39" y="405.667"/>
			<point x="116.667" y="502"/>
			<point x="291.667" y="502" type="curve" smooth="yes"/>
			<point x="466.667" y="502"/>
			<point x="544.333" y="405.667"/>
			<point x="544.333" y="245" type="curve" smooth="yes"/>
			<point x="544.333" y="84.3333"/>
			<point x="466.667" y="-12"/>
			<point x="291.667" y="-12" type="curve" smooth="yes"/>
			<point x="116.667" y="-12"/>
			<point x="39" y="84.3333"/>
		</contour>
		<contour>
			<point x="179.667" y="245" type="curve" smooth="yes"/>
			<point x="179.667" y="109.667"/>
			<point x="213.667" y="30.3333"/>
			<point x="291.667" y="30.3333" type="curve" smooth="yes"/>
			<point x="369.667" y="30.3333"/>
			<point x="403.667" y="109.667"/>
			<point x="403.667" y="245" type="curve" smooth="yes"/>
			<point x="403.667" y="380.333"/>
			<point x="369.667" y="459.667"/>
			<point x="291.667" y="459.667" type="curve" smooth="yes"/>
			<point x="213.667" y="459.667"/>
			<point x="179.667" y="380.333"/>
		</contour>
	</outline>
	<anchor name="top" x="291.667" y="543.333"/>
</glyph>
<glyph name="p" format="2">
	<unicode hex="0070"/>
	<advance width="613"/>
	<outline>
		<contour>
			<point x="21" y="-195" type="line"/>
			<point x="82.3333" y="-191.333"/>
			<point x="89.3333" y="-188"/>
			<point x="89.3333" y="-143" type="curve" smooth="yes"/>
			<point x="89.3333" y="388" type="line" smooth="yes"/>
			<point x="89.3333" y="426.667"/>
			<point x="82" y="434.333"/>
			<point x="62.6667" y="437" type="curve" smooth="yes"/>
			<point x="26.6667" y="442" type="line"/>
			<point x="26.6667" y="474.333" type="line"/>
			<point x="205" y="502" type="line"/>
			<point x="221.333" y="431.333" type="line"/>
			<point x="267" y="464.333"/>
			<point x="317" y="502"/>
			<point x="388" y="502" type="curve" smooth="yes"/>
			<point x="511.333" y="502"/>
			<point x="573.667" y="392.333"/>
			<point x="573.667" y="258" type="curve" smooth="yes"/>
			<point x="573.667" y="43.3333"/>
			<point x="455.667" y="-12"/>
			<point x="312" y="-12" type="curve" smooth="yes"/>
			<point x="278.667" y="-12"/>
			<point x="239.667" y="-5"/>
			<point x="221.333" y="3.66667" type="curve"/>
			<point x="221.333" y="-143" type="line" smooth="yes"/>
			<point x="221.333" y="-188"/>
			<point x="230" y="-191.333"/>
			<point x="306.667" y="-195" type="curve"/>
			<point x="306.667" y="-230" type="line"/>
			<point x="21" y="-230" type="line"/>
		</contour>
		<contour>
			<point x="221.333" y="153.667" type="line" smooth="yes"/>
			<point x="221.333" y="133.333"/>
			<point x="222.333" y="115.333"/>
			<point x="226.333" y="99.3333" type="curve" smooth="yes"/>
			<point x="237.667" y="54.6667"/>
			<point x="268.333" y="30.3333"/>
			<point x="315" y="30.3333" type="curve" smooth="yes"/>
			<point x="399.667" y="30.3333"/>
			<point x="433" y="109.667"/>
			<point x="433" y="241.333" type="curve" smooth="yes"/>
			<point x="433" y="406.667"/>
			<point x="368" y="432.667"/>
			<point x="323.333" y="432.667" type="curve" smooth="yes"/>
			<point x="277.667" y="432.667"/>
			<point x="246.667" y="409.333"/>
			<point x="230.333" y="369.333" type="curve" smooth="yes"/>
			<point x="224" y="354"/>
			<point x="221.333" y="336"/>
			<point x="221.333" y="313.667" type="curve" smooth="yes"/>
		</contour>
	</outline>
</glyph>
<glyph name="q" format="2">
	<unicode hex="0071"/>
	<advance width="595"/>
	<outline>
		<contour>
			<point x="39" y="236.333" type="curve" smooth="yes"/>
			<point x="39" y="402.667"/>
			<point x="133.667" y="502"/>
			<point x="298" y="502" type="curve" smooth="yes"/>
			<point x="355" y="502"/>
			<point x="404.667" y="490"/>
			<point x="440" y="471" type="curve"/>
			<point x="483" y="502" type="line"/>
			<point x="523.333" y="502" type="line"/>
			<point x="523.333" y="-143" type="line" smooth="yes"/>
			<point x="523.333" y="-188"/>
			<point x="530.667" y="-191.333"/>
			<point x="591.667" y="-195" type="curve"/>
			<point x="591.667" y="-230" type="line"/>
			<point x="314.667" y="-230" type="line"/>
			<point x="314.667" y="-195" type="line"/>
			<point x="384.333" y="-191.333"/>
			<point x="391.333" y="-188"/>
			<point x="391.333" y="-143" type="curve" smooth="yes"/>
			<point x="391.333" y="49" type="line"/>
			<point x="339.333" y="5.66667"/>
			<point x="293.667" y="-12"/>
			<point x="241.667" y="-12" type="curve" smooth="yes"/>
			<point x="119.333" y="-12"/>
			<point x="39" y="83.6667"/>
		</contour>
		<contour>
			<point x="179.667" y="253.667" type="curve" smooth="yes"/>
			<point x="179.667" y="129.667"/>
			<point x="222.667" y="57.3333"/>
			<point x="304" y="57.3333" type="curve" smooth="yes"/>
			<point x="371.333" y="57.3333"/>
			<point x="391.333" y="106.333"/>
			<point x="391.333" y="158.333" type="curve" smooth="yes"/>
			<point x="391.333" y="348.667" type="line" smooth="yes"/>
			<point x="391.333" y="408.333"/>
			<point x="374.667" y="459.667"/>
			<point x="308.667" y="459.667" type="curve" smooth="yes"/>
			<point x="227.333" y="459.667"/>
			<point x="179.667" y="383.667"/>
		</contour>
	</outline>
</glyph>
<glyph name="r" format="2">
	<unicode hex="0072"/>
	<advance width="423"/>
	<outline>
		<contour>
			<point x="28" y="0" type="line"/>
			<point x="28" y="35" type="line"/>
			<point x="89.3333" y="38.6667"/>
			<point x="96.3333" y="42"/>
			<point x="96.3333" y="87" type="curve" smooth="yes"/>
			<point x="96.3333" y="388" type="line" smooth="yes"/>
			<point x="96.3333" y="426.667"/>
			<point x="89" y="434.333"/>
			<point x="69.6667" y="437" type="curve" smooth="yes"/>
			<point x="33.6667" y="442" type="line"/>
			<point x="33.6667" y="474.333" type="line"/>
			<point x="214.333" y="502" type="line"/>
			<point x="226.333" y="416.667" type="line"/>
			<point x="287" y="476.667"/>
			<point x="319" y="502"/>
			<point x="359" y="502" type="curve" smooth="yes"/>
			<point x="400" y="502"/>
			<point x="423.333" y="475"/>
			<point x="423.333" y="437" type="curve" smooth="yes"/>
			<point x="423.333" y="401.333"/>
			<point x="402" y="365"/>
			<point x="363.333" y="365" type="curve" smooth="yes"/>
			<point x="349" y="365"/>
			<point x="337" y="370.667"/>
			<point x="326" y="377.333" type="curve" smooth="yes"/>
			<point x="301.667" y="391.333"/>
			<point x="286" y="398.667"/>
			<point x="271.667" y="398.667" type="curve" smooth="yes"/>
			<point x="246.333" y="398.667"/>
			<point x="228.333" y="374.667"/>
			<point x="228.333" y="314.333" type="curve" smooth="yes"/>
			<point x="228.333" y="87" type="line" smooth="yes"/>
			<point x="228.333" y="42"/>
			<point x="236.333" y="39.3333"/>
			<point x="317.333" y="35" type="curve"/>
			<point x="317.333" y="0" type="line"/>
		</contour>
	</outline>
</glyph>
<glyph name="t" format="2">
  <advance width="361"/>
  <unicode hex="0074"/>
  <anchor x="177.667" y="686.667" name="top"/>
  <outline>
    <contour>
      <point x="31.667" y="443.333" type="line"/>
      <point x="31.667" y="490" type="line"/>
      <point x="99" y="490" type="line"/>
      <point x="178" y="616" type="line"/>
      <point x="226.333" y="616" type="line"/>
      <point x="226.333" y="490" type="line"/>
      <point x="338.667" y="490" type="line"/>
      <point x="338.667" y="443.333" type="line"/>
      <point x="226.333" y="443.333" type="line"/>
      <point x="226.333" y="150" type="line" smooth="yes"/>
      <point x="226.333" y="82"/>
      <point x="254.333" y="55.333"/>
      <point x="291" y="55.333" type="curve" smooth="yes"/>
      <point x="314" y="55.333"/>
      <point x="335.333" y="59"/>
      <point x="352.667" y="66.333" type="curve"/>
      <point x="362.667" y="38.667" type="line"/>
      <point x="315.667" y="9.333"/>
      <point x="258.333" y="-12"/>
      <point x="214" y="-12" type="curve" smooth="yes"/>
      <point x="165" y="-12"/>
      <point x="94.333" y="17.333"/>
      <point x="94.333" y="112" type="curve" smooth="yes"/>
      <point x="94.333" y="443.333" type="line"/>
    </contour>
  </outline>
</glyph>
<glyph name="u" format="2">
  <advance width="621"/>
  <unicode hex="0075"/>
  <anchor x="318" y="528.667" name="top"/>
  <anchor x="536.333" y="15.333" name="ogonek"/>
  <outline>
    <contour>
      <point x="24" y="442" type="line"/>
      <point x="24" y="474.333" type="line"/>
      <point x="211.667" y="502" type="line"/>
      <point x="218.667" y="496" type="line"/>
      <point x="218.667" y="169.333" type="line" smooth="yes"/>
      <point x="218.667" y="91.333"/>
      <point x="253.667" y="58.667"/>
      <point x="311.333" y="58.667" type="curve" smooth="yes"/>
      <point x="382" y="58.667"/>
      <point x="410" y="107.667"/>
      <point x="410" y="172.333" type="curve" smooth="yes"/>
      <point x="410" y="388" type="line" smooth="yes"/>
      <point x="410" y="426.667"/>
      <point x="402.667" y="434.333"/>
      <point x="383.333" y="437" type="curve" smooth="yes"/>
      <point x="347.333" y="442" type="line"/>
      <point x="347.333" y="474.333" type="line"/>
      <point x="535" y="502" type="line"/>
      <point x="542" y="496" type="line"/>
      <point x="542" y="87" type="line" smooth="yes"/>
      <point x="542" y="42"/>
      <point x="549.333" y="38.667"/>
      <point x="610.333" y="35" type="curve"/>
      <point x="610.333" y="0" type="line"/>
      <point x="418.333" y="0" type="line"/>
      <point x="409.667" y="57.333" type="line"/>
      <point x="373.333" y="30"/>
      <point x="315.667" y="-12"/>
      <point x="232.667" y="-12" type="curve" smooth="yes"/>
      <point x="158" y="-12"/>
      <point x="86.667" y="21.667"/>
      <point x="86.667" y="138" type="curve" smooth="yes"/>
      <point x="86.667" y="388" type="line" smooth="yes"/>
      <point x="86.667" y="426.667"/>
      <point x="79.333" y="434.333"/>
      <point x="60" y="437" type="curve" smooth="yes"/>
    </contour>
  </outline>
</glyph>
<glyph name="v" format="2">
  <advance width="515"/>
  <unicode hex="0076"/>
  <outline>
    <contour>
      <point x="-5" y="455" type="curve"/>
      <point x="-5" y="490" type="line"/>
      <point x="246.333" y="490" type="line"/>
      <point x="246.333" y="455" type="line"/>
      <point x="206.667" y="450" type="line"/>
      <point x="194.333" y="449"/>
      <point x="189" y="444.667"/>
      <point x="189" y="435.667" type="curve" smooth="yes"/>
      <point x="189" y="431.667"/>
      <point x="190" y="427"/>
      <point x="192" y="421" type="curve" smooth="yes"/>
      <point x="297.333" y="118" type="line"/>
      <point x="300.667" y="118" type="line"/>
      <point x="399.667" y="419" type="line"/>
      <point x="401.333" y="423.333"/>
      <point x="402.333" y="428"/>
      <point x="402.333" y="431.667" type="curve" smooth="yes"/>
      <point x="402.333" y="441.333"/>
      <point x="396.667" y="447.667"/>
      <point x="384" y="449.333" type="curve" smooth="yes"/>
      <point x="339" y="455" type="line"/>
      <point x="339" y="490" type="line"/>
      <point x="540.333" y="490" type="line"/>
      <point x="540.333" y="455" type="line"/>
      <point x="497.667" y="452.333"/>
      <point x="484.333" y="448"/>
      <point x="470.333" y="412" type="curve" smooth="yes"/>
      <point x="310.667" y="0" type="line"/>
      <point x="213.333" y="0" type="line"/>
      <point x="62" y="410.667" type="line" smooth="yes"/>
      <point x="49.333" y="444.667"/>
      <point x="36.667" y="451.667"/>
    </contour>
  </outline>
</glyph>
<glyph name="w" format="2">
	<unicode hex="0077"/>
	<advance width="772"/>
	<outline>
		<contour>
			<point x="-7.33333" y="455" type="curve"/>
			<point x="-7.33333" y="490" type="line"/>
			<point x="236.333" y="490" type="line"/>
			<point x="236.333" y="455" type="line"/>
			<point x="206" y="452" type="line" smooth="yes"/>
			<point x="191.663" y="450.633"/>
			<point x="185.629" y="445.648"/>
			<point x="185.629" y="434.819" type="curve" smooth="yes"/>
			<point x="185.629" y="431.075"/>
			<point x="186.389" y="426.452"/>
			<point x="188" y="420.667" type="curve" smooth="yes"/>
			<point x="271.667" y="124.333" type="line"/>
			<point x="274.333" y="124.333" type="line"/>
			<point x="375" y="486" type="line"/>
			<point x="470.333" y="486" type="line"/>
			<point x="580.667" y="124.333" type="line"/>
			<point x="584" y="124.333" type="line"/>
			<point x="658.667" y="416.333" type="line" smooth="yes"/>
			<point x="659.841" y="420.935"/>
			<point x="660.763" y="425.389"/>
			<point x="660.763" y="430.147" type="curve" smooth="yes"/>
			<point x="660.763" y="440.519"/>
			<point x="655.813" y="447.476"/>
			<point x="642.667" y="449.333" type="curve" smooth="yes"/>
			<point x="595" y="455" type="line"/>
			<point x="595" y="490" type="line"/>
			<point x="798.667" y="490" type="line"/>
			<point x="798.667" y="455" type="line"/>
			<point x="748" y="451.333"/>
			<point x="738.178" y="445.858"/>
			<point x="724" y="402.333" type="curve" smooth="yes"/>
			<point x="596" y="0" type="line"/>
			<point x="497.333" y="0" type="line"/>
			<point x="389.667" y="331.667" type="line"/>
			<point x="386" y="331.667" type="line"/>
			<point x="286" y="0" type="line"/>
			<point x="187.333" y="0" type="line"/>
			<point x="56.6667" y="412" type="line" smooth="yes"/>
			<point x="45.284" y="447.542"/>
			<point x="33" y="451.667"/>
		</contour>
	</outline>
</glyph>
<glyph name="x" format="2">
  <advance width="524"/>
  <unicode hex="0078"/>
  <outline>
    <contour>
      <point x="-6.667" y="0" type="line"/>
      <point x="-6.667" y="35" type="line"/>
      <point x="42.667" y="40"/>
      <point x="62" y="46.333"/>
      <point x="92" y="82" type="curve" smooth="yes"/>
      <point x="131.667" y="129.333"/>
      <point x="168.667" y="179.667"/>
      <point x="207" y="230.333" type="curve"/>
      <point x="159.333" y="296.333"/>
      <point x="117" y="362"/>
      <point x="75.667" y="418" type="curve" smooth="yes"/>
      <point x="54.333" y="447"/>
      <point x="44.333" y="451"/>
      <point x="1.667" y="455" type="curve"/>
      <point x="1.667" y="490" type="line"/>
      <point x="244.667" y="490" type="line"/>
      <point x="244.667" y="455" type="line"/>
      <point x="219.333" y="451.333" type="line" smooth="yes"/>
      <point x="206.333" y="449.333"/>
      <point x="205" y="439.667"/>
      <point x="212.333" y="429" type="curve" smooth="yes"/>
      <point x="281.667" y="324" type="line"/>
      <point x="283.333" y="324" type="line"/>
      <point x="300.692" y="350.249"/>
      <point x="336.381" y="403.838"/>
      <point x="350" y="425.333" type="curve"/>
      <point x="360.333" y="440.333"/>
      <point x="359" y="449.667"/>
      <point x="344.333" y="451.667" type="curve" smooth="yes"/>
      <point x="314" y="455" type="line"/>
      <point x="314" y="490" type="line"/>
      <point x="508" y="490" type="line"/>
      <point x="508" y="455" type="line"/>
      <point x="464.667" y="453.667"/>
      <point x="446.333" y="445.667"/>
      <point x="421.667" y="419" type="curve" smooth="yes"/>
      <point x="385.333" y="379.333"/>
      <point x="347.667" y="335.333"/>
      <point x="311.333" y="284.667" type="curve"/>
      <point x="357.333" y="215.333"/>
      <point x="404.333" y="146.667"/>
      <point x="451.667" y="81.333" type="curve" smooth="yes"/>
      <point x="479.333" y="44.667"/>
      <point x="495.667" y="37.667"/>
      <point x="539.333" y="35" type="curve"/>
      <point x="539.333" y="0" type="line"/>
      <point x="275.667" y="0" type="line"/>
      <point x="275.667" y="35" type="line"/>
      <point x="304.333" y="38.667" type="line" smooth="yes"/>
      <point x="320.667" y="40.667"/>
      <point x="326.333" y="49.667"/>
      <point x="315.333" y="66.667" type="curve" smooth="yes"/>
      <point x="237" y="187.667" type="line"/>
      <point x="235" y="187.667" type="line"/>
      <point x="215.162" y="157.021"/>
      <point x="173.612" y="92.683"/>
      <point x="159.667" y="68" type="curve"/>
      <point x="149.667" y="52.333"/>
      <point x="152" y="42"/>
      <point x="167.333" y="40" type="curve" smooth="yes"/>
      <point x="204.667" y="35" type="line"/>
      <point x="204.667" y="0" type="line"/>
    </contour>
  </outline>
</glyph>
<glyph name="y" format="2">
	<unicode hex="0079"/>
	<advance width="518"/>
	<outline>
		<contour>
			<point x="-9.66667" y="455" type="curve"/>
			<point x="-9.66667" y="490" type="line"/>
			<point x="253.333" y="490" type="line"/>
			<point x="253.333" y="455" type="line"/>
			<point x="213.667" y="449.667" type="line" smooth="yes"/>
			<point x="201.667" y="448"/>
			<point x="196.667" y="443"/>
			<point x="196.667" y="434.333" type="curve" smooth="yes"/>
			<point x="196.667" y="429.667"/>
			<point x="197.667" y="424.333"/>
			<point x="200.667" y="417.333" type="curve"/>
			<point x="309" y="119.667" type="line"/>
			<point x="311" y="119.667" type="line"/>
			<point x="408.667" y="418" type="line"/>
			<point x="410.667" y="423.333"/>
			<point x="411" y="429.333"/>
			<point x="411" y="431.667" type="curve" smooth="yes"/>
			<point x="411" y="442.333"/>
			<point x="405.333" y="447.667"/>
			<point x="394" y="449.333" type="curve" smooth="yes"/>
			<point x="349.333" y="455" type="line"/>
			<point x="349.333" y="490" type="line"/>
			<point x="547.333" y="490" type="line"/>
			<point x="547.333" y="455" type="line"/>
			<point x="498.667" y="454"/>
			<point x="489.667" y="441"/>
			<point x="470.667" y="393.333" type="curve" smooth="yes"/>
			<point x="291" y="-67.3333" type="line"/>
			<point x="236.667" y="-212.333"/>
			<point x="190.333" y="-242"/>
			<point x="139.333" y="-242" type="curve" smooth="yes"/>
			<point x="91.6667" y="-242"/>
			<point x="53.6667" y="-216.667"/>
			<point x="53.6667" y="-180.333" type="curve" smooth="yes"/>
			<point x="53.6667" y="-147.667"/>
			<point x="83.3333" y="-110"/>
			<point x="115.333" y="-110" type="curve" smooth="yes"/>
			<point x="126.333" y="-110"/>
			<point x="135.667" y="-115"/>
			<point x="147.333" y="-126" type="curve" smooth="yes"/>
			<point x="164.333" y="-141.333"/>
			<point x="176.667" y="-145.667"/>
			<point x="186.333" y="-145.667" type="curve" smooth="yes"/>
			<point x="220.333" y="-145.667"/>
			<point x="237.333" y="-83"/>
			<point x="237.333" y="-52.3333" type="curve" smooth="yes"/>
			<point x="237.333" y="-40.3333"/>
			<point x="235" y="-24.6667"/>
			<point x="229.333" y="-10.3333" type="curve" smooth="yes"/>
			<point x="63" y="407" type="line" smooth="yes"/>
			<point x="47.3333" y="445.667"/>
			<point x="35" y="454.333"/>
		</contour>
	</outline>
</glyph>
<glyph name="z" format="2">
  <advance width="482"/>
  <unicode hex="007A"/>
  <outline>
    <contour>
      <point x="5.667" y="19" type="line"/>
      <point x="303.333" y="447.667" type="line"/>
      <point x="215.333" y="447.667" type="line" smooth="yes"/>
      <point x="116" y="447.667"/>
      <point x="103" y="414.667"/>
      <point x="85.333" y="328.667" type="curve"/>
      <point x="49" y="328.667" type="line"/>
      <point x="49" y="490" type="line"/>
      <point x="458.333" y="490" type="line"/>
      <point x="468.333" y="472" type="line"/>
      <point x="171.667" y="42.333" type="line"/>
      <point x="279.333" y="42.333" type="line" smooth="yes"/>
      <point x="385.667" y="42.333"/>
      <point x="413.667" y="71"/>
      <point x="438.333" y="171" type="curve"/>
      <point x="474" y="171" type="line"/>
      <point x="462.667" y="0" type="line"/>
      <point x="16.333" y="0" type="line"/>
    </contour>
  </outline>
</glyph>
<glyph name="bar" format="2">
	<unicode hex="007C"/>
	<advance width="265"/>
	<outline>
		<contour>
			<point x="89.3333" y="-250" type="line"/>
			<point x="89.3333" y="750" type="line"/>
			<point x="176" y="750" type="line"/>
			<point x="176" y="-250" type="line"/>
		</contour>
	</outline>
</glyph>
<glyph name="asciitilde" format="2">
  <advance width="590"/>
  <unicode hex="007E"/>
  <outline>
    <contour>
      <point x="57.667" y="190.667" type="line"/>
      <point x="81.667" y="245.333"/>
      <point x="118.667" y="318"/>
      <point x="204.333" y="318" type="curve" smooth="yes"/>
      <point x="238.333" y="318"/>
      <point x="273" y="305"/>
      <point x="306" y="291.667" type="curve" smooth="yes"/>
      <point x="339" y="278"/>
      <point x="371.333" y="264.667"/>
      <point x="400" y="264.667" type="curve" smooth="yes"/>
      <point x="434.667" y="264.667"/>
      <point x="454.667" y="281.333"/>
      <point x="483.667" y="331.667" type="curve"/>
      <point x="533" y="304.667" type="line"/>
      <point x="505" y="240.333"/>
      <point x="466" y="182.333"/>
      <point x="389" y="182.333" type="curve" smooth="yes"/>
      <point x="350.667" y="182.333"/>
      <point x="316.667" y="195.667"/>
      <point x="285.333" y="209.333" type="curve" smooth="yes"/>
      <point x="253.333" y="222.667"/>
      <point x="223.333" y="235.667"/>
      <point x="190" y="235.667" type="curve" smooth="yes"/>
      <point x="154.667" y="235.667"/>
      <point x="131.667" y="211.333"/>
      <point x="108.667" y="163.667" type="curve"/>
    </contour>
  </outline>
</glyph>
<glyph name="cent" format="2">
  <advance width="550"/>
  <unicode hex="00A2"/>
  <outline>
    <contour>
      <point x="38.333" y="339.667" type="curve" smooth="yes"/>
      <point x="38.333" y="503.667"/>
      <point x="125.667" y="596.333"/>
      <point x="283" y="599" type="curve"/>
      <point x="283" y="677" type="line"/>
      <point x="333.667" y="677" type="line"/>
      <point x="333.667" y="599" type="line"/>
      <point x="434" y="599"/>
      <point x="519.333" y="552.333"/>
      <point x="519.333" y="498.667" type="curve" smooth="yes"/>
      <point x="519.333" y="466.333"/>
      <point x="489.667" y="441.667"/>
      <point x="454" y="441.667" type="curve" smooth="yes"/>
      <point x="431" y="441.667"/>
      <point x="420" y="451.667"/>
      <point x="408" y="483.333" type="curve" smooth="yes"/>
      <point x="390" y="530"/>
      <point x="365.333" y="553.667"/>
      <point x="333.667" y="556.667" type="curve"/>
      <point x="333.667" y="143" type="line"/>
      <point x="407" y="143"/>
      <point x="456" y="172.667"/>
      <point x="493" y="239" type="curve"/>
      <point x="526.333" y="219" type="line"/>
      <point x="495.667" y="139"/>
      <point x="420" y="87"/>
      <point x="333.667" y="87" type="curve"/>
      <point x="333.667" y="-13.333" type="line"/>
      <point x="283" y="-13.333" type="line"/>
      <point x="283" y="87" type="line"/>
      <point x="124.333" y="87"/>
      <point x="38.333" y="176"/>
    </contour>
    <contour>
      <point x="172" y="360" type="curve" smooth="yes"/>
      <point x="172" y="239.667"/>
      <point x="211.333" y="163.333"/>
      <point x="283" y="146.667" type="curve"/>
      <point x="283" y="556.667" type="line"/>
      <point x="212" y="550.333"/>
      <point x="172" y="481"/>
    </contour>
  </outline>
</glyph>
<glyph name="currency" format="2">
	<unicode hex="00A4"/>
	<advance width="550"/>
	<outline>
		<contour>
			<point x="22.3333" y="127" type="curve" smooth="yes"/>
			<point x="22.3333" y="139.667"/>
			<point x="30.3333" y="152.333"/>
			<point x="43.3333" y="162.667" type="curve" smooth="yes"/>
			<point x="89" y="198.667" type="line"/>
			<point x="58.3333" y="235.333"/>
			<point x="45" y="285"/>
			<point x="45" y="334" type="curve" smooth="yes"/>
			<point x="45" y="383"/>
			<point x="58.3333" y="432.667"/>
			<point x="89" y="469.333" type="curve"/>
			<point x="43.3333" y="505.333" type="line" smooth="yes"/>
			<point x="30.3333" y="515.667"/>
			<point x="22.3333" y="528.333"/>
			<point x="22.3333" y="541" type="curve" smooth="yes"/>
			<point x="22.3333" y="564.667"/>
			<point x="50" y="590"/>
			<point x="73.3333" y="590" type="curve" smooth="yes"/>
			<point x="87" y="590"/>
			<point x="100" y="582.333"/>
			<point x="109.333" y="569.333" type="curve" smooth="yes"/>
			<point x="143.667" y="523.667" type="line"/>
			<point x="178" y="554"/>
			<point x="230.667" y="566.333"/>
			<point x="275" y="566.333" type="curve" smooth="yes"/>
			<point x="319.333" y="566.333"/>
			<point x="372" y="554"/>
			<point x="406.333" y="523.667" type="curve"/>
			<point x="440.667" y="569.333" type="line" smooth="yes"/>
			<point x="450" y="582.333"/>
			<point x="463" y="590"/>
			<point x="476.667" y="590" type="curve" smooth="yes"/>
			<point x="500" y="590"/>
			<point x="527.667" y="564.667"/>
			<point x="527.667" y="541" type="curve" smooth="yes"/>
			<point x="527.667" y="528.333"/>
			<point x="519.667" y="515.667"/>
			<point x="506.667" y="505.333" type="curve" smooth="yes"/>
			<point x="461" y="469.333" type="line"/>
			<point x="491.667" y="432.667"/>
			<point x="505" y="383"/>
			<point x="505" y="334" type="curve" smooth="yes"/>
			<point x="505" y="285"/>
			<point x="491.667" y="235.333"/>
			<point x="461" y="198.667" type="curve"/>
			<point x="506.667" y="162.667" type="line" smooth="yes"/>
			<point x="519.667" y="152.333"/>
			<point x="527.667" y="139.667"/>
			<point x="527.667" y="127" type="curve" smooth="yes"/>
			<point x="527.667" y="103.333"/>
			<point x="500" y="78"/>
			<point x="476.667" y="78" type="curve" smooth="yes"/>
			<point x="463" y="78"/>
			<point x="450" y="85.6667"/>
			<point x="440.667" y="98.6667" type="curve" smooth="yes"/>
			<point x="406.333" y="144.333" type="line"/>
			<point x="372" y="114"/>
			<point x="319.333" y="101.667"/>
			<point x="275" y="101.667" type="curve" smooth="yes"/>
			<point x="230.667" y="101.667"/>
			<point x="178" y="114"/>
			<point x="143.667" y="144.333" type="curve"/>
			<point x="109.333" y="98.6667" type="line" smooth="yes"/>
			<point x="100" y="85.6667"/>
			<point x="87" y="78"/>
			<point x="73.3333" y="78" type="curve" smooth="yes"/>
			<point x="50" y="78"/>
			<point x="22.3333" y="103.333"/>
		</contour>
		<contour>
			<point x="137" y="334" type="curve" smooth="yes"/>
			<point x="137" y="246"/>
			<point x="196" y="178.667"/>
			<point x="275" y="178.667" type="curve" smooth="yes"/>
			<point x="354" y="178.667"/>
			<point x="413" y="246"/>
			<point x="413" y="334" type="curve" smooth="yes"/>
			<point x="413" y="422"/>
			<point x="354" y="489.333"/>
			<point x="275" y="489.333" type="curve" smooth="yes"/>
			<point x="196" y="489.333"/>
			<point x="137" y="422"/>
		</contour>
	</outline>
</glyph>
<glyph name="yen" format="2">
	<unicode hex="00A5"/>
	<advance width="550"/>
	<outline>
		<contour>
			<point x="1.33333" y="634.333" type="line"/>
			<point x="1.33333" y="668" type="line"/>
			<point x="262.333" y="668" type="line"/>
			<point x="262.333" y="632.333" type="line"/>
			<point x="215.333" y="627.667" type="line" smooth="yes"/>
			<point x="204.671" y="626.597"/>
			<point x="201.019" y="621.624"/>
			<point x="201.019" y="615.203" type="curve" smooth="yes"/>
			<point x="201.019" y="610.89"/>
			<point x="202.913" y="605.53"/>
			<point x="205.333" y="600" type="curve" smooth="yes"/>
			<point x="306.667" y="373.639" type="line"/>
			<point x="308.667" y="373.639" type="line"/>
			<point x="403" y="595" type="line" smooth="yes"/>
			<point x="405.724" y="601.391"/>
			<point x="406.974" y="606.693"/>
			<point x="406.982" y="611.115" type="curve" smooth="yes"/>
			<point x="407.004" y="621.463"/>
			<point x="399.597" y="627.008"/>
			<point x="387" y="628.333" type="curve" smooth="yes"/>
			<point x="336.667" y="634.333" type="line"/>
			<point x="336.667" y="668" type="line"/>
			<point x="549.667" y="668" type="line"/>
			<point x="549.667" y="634.333" type="line"/>
			<point x="518.333" y="630.333" type="line" smooth="yes"/>
			<point x="494.667" y="627"/>
			<point x="480.681" y="616.216"/>
			<point x="466.333" y="587" type="curve" smooth="yes"/>
			<point x="365" y="380.667" type="line"/>
			<point x="499.667" y="380.667" type="line"/>
			<point x="499.667" y="337.333" type="line"/>
			<point x="347" y="337.333" type="line"/>
			<point x="341.268" y="318.44" type="line" smooth="yes"/>
			<point x="338.301" y="308.413"/>
			<point x="337.811" y="289.008"/>
			<point x="337.7" y="269.151" type="curve"/>
			<point x="337.667" y="248.333" type="line"/>
			<point x="499.667" y="248.333" type="line"/>
			<point x="499.667" y="205" type="line"/>
			<point x="337.667" y="205" type="line"/>
			<point x="337.667" y="80.3333" type="line" smooth="yes"/>
			<point x="337.667" y="42.6121"/>
			<point x="364.55" y="38.2074"/>
			<point x="422.667" y="33.6667" type="curve"/>
			<point x="422.667" y="0" type="line"/>
			<point x="124.333" y="0" type="line"/>
			<point x="124.333" y="33.6667" type="line"/>
			<point x="182.071" y="38.1829"/>
			<point x="209.333" y="42.8616"/>
			<point x="209.333" y="80.3333" type="curve" smooth="yes"/>
			<point x="209.333" y="205" type="line"/>
			<point x="48" y="205" type="line"/>
			<point x="48" y="248.333" type="line"/>
			<point x="209.333" y="248.333" type="line"/>
			<point x="209.306" y="268.817" type="line"/>
			<point x="209.19" y="289.61"/>
			<point x="208.339" y="305.343"/>
			<point x="203.498" y="317.046" type="curve" smooth="yes"/>
			<point x="194.667" y="337.333" type="line"/>
			<point x="48" y="337.333" type="line"/>
			<point x="48" y="380.667" type="line"/>
			<point x="176" y="380.667" type="line"/>
			<point x="70.3333" y="594" type="line" smooth="yes"/>
			<point x="58.498" y="617.928"/>
			<point x="45.3333" y="628"/>
			<point x="28" y="630.667" type="curve" smooth="yes"/>
		</contour>
	</outline>
</glyph>
<glyph name="section" format="2">
  <advance width="562"/>
  <unicode hex="00A7"/>
  <outline>
    <contour>
      <point x="38.667" y="364.878" type="curve" smooth="yes"/>
      <point x="38.667" y="441"/>
      <point x="74.333" y="510.667"/>
      <point x="130.301" y="556" type="curve"/>
      <point x="131.63" y="618.667"/>
      <point x="174.258" y="707"/>
      <point x="299.288" y="707" type="curve" smooth="yes"/>
      <point x="379.076" y="707"/>
      <point x="449.017" y="671"/>
      <point x="449.017" y="625.195" type="curve" smooth="yes"/>
      <point x="449.017" y="594.333"/>
      <point x="415.706" y="575"/>
      <point x="391.655" y="575" type="curve" smooth="yes"/>
      <point x="375.401" y="575"/>
      <point x="366.742" y="584"/>
      <point x="355.932" y="600.796" type="curve" smooth="yes"/>
      <point x="326.443" y="648.333"/>
      <point x="302.471" y="663.333"/>
      <point x="275.121" y="663.333" type="curve" smooth="yes"/>
      <point x="236.544" y="663.333"/>
      <point x="213.238" y="634.667"/>
      <point x="213.238" y="599.601" type="curve" smooth="yes"/>
      <point x="213.238" y="578.333"/>
      <point x="217.903" y="540.667"/>
      <point x="329.782" y="481.499" type="curve" smooth="yes"/>
      <point x="466.008" y="409.667"/>
      <point x="523" y="352.333"/>
      <point x="523" y="239.176" type="curve" smooth="yes"/>
      <point x="523" y="172"/>
      <point x="491.824" y="107.333"/>
      <point x="448.684" y="52.333" type="curve"/>
      <point x="448.684" y="-39.667"/>
      <point x="387.745" y="-115"/>
      <point x="265.58" y="-115" type="curve" smooth="yes"/>
      <point x="172.594" y="-115"/>
      <point x="102.941" y="-70.662"/>
      <point x="103.059" y="-19.526" type="curve" smooth="yes"/>
      <point x="103.124" y="15.338"/>
      <point x="133.974" y="34.333"/>
      <point x="161.784" y="34.333" type="curve" smooth="yes"/>
      <point x="179.272" y="34.333"/>
      <point x="190.703" y="26.729"/>
      <point x="200.59" y="7.333" type="curve" smooth="yes"/>
      <point x="233.89" y="-57.667"/>
      <point x="266.858" y="-70.667"/>
      <point x="293.81" y="-70.667" type="curve" smooth="yes"/>
      <point x="330.785" y="-70.667"/>
      <point x="361.416" y="-46.667"/>
      <point x="361.416" y="-1.715" type="curve" smooth="yes"/>
      <point x="361.416" y="32.667"/>
      <point x="343.435" y="79.333"/>
      <point x="218.925" y="143.847" type="curve" smooth="yes"/>
      <point x="77.667" y="217"/>
      <point x="38.667" y="285.333"/>
    </contour>
    <contour>
      <point x="99.333" y="419.248" type="curve" smooth="yes"/>
      <point x="99.333" y="364"/>
      <point x="144.288" y="312.333"/>
      <point x="255.555" y="252.92" type="curve" smooth="yes"/>
      <point x="344.436" y="205.667"/>
      <point x="405.386" y="160"/>
      <point x="431.364" y="109.667" type="curve"/>
      <point x="446.679" y="123.333"/>
      <point x="462.333" y="149"/>
      <point x="462.333" y="183.947" type="curve" smooth="yes"/>
      <point x="462.333" y="247.333"/>
      <point x="412.057" y="308"/>
      <point x="315.465" y="360.667" type="curve" smooth="yes"/>
      <point x="239.205" y="403.333"/>
      <point x="167.098" y="446.388"/>
      <point x="143.623" y="503" type="curve"/>
      <point x="120.982" y="489.667"/>
      <point x="99.333" y="457.333"/>
    </contour>
  </outline>
</glyph>
<glyph name="dieresis" format="2">
  <advance width="420"/>
  <unicode hex="00A8"/>
  <anchor x="212" y="733.333" name="top"/>
  <outline>
    <contour>
      <point x="22.667" y="632.333" type="curve" smooth="yes"/>
      <point x="22.667" y="667.333"/>
      <point x="48.333" y="701"/>
      <point x="95.333" y="701" type="curve" smooth="yes"/>
      <point x="142.333" y="701"/>
      <point x="168" y="667.333"/>
      <point x="168" y="632.333" type="curve" smooth="yes"/>
      <point x="168" y="597.333"/>
      <point x="142.333" y="563.333"/>
      <point x="95.333" y="563.333" type="curve" smooth="yes"/>
      <point x="48.333" y="563.333"/>
      <point x="22.667" y="597.333"/>
    </contour>
    <contour>
      <point x="252" y="632.333" type="curve" smooth="yes"/>
      <point x="252" y="667.333"/>
      <point x="277.667" y="701"/>
      <point x="324.667" y="701" type="curve" smooth="yes"/>
      <point x="371.667" y="701"/>
      <point x="397.333" y="667.333"/>
      <point x="397.333" y="632.333" type="curve" smooth="yes"/>
      <point x="397.333" y="597.333"/>
      <point x="371.667" y="563.333"/>
      <point x="324.667" y="563.333" type="curve" smooth="yes"/>
      <point x="277.667" y="563.333"/>
      <point x="252" y="597.333"/>
    </contour>
  </outline>
</glyph>
<glyph name="copyright" format="2">
	<unicode hex="00A9"/>
	<advance width="806"/>
	<outline>
		<contour>
			<point x="39" y="346" type="curve" smooth="yes"/>
			<point x="39" y="546"/>
			<point x="202" y="707"/>
			<point x="403" y="707" type="curve" smooth="yes"/>
			<point x="604" y="707"/>
			<point x="767" y="546"/>
			<point x="767" y="346" type="curve" smooth="yes"/>
			<point x="767" y="146"/>
			<point x="604" y="-15"/>
			<point x="403" y="-15" type="curve" smooth="yes"/>
			<point x="202" y="-15"/>
			<point x="39" y="146"/>
		</contour>
		<contour>
			<point x="115.667" y="346" type="curve" smooth="yes"/>
			<point x="115.667" y="175"/>
			<point x="243.667" y="42"/>
			<point x="403" y="42" type="curve" smooth="yes"/>
			<point x="562.333" y="42"/>
			<point x="690.333" y="175"/>
			<point x="690.333" y="346" type="curve" smooth="yes"/>
			<point x="690.333" y="517"/>
			<point x="562.333" y="650"/>
			<point x="403" y="650" type="curve" smooth="yes"/>
			<point x="243.667" y="650"/>
			<point x="115.667" y="517"/>
		</contour>
		<contour>
			<point x="211" y="348" type="curve" smooth="yes"/>
			<point x="211" y="461.667"/>
			<point x="277" y="548.667"/>
			<point x="423.333" y="548.667" type="curve" smooth="yes"/>
			<point x="476" y="548.667"/>
			<point x="528" y="538.333"/>
			<point x="559.667" y="519" type="curve"/>
			<point x="559.667" y="417" type="line"/>
			<point x="535" y="417" type="line"/>
			<point x="521.667" y="466.333"/>
			<point x="495" y="518"/>
			<point x="427.333" y="518" type="curve" smooth="yes"/>
			<point x="350.667" y="518"/>
			<point x="318" y="443.333"/>
			<point x="318" y="355" type="curve" smooth="yes"/>
			<point x="318" y="265.333"/>
			<point x="347.333" y="181"/>
			<point x="433" y="181" type="curve" smooth="yes"/>
			<point x="492.667" y="181"/>
			<point x="523.333" y="228.333"/>
			<point x="544.333" y="286.667" type="curve"/>
			<point x="569" y="286.667" type="line"/>
			<point x="558" y="181.333" type="line"/>
			<point x="528" y="161.667"/>
			<point x="476.333" y="150.333"/>
			<point x="420.333" y="150.333" type="curve" smooth="yes"/>
			<point x="267.333" y="150.333"/>
			<point x="211" y="235.667"/>
		</contour>
	</outline>
</glyph>
<glyph name="guillemotleft" format="2">
  <advance width="472"/>
  <unicode hex="00AB"/>
  <outline>
    <contour>
      <point x="46.333" y="233.667" type="curve"/>
      <point x="42.42" y="239.899"/>
      <point x="40.914" y="246.305"/>
      <point x="42.247" y="251.884" type="curve"/>
      <point x="49.972" y="265.64"/>
      <point x="84.597" y="309.261"/>
      <point x="98" y="325" type="curve"/>
      <point x="220.667" y="448.667" type="line"/>
      <point x="213.667" y="380.333" type="line"/>
      <point x="203.474" y="358.303"/>
      <point x="167.549" y="277.462"/>
      <point x="159.667" y="258.333" type="curve"/>
      <point x="157.925" y="252.501"/>
      <point x="157.244" y="246.669"/>
      <point x="158.244" y="240.551" type="curve"/>
      <point x="162.172" y="228.636"/>
      <point x="180.362" y="188.629"/>
      <point x="187.333" y="173.667" type="curve"/>
      <point x="233.333" y="52.333" type="line"/>
      <point x="164" y="99" type="line"/>
      <point x="140.99" y="124.835"/>
      <point x="66.645" y="209.02"/>
    </contour>
    <contour>
      <point x="241.333" y="233.667" type="curve"/>
      <point x="237.42" y="239.899"/>
      <point x="235.914" y="246.305"/>
      <point x="237.247" y="251.884" type="curve"/>
      <point x="244.972" y="265.64"/>
      <point x="279.597" y="309.261"/>
      <point x="293" y="325" type="curve"/>
      <point x="415.667" y="448.667" type="line"/>
      <point x="408.667" y="380.333" type="line"/>
      <point x="398.474" y="358.303"/>
      <point x="362.549" y="277.462"/>
      <point x="354.667" y="258.333" type="curve"/>
      <point x="352.925" y="252.501"/>
      <point x="352.244" y="246.669"/>
      <point x="353.244" y="240.551" type="curve"/>
      <point x="357.172" y="228.636"/>
      <point x="375.362" y="188.629"/>
      <point x="382.333" y="173.667" type="curve"/>
      <point x="428.333" y="52.333" type="line"/>
      <point x="359" y="99" type="line"/>
      <point x="335.99" y="124.835"/>
      <point x="261.645" y="209.02"/>
    </contour>
  </outline>
</glyph>
<glyph name="logicalnot" format="2">
	<unicode hex="00AC"/>
	<advance width="590"/>
	<outline>
		<contour>
			<point x="53" y="321.667" type="line"/>
			<point x="53" y="394.333" type="line"/>
			<point x="537" y="394.333" type="line"/>
			<point x="537" y="97.3333" type="line"/>
			<point x="450.333" y="97.3333" type="line"/>
			<point x="450.333" y="321.667" type="line"/>
		</contour>
	</outline>
</glyph>
<glyph name="registered" format="2">
  <advance width="806"/>
  <unicode hex="00AE"/>
  <outline>
    <contour>
      <point x="39" y="346" type="curve" smooth="yes"/>
      <point x="39" y="546"/>
      <point x="202" y="707"/>
      <point x="402.798" y="707" type="curve" smooth="yes"/>
      <point x="604" y="707"/>
      <point x="767" y="546"/>
      <point x="767" y="346" type="curve" smooth="yes"/>
      <point x="767" y="146"/>
      <point x="604" y="-15"/>
      <point x="402.798" y="-15" type="curve" smooth="yes"/>
      <point x="202" y="-15"/>
      <point x="39" y="146"/>
    </contour>
    <contour>
      <point x="115.667" y="346" type="curve" smooth="yes"/>
      <point x="115.667" y="175"/>
      <point x="243.667" y="42"/>
      <point x="402.798" y="42" type="curve" smooth="yes"/>
      <point x="562.333" y="42"/>
      <point x="690.333" y="175"/>
      <point x="690.333" y="346" type="curve" smooth="yes"/>
      <point x="690.333" y="516.798"/>
      <point x="562.333" y="650"/>
      <point x="402.798" y="650" type="curve" smooth="yes"/>
      <point x="243.667" y="650"/>
      <point x="115.667" y="516.798"/>
    </contour>
    <contour>
      <point x="228.667" y="159" type="line"/>
      <point x="228.667" y="183" type="line"/>
      <point x="257" y="187" type="line" smooth="yes"/>
      <point x="273.333" y="189"/>
      <point x="276.333" y="198.667"/>
      <point x="276.333" y="216.333" type="curve" smooth="yes"/>
      <point x="276.333" y="482.391" type="line" smooth="yes"/>
      <point x="276.333" y="500.016"/>
      <point x="273.376" y="509.618"/>
      <point x="257" y="511.714" type="curve" smooth="yes"/>
      <point x="228.667" y="515.762" type="line"/>
      <point x="228.667" y="540" type="line"/>
      <point x="427.172" y="540" type="line" smooth="yes"/>
      <point x="525.667" y="540"/>
      <point x="558.667" y="499.693"/>
      <point x="558.667" y="448.713" type="curve" smooth="yes"/>
      <point x="558.667" y="394.269"/>
      <point x="521" y="360.667"/>
      <point x="466.927" y="351" type="curve"/>
      <point x="466.927" y="349" type="line"/>
      <point x="521.667" y="334"/>
      <point x="531.667" y="297"/>
      <point x="541.385" y="250.898" type="curve" smooth="yes"/>
      <point x="548.628" y="215.406"/>
      <point x="558.019" y="192.43"/>
      <point x="595.667" y="181.333" type="curve"/>
      <point x="595.667" y="159" type="line"/>
      <point x="544.333" y="159" type="line" smooth="yes"/>
      <point x="491.333" y="159"/>
      <point x="472.667" y="174"/>
      <point x="460.509" y="204.421" type="curve" smooth="yes"/>
      <point x="448.618" y="234"/>
      <point x="442.944" y="277.667"/>
      <point x="435.617" y="298.614" type="curve" smooth="yes"/>
      <point x="428.559" y="319"/>
      <point x="416.175" y="332"/>
      <point x="387.758" y="332" type="curve" smooth="yes"/>
      <point x="364.333" y="332" type="line"/>
      <point x="364.333" y="216.333" type="line" smooth="yes"/>
      <point x="364.333" y="198.667"/>
      <point x="368.344" y="189"/>
      <point x="385.059" y="187" type="curve" smooth="yes"/>
      <point x="413.14" y="183" type="line"/>
      <point x="413.14" y="159" type="line"/>
    </contour>
    <contour>
      <point x="364.333" y="362.667" type="line"/>
      <point x="393.102" y="362.667" type="line" smooth="yes"/>
      <point x="442.541" y="362.667"/>
      <point x="465.333" y="388.83"/>
      <point x="465.333" y="435.198" type="curve" smooth="yes"/>
      <point x="465.333" y="491.362"/>
      <point x="433.556" y="509"/>
      <point x="391.972" y="509" type="curve" smooth="yes"/>
      <point x="368.344" y="509"/>
      <point x="364.333" y="503.68"/>
      <point x="364.333" y="488.713" type="curve" smooth="yes"/>
    </contour>
  </outline>
</glyph>
<glyph name="macron" format="2">
	<unicode hex="00AF"/>
	<advance width="420"/>
	<outline>
		<contour>
			<point x="210.333" y="668" type="line"/>
			<point x="362.667" y="668" type="line"/>
			<point x="362.667" y="590.333" type="line"/>
			<point x="210.333" y="590.333" type="line"/>
		</contour>
		<contour>
			<point x="210.333" y="590.333" type="line"/>
			<point x="58.6667" y="590.333" type="line"/>
			<point x="58.6667" y="668" type="line"/>
			<point x="210.333" y="668" type="line"/>
		</contour>
	</outline>
	<anchor name="top" x="210.667" y="718"/>
</glyph>
<glyph name="degree" format="2">
  <advance width="381"/>
  <unicode hex="00B0"/>
  <outline>
    <contour>
      <point x="35.667" y="527.333" type="curve"/>
      <point x="35" y="612.333"/>
      <point x="104.667" y="680"/>
      <point x="190.333" y="680" type="curve" smooth="yes"/>
      <point x="275.333" y="680"/>
      <point x="345" y="612.333"/>
      <point x="345" y="527.333" type="curve" smooth="yes"/>
      <point x="345" y="442.333"/>
      <point x="275.333" y="374.667"/>
      <point x="190.333" y="374.667" type="curve" smooth="yes"/>
      <point x="104.667" y="374.667"/>
      <point x="35.667" y="442.333"/>
    </contour>
    <contour>
      <point x="105.667" y="528" type="curve"/>
      <point x="105.667" y="471"/>
      <point x="143.667" y="429.333"/>
      <point x="190.333" y="429.333" type="curve" smooth="yes"/>
      <point x="236.333" y="429.333"/>
      <point x="275" y="471"/>
      <point x="275" y="528" type="curve" smooth="yes"/>
      <point x="275" y="583.667"/>
      <point x="236.333" y="625.333"/>
      <point x="189.667" y="625.333" type="curve" smooth="yes"/>
      <point x="143.667" y="625.333"/>
      <point x="105" y="583.667"/>
    </contour>
  </outline>
</glyph>
<glyph name="plusminus" format="2">
  <advance width="590"/>
  <unicode hex="00B1"/>
  <outline>
    <contour>
      <point x="53" y="302" type="line"/>
      <point x="53" y="375" type="line"/>
      <point x="252.667" y="375" type="line"/>
      <point x="252.667" y="551.333" type="line"/>
      <point x="339.333" y="551.333" type="line"/>
      <point x="339.333" y="375" type="line"/>
      <point x="537" y="375" type="line"/>
      <point x="537" y="302" type="line"/>
      <point x="339.333" y="302" type="line"/>
      <point x="339.333" y="124.186" type="line"/>
      <point x="252.667" y="124.186" type="line"/>
      <point x="252.667" y="302" type="line"/>
    </contour>
    <contour>
      <point x="53" y="0" type="line"/>
      <point x="53" y="73" type="line"/>
      <point x="537" y="73" type="line"/>
      <point x="537" y="0" type="line"/>
    </contour>
  </outline>
</glyph>
<glyph name="twosuperior" format="2">
	<unicode hex="00B2"/>
	<advance width="380"/>
	<outline>
		<contour>
			<point x="30" y="282" type="line"/>
			<point x="34.3333" y="336.667"/>
			<point x="81.3333" y="390"/>
			<point x="157.667" y="445.667" type="curve" smooth="yes"/>
			<point x="224.667" y="495"/>
			<point x="238.333" y="542.333"/>
			<point x="238.333" y="581.333" type="curve" smooth="yes"/>
			<point x="238.333" y="618"/>
			<point x="224.333" y="645.333"/>
			<point x="197.333" y="645.333" type="curve" smooth="yes"/>
			<point x="171.667" y="645.333"/>
			<point x="153.667" y="620.667"/>
			<point x="141.667" y="566.667" type="curve" smooth="yes"/>
			<point x="136.667" y="544.667"/>
			<point x="126" y="534.667"/>
			<point x="104.333" y="534.667" type="curve" smooth="yes"/>
			<point x="80" y="534.667"/>
			<point x="45.3333" y="551"/>
			<point x="45.3333" y="582" type="curve" smooth="yes"/>
			<point x="45.3333" y="631"/>
			<point x="103" y="680"/>
			<point x="199" y="680" type="curve" smooth="yes"/>
			<point x="290" y="680"/>
			<point x="351" y="643.333"/>
			<point x="351" y="564.333" type="curve" smooth="yes"/>
			<point x="351" y="495.333"/>
			<point x="299.667" y="462"/>
			<point x="233.333" y="430.333" type="curve"/>
			<point x="176.667" y="404.667"/>
			<point x="140" y="375.667"/>
			<point x="127.667" y="346.333" type="curve"/>
			<point x="293.667" y="346.333" type="line" smooth="yes"/>
			<point x="319" y="346.333"/>
			<point x="329.333" y="352.333"/>
			<point x="344.333" y="378.667" type="curve"/>
			<point x="370.667" y="371.667" type="line"/>
			<point x="341" y="272" type="line"/>
			<point x="40.3333" y="272" type="line"/>
		</contour>
	</outline>
</glyph>
<glyph name="uni00B2" format="2">
  <advance width="380"/>
  <unicode hex="00B2"/>
  <outline>
    <contour>
      <point x="30" y="418" type="line"/>
      <point x="34.333" y="472.667"/>
      <point x="81.385" y="525.931"/>
      <point x="157.667" y="581.667" type="curve" smooth="yes"/>
      <point x="224.718" y="630.931"/>
      <point x="238.333" y="678.333"/>
      <point x="238.333" y="716.431" type="curve" smooth="yes"/>
      <point x="238.333" y="754"/>
      <point x="224.333" y="781.333"/>
      <point x="197.333" y="781.333" type="curve" smooth="yes"/>
      <point x="171.667" y="781.333"/>
      <point x="153.765" y="756.644"/>
      <point x="142.22" y="704.998" type="curve" smooth="yes"/>
      <point x="136.765" y="680.643"/>
      <point x="126" y="670.667"/>
      <point x="105.473" y="670.667" type="curve" smooth="yes"/>
      <point x="80" y="670.667"/>
      <point x="45.333" y="687"/>
      <point x="45.333" y="721.893" type="curve" smooth="yes"/>
      <point x="45.333" y="767"/>
      <point x="103" y="816"/>
      <point x="203.228" y="816" type="curve" smooth="yes"/>
      <point x="290" y="816"/>
      <point x="351" y="779.333"/>
      <point x="351" y="702.137" type="curve" smooth="yes"/>
      <point x="351" y="631.333"/>
      <point x="299.667" y="595.333"/>
      <point x="231.759" y="566.023" type="curve" smooth="yes"/>
      <point x="175.935" y="542.116"/>
      <point x="140" y="511.667"/>
      <point x="127.667" y="482.333" type="curve"/>
      <point x="293.667" y="482.333" type="line" smooth="yes"/>
      <point x="319" y="482.333"/>
      <point x="329.333" y="488.333"/>
      <point x="344.333" y="514.667" type="curve"/>
      <point x="370.667" y="507.667" type="line"/>
      <point x="341" y="408" type="line"/>
      <point x="40.333" y="408" type="line"/>
    </contour>
  </outline>
</glyph>
<glyph name="threesuperior" format="2">
	<unicode hex="00B3"/>
	<advance width="380"/>
	<outline>
		<contour>
			<point x="28.6667" y="347" type="curve" smooth="yes"/>
			<point x="28.6667" y="379"/>
			<point x="61.3333" y="401.667"/>
			<point x="85.6667" y="401.667" type="curve" smooth="yes"/>
			<point x="105" y="401.667"/>
			<point x="115.333" y="390"/>
			<point x="120.667" y="373" type="curve" smooth="yes"/>
			<point x="138.667" y="320.333"/>
			<point x="161.667" y="299.667"/>
			<point x="185.667" y="299.667" type="curve" smooth="yes"/>
			<point x="217.667" y="299.667"/>
			<point x="241" y="326.667"/>
			<point x="241" y="385.333" type="curve" smooth="yes"/>
			<point x="241" y="457.667"/>
			<point x="203" y="466.667"/>
			<point x="182" y="466.667" type="curve" smooth="yes"/>
			<point x="156.333" y="466.667"/>
			<point x="132" y="456.333"/>
			<point x="119.667" y="456.333" type="curve" smooth="yes"/>
			<point x="105.333" y="456.333"/>
			<point x="99.3333" y="468"/>
			<point x="99.3333" y="484" type="curve" smooth="yes"/>
			<point x="99.3333" y="501.333"/>
			<point x="105" y="513.333"/>
			<point x="119.667" y="513.333" type="curve" smooth="yes"/>
			<point x="132" y="513.333"/>
			<point x="157" y="503"/>
			<point x="182" y="503" type="curve" smooth="yes"/>
			<point x="221.667" y="503"/>
			<point x="227" y="551.667"/>
			<point x="227" y="580.333" type="curve" smooth="yes"/>
			<point x="227" y="609.333"/>
			<point x="217.667" y="645.333"/>
			<point x="184" y="645.333" type="curve" smooth="yes"/>
			<point x="159" y="645.333"/>
			<point x="143.667" y="620.667"/>
			<point x="131.667" y="577.667" type="curve" smooth="yes"/>
			<point x="126.333" y="559"/>
			<point x="116" y="550.333"/>
			<point x="96.6667" y="550.333" type="curve" smooth="yes"/>
			<point x="74.6667" y="550.333"/>
			<point x="42.3333" y="564.333"/>
			<point x="41" y="594" type="curve"/>
			<point x="41.6667" y="637.667"/>
			<point x="95.3333" y="680"/>
			<point x="191" y="680" type="curve" smooth="yes"/>
			<point x="260" y="680"/>
			<point x="337.667" y="656.333"/>
			<point x="337.667" y="579" type="curve" smooth="yes"/>
			<point x="337.667" y="522"/>
			<point x="289" y="497.333"/>
			<point x="250.333" y="489.667" type="curve"/>
			<point x="250.333" y="487" type="line"/>
			<point x="298.333" y="481"/>
			<point x="355" y="447.667"/>
			<point x="355" y="383.333" type="curve" smooth="yes"/>
			<point x="355" y="316.667"/>
			<point x="307.667" y="265"/>
			<point x="180.333" y="265" type="curve" smooth="yes"/>
			<point x="104" y="265"/>
			<point x="28.6667" y="296"/>
		</contour>
	</outline>
</glyph>
<glyph name="paragraph" format="2">
  <advance width="553"/>
  <unicode hex="00B6"/>
  <outline>
    <contour>
      <point x="44.667" y="465.333" type="curve" smooth="yes"/>
      <point x="44.667" y="597.016"/>
      <point x="128.721" y="691.989"/>
      <point x="274.27" y="691.989" type="curve" smooth="yes"/>
      <point x="281.667" y="691.989" type="line"/>
      <point x="281.667" y="242.009" type="line"/>
      <point x="273.415" y="242.009" type="line" smooth="yes"/>
      <point x="134.135" y="242.009"/>
      <point x="44.667" y="333.558"/>
    </contour>
    <contour>
      <point x="249.333" y="-71.667" type="line"/>
      <point x="327.333" y="-59.333" type="line" smooth="yes"/>
      <point x="346.025" y="-56.519"/>
      <point x="350.333" y="-42.333"/>
      <point x="350.333" y="-13.333" type="curve" smooth="yes"/>
      <point x="350.333" y="692" type="line"/>
      <point x="527.667" y="692" type="line"/>
      <point x="527.667" y="662.667" type="line"/>
      <point x="461.667" y="651.667" type="line" smooth="yes"/>
      <point x="443.333" y="648.667"/>
      <point x="438.667" y="641"/>
      <point x="438.667" y="612" type="curve" smooth="yes"/>
      <point x="438.667" y="-101" type="line"/>
      <point x="249.333" y="-101" type="line"/>
    </contour>
  </outline>
</glyph>
<glyph name="periodcentered" format="2">
  <advance width="275"/>
  <unicode hex="00B7"/>
  <anchor x="54.667" y="249.667" name="_dot"/>
  <outline>
    <contour>
      <point x="54.667" y="249.667" type="curve" smooth="yes"/>
      <point x="54.667" y="298.667"/>
      <point x="88.333" y="333.333"/>
      <point x="137.667" y="333.333" type="curve" smooth="yes"/>
      <point x="187.333" y="333.333"/>
      <point x="220.667" y="298.667"/>
      <point x="220.667" y="249.667" type="curve" smooth="yes"/>
      <point x="220.667" y="201"/>
      <point x="187.333" y="166.667"/>
      <point x="137.667" y="166.667" type="curve" smooth="yes"/>
      <point x="88.333" y="166.667"/>
      <point x="54.667" y="201"/>
    </contour>
  </outline>
</glyph>
<glyph name="cedilla" format="2">
  <advance width="420"/>
  <unicode hex="00B8"/>
  <outline>
    <contour>
      <point x="145" y="-207.667" type="line"/>
      <point x="198.667" y="-207.667"/>
      <point x="237" y="-192.667"/>
      <point x="237" y="-150.333" type="curve" smooth="yes"/>
      <point x="237" y="-106"/>
      <point x="193" y="-98.667"/>
      <point x="172.333" y="-97" type="curve"/>
      <point x="168.333" y="-89.333" type="line"/>
      <point x="221.667" y="0" type="line"/>
      <point x="274" y="0" type="line"/>
      <point x="237.333" y="-57" type="line"/>
      <point x="270.333" y="-61.333"/>
      <point x="333" y="-78.667"/>
      <point x="333" y="-143.333" type="curve" smooth="yes"/>
      <point x="333" y="-229"/>
      <point x="233.333" y="-240.667"/>
      <point x="191.667" y="-240.667" type="curve" smooth="yes"/>
      <point x="173" y="-240.667"/>
      <point x="161" y="-239.667"/>
      <point x="145" y="-237.667" type="curve"/>
    </contour>
  </outline>
</glyph>
<glyph name="onesuperior" format="2">
	<unicode hex="00B9"/>
	<advance width="380"/>
	<outline>
		<contour>
			<point x="77" y="272" type="line"/>
			<point x="77" y="297.333" type="line"/>
			<point x="120.667" y="302.333" type="line" smooth="yes"/>
			<point x="139" y="304.667"/>
			<point x="147" y="311.333"/>
			<point x="147" y="335" type="curve" smooth="yes"/>
			<point x="147" y="596" type="line" smooth="yes"/>
			<point x="147" y="617"/>
			<point x="140.333" y="624"/>
			<point x="126" y="626.667" type="curve"/>
			<point x="78.3333" y="633.333" type="line"/>
			<point x="78.3333" y="657" type="line"/>
			<point x="243.333" y="680" type="line"/>
			<point x="251" y="674" type="line"/>
			<point x="251" y="335" type="line" smooth="yes"/>
			<point x="251" y="311.333"/>
			<point x="259" y="304.667"/>
			<point x="277.667" y="302.333" type="curve" smooth="yes"/>
			<point x="321" y="297.333" type="line"/>
			<point x="321" y="272" type="line"/>
		</contour>
	</outline>
</glyph>
<glyph name="ordmasculine" format="2">
  <advance width="417"/>
  <unicode hex="00BA"/>
  <outline>
    <contour>
      <point x="30.333" y="518.333" type="curve" smooth="yes"/>
      <point x="30.333" y="615.333"/>
      <point x="82.333" y="680.667"/>
      <point x="208.667" y="680.667" type="curve" smooth="yes"/>
      <point x="335.667" y="680.667"/>
      <point x="387" y="615.333"/>
      <point x="387" y="518.333" type="curve" smooth="yes"/>
      <point x="387" y="421"/>
      <point x="335.667" y="355.667"/>
      <point x="208.667" y="355.667" type="curve" smooth="yes"/>
      <point x="82.333" y="355.667"/>
      <point x="30.333" y="421"/>
    </contour>
    <contour>
      <point x="142" y="518.333" type="curve"/>
      <point x="142.667" y="439"/>
      <point x="163.333" y="389"/>
      <point x="208.667" y="389" type="curve" smooth="yes"/>
      <point x="254.667" y="389"/>
      <point x="274.667" y="439"/>
      <point x="275.333" y="518.333" type="curve"/>
      <point x="274.667" y="597.333"/>
      <point x="254.667" y="647.333"/>
      <point x="208.667" y="647.333" type="curve" smooth="yes"/>
      <point x="163.333" y="647.333"/>
      <point x="142.667" y="597.333"/>
    </contour>
  </outline>
</glyph>
<glyph name="guillemotright" format="2">
  <advance width="472"/>
  <unicode hex="00BB"/>
  <outline>
    <contour>
      <point x="37" y="57.667" type="line"/>
      <point x="116" y="228.333" type="line" smooth="yes"/>
      <point x="118.91" y="234.789"/>
      <point x="120.089" y="240.789"/>
      <point x="120.089" y="246.551" type="curve" smooth="yes"/>
      <point x="120.089" y="252.335"/>
      <point x="118.742" y="258.168"/>
      <point x="116" y="263.667" type="curve"/>
      <point x="37" y="434.667" type="line"/>
      <point x="63" y="454.333" type="line"/>
      <point x="229" y="264.667" type="line" smooth="yes"/>
      <point x="233.746" y="259.246"/>
      <point x="236.419" y="252.986"/>
      <point x="236.419" y="246.884" type="curve" smooth="yes"/>
      <point x="236.419" y="240.638"/>
      <point x="233.913" y="234.565"/>
      <point x="229" y="228.333" type="curve"/>
      <point x="63" y="38.333" type="line"/>
    </contour>
    <contour>
      <point x="232" y="57.667" type="line"/>
      <point x="311" y="228.333" type="line" smooth="yes"/>
      <point x="313.91" y="234.789"/>
      <point x="315.089" y="240.789"/>
      <point x="315.089" y="246.551" type="curve" smooth="yes"/>
      <point x="315.089" y="252.335"/>
      <point x="313.742" y="258.168"/>
      <point x="311" y="263.667" type="curve"/>
      <point x="232" y="434.667" type="line"/>
      <point x="258" y="454.333" type="line"/>
      <point x="424" y="264.667" type="line" smooth="yes"/>
      <point x="428.746" y="259.246"/>
      <point x="431.419" y="252.986"/>
      <point x="431.419" y="246.884" type="curve" smooth="yes"/>
      <point x="431.419" y="240.638"/>
      <point x="428.913" y="234.565"/>
      <point x="424" y="228.333" type="curve"/>
      <point x="258" y="38.333" type="line"/>
    </contour>
  </outline>
</glyph>
<glyph name="onequarter" format="2">
  <advance width="887"/>
  <unicode hex="00BC"/>
  <outline>
    <contour>
      <point x="73" y="272" type="line"/>
      <point x="73" y="297.333" type="line"/>
      <point x="116.667" y="302.333" type="line" smooth="yes"/>
      <point x="135" y="304.667"/>
      <point x="143" y="311.333"/>
      <point x="143" y="335" type="curve" smooth="yes"/>
      <point x="143" y="596" type="line" smooth="yes"/>
      <point x="143" y="617"/>
      <point x="136.333" y="624"/>
      <point x="122" y="626.667" type="curve"/>
      <point x="74.333" y="633.333" type="line"/>
      <point x="74.333" y="657" type="line"/>
      <point x="239.333" y="680" type="line"/>
      <point x="247" y="674" type="line"/>
      <point x="247" y="335" type="line" smooth="yes"/>
      <point x="247" y="311.333"/>
      <point x="255" y="304.667"/>
      <point x="273.667" y="302.333" type="curve" smooth="yes"/>
      <point x="317" y="297.333" type="line"/>
      <point x="317" y="272" type="line"/>
    </contour>
    <contour>
      <point x="228.333" y="2.667" type="line"/>
      <point x="609" y="695" type="line"/>
      <point x="657" y="668.333" type="line"/>
      <point x="275" y="-27" type="line"/>
    </contour>
    <contour>
      <point x="463.333" y="119" type="line"/>
      <point x="525.333" y="219"/>
      <point x="600" y="328.333"/>
      <point x="657.333" y="401" type="curve"/>
      <point x="741.667" y="401" type="line"/>
      <point x="741.667" y="139.667" type="line"/>
      <point x="807.667" y="139.667" type="line"/>
      <point x="807.667" y="96" type="line"/>
      <point x="741.667" y="96" type="line"/>
      <point x="741.667" y="58.333" type="line" smooth="yes"/>
      <point x="741.667" y="36.667"/>
      <point x="749" y="30.667"/>
      <point x="763.667" y="29" type="curve" smooth="yes"/>
      <point x="793" y="25.333" type="line"/>
      <point x="793" y="0" type="line"/>
      <point x="579" y="0" type="line"/>
      <point x="579" y="25.333" type="line"/>
      <point x="618.667" y="29.667" type="line" smooth="yes"/>
      <point x="632.333" y="31.333"/>
      <point x="640.333" y="36.667"/>
      <point x="640.333" y="58.333" type="curve" smooth="yes"/>
      <point x="640.333" y="96" type="line"/>
      <point x="476.333" y="96" type="line"/>
    </contour>
    <contour>
      <point x="528.667" y="139.667" type="curve"/>
      <point x="640.333" y="139.667" type="line"/>
      <point x="640.333" y="318.333" type="line"/>
      <point x="638.333" y="318.333" type="line"/>
      <point x="602" y="266.333"/>
      <point x="564" y="202"/>
    </contour>
  </outline>
</glyph>
<glyph name="onehalf" format="2">
  <advance width="887"/>
  <unicode hex="00BD"/>
  <outline>
    <contour>
      <point x="57.333" y="272" type="line"/>
      <point x="57.333" y="297.333" type="line"/>
      <point x="101" y="302.333" type="line" smooth="yes"/>
      <point x="119.333" y="304.667"/>
      <point x="127.333" y="311.333"/>
      <point x="127.333" y="335" type="curve" smooth="yes"/>
      <point x="127.333" y="596" type="line" smooth="yes"/>
      <point x="127.333" y="617"/>
      <point x="120.667" y="624"/>
      <point x="106.333" y="626.667" type="curve"/>
      <point x="58.667" y="633.333" type="line"/>
      <point x="58.667" y="657" type="line"/>
      <point x="223.667" y="680" type="line"/>
      <point x="231.333" y="674" type="line"/>
      <point x="231.333" y="335" type="line" smooth="yes"/>
      <point x="231.333" y="311.333"/>
      <point x="239.333" y="304.667"/>
      <point x="258" y="302.333" type="curve" smooth="yes"/>
      <point x="301.333" y="297.333" type="line"/>
      <point x="301.333" y="272" type="line"/>
    </contour>
    <contour>
      <point x="202.667" y="2.667" type="line"/>
      <point x="583.333" y="695" type="line"/>
      <point x="631.333" y="668.333" type="line"/>
      <point x="249.333" y="-27" type="line"/>
    </contour>
    <contour>
      <point x="494.333" y="10" type="line"/>
      <point x="498.667" y="64.667"/>
      <point x="545.667" y="118"/>
      <point x="622" y="173.667" type="curve" smooth="yes"/>
      <point x="689" y="223"/>
      <point x="702.667" y="270.333"/>
      <point x="702.667" y="309.333" type="curve" smooth="yes"/>
      <point x="702.667" y="346"/>
      <point x="688.667" y="373.333"/>
      <point x="661.667" y="373.333" type="curve" smooth="yes"/>
      <point x="636" y="373.333"/>
      <point x="618" y="348.667"/>
      <point x="606" y="294.667" type="curve" smooth="yes"/>
      <point x="601" y="272.667"/>
      <point x="590.333" y="262.667"/>
      <point x="568.667" y="262.667" type="curve" smooth="yes"/>
      <point x="544.333" y="262.667"/>
      <point x="509.667" y="279"/>
      <point x="509.667" y="310" type="curve" smooth="yes"/>
      <point x="509.667" y="359"/>
      <point x="567.333" y="408"/>
      <point x="663.333" y="408" type="curve" smooth="yes"/>
      <point x="754.333" y="408"/>
      <point x="815.333" y="371.333"/>
      <point x="815.333" y="292.333" type="curve" smooth="yes"/>
      <point x="815.333" y="223.333"/>
      <point x="764" y="190"/>
      <point x="697.667" y="158.333" type="curve"/>
      <point x="641" y="132.667"/>
      <point x="604.333" y="103.667"/>
      <point x="592" y="74.333" type="curve"/>
      <point x="758" y="74.333" type="line" smooth="yes"/>
      <point x="783.333" y="74.333"/>
      <point x="793.667" y="80.333"/>
      <point x="808.667" y="106.667" type="curve"/>
      <point x="835" y="99.667" type="line"/>
      <point x="805.333" y="0" type="line"/>
      <point x="504.667" y="0" type="line"/>
    </contour>
  </outline>
</glyph>
<glyph name="threequarters" format="2">
  <advance width="887"/>
  <unicode hex="00BE"/>
  <outline>
    <contour>
      <point x="40" y="347" type="curve" smooth="yes"/>
      <point x="40" y="379"/>
      <point x="72.667" y="401.667"/>
      <point x="97" y="401.667" type="curve" smooth="yes"/>
      <point x="116.333" y="401.667"/>
      <point x="126.667" y="390"/>
      <point x="132" y="373" type="curve" smooth="yes"/>
      <point x="150" y="320.333"/>
      <point x="173" y="299.667"/>
      <point x="197" y="299.667" type="curve" smooth="yes"/>
      <point x="229" y="299.667"/>
      <point x="252.333" y="326.667"/>
      <point x="252.333" y="385.333" type="curve" smooth="yes"/>
      <point x="252.333" y="457.667"/>
      <point x="214.333" y="466.667"/>
      <point x="193.333" y="466.667" type="curve" smooth="yes"/>
      <point x="167.667" y="466.667"/>
      <point x="143.333" y="456.333"/>
      <point x="131" y="456.333" type="curve" smooth="yes"/>
      <point x="116.667" y="456.333"/>
      <point x="110.667" y="468"/>
      <point x="110.667" y="484" type="curve" smooth="yes"/>
      <point x="110.667" y="501.333"/>
      <point x="116.333" y="513.333"/>
      <point x="131" y="513.333" type="curve" smooth="yes"/>
      <point x="143.333" y="513.333"/>
      <point x="168.333" y="503"/>
      <point x="193.333" y="503" type="curve" smooth="yes"/>
      <point x="233" y="503"/>
      <point x="238.333" y="551.667"/>
      <point x="238.333" y="580.333" type="curve" smooth="yes"/>
      <point x="238.333" y="609.333"/>
      <point x="229" y="645.333"/>
      <point x="195.333" y="645.333" type="curve" smooth="yes"/>
      <point x="170.333" y="645.333"/>
      <point x="155" y="620.667"/>
      <point x="143" y="577.667" type="curve" smooth="yes"/>
      <point x="137.667" y="559"/>
      <point x="127.333" y="550.333"/>
      <point x="108" y="550.333" type="curve" smooth="yes"/>
      <point x="86" y="550.333"/>
      <point x="53.667" y="564.333"/>
      <point x="52.333" y="594" type="curve"/>
      <point x="53" y="637.667"/>
      <point x="106.667" y="680"/>
      <point x="202.333" y="680" type="curve" smooth="yes"/>
      <point x="271.333" y="680"/>
      <point x="349" y="656.333"/>
      <point x="349" y="579" type="curve" smooth="yes"/>
      <point x="349" y="522"/>
      <point x="300.333" y="497.333"/>
      <point x="261.667" y="489.667" type="curve"/>
      <point x="261.667" y="487" type="line"/>
      <point x="309.667" y="481"/>
      <point x="366.333" y="447.667"/>
      <point x="366.333" y="383.333" type="curve" smooth="yes"/>
      <point x="366.333" y="316.667"/>
      <point x="319" y="265"/>
      <point x="191.667" y="265" type="curve" smooth="yes"/>
      <point x="115.333" y="265"/>
      <point x="40" y="296"/>
    </contour>
    <contour>
      <point x="253.667" y="2.667" type="line"/>
      <point x="634.333" y="695" type="line"/>
      <point x="682.333" y="668.333" type="line"/>
      <point x="300.333" y="-27" type="line"/>
    </contour>
    <contour>
      <point x="486.333" y="119" type="line"/>
      <point x="548.333" y="219"/>
      <point x="623" y="328.333"/>
      <point x="680.333" y="401" type="curve"/>
      <point x="764.667" y="401" type="line"/>
      <point x="764.667" y="139.667" type="line"/>
      <point x="830.667" y="139.667" type="line"/>
      <point x="830.667" y="96" type="line"/>
      <point x="764.667" y="96" type="line"/>
      <point x="764.667" y="58.333" type="line" smooth="yes"/>
      <point x="764.667" y="36.667"/>
      <point x="772" y="30.667"/>
      <point x="786.667" y="29" type="curve" smooth="yes"/>
      <point x="816" y="25.333" type="line"/>
      <point x="816" y="0" type="line"/>
      <point x="602" y="0" type="line"/>
      <point x="602" y="25.333" type="line"/>
      <point x="641.667" y="29.667" type="line" smooth="yes"/>
      <point x="655.333" y="31.333"/>
      <point x="663.333" y="36.667"/>
      <point x="663.333" y="58.333" type="curve" smooth="yes"/>
      <point x="663.333" y="96" type="line"/>
      <point x="499.333" y="96" type="line"/>
    </contour>
    <contour>
      <point x="551.667" y="139.667" type="curve"/>
      <point x="663.333" y="139.667" type="line"/>
      <point x="663.333" y="318.333" type="line"/>
      <point x="661.333" y="318.333" type="line"/>
      <point x="625" y="266.333"/>
      <point x="587" y="202"/>
    </contour>
  </outline>
</glyph>
<glyph name="questiondown" format="2">
	<unicode hex="00BF"/>
	<advance width="434"/>
	<outline>
		<contour>
			<point x="25.3333" y="-73" type="curve"/>
			<point x="26" y="1.33333"/>
			<point x="88" y="33.6667"/>
			<point x="127.333" y="56.3333" type="curve" smooth="yes"/>
			<point x="177.333" y="85.3333"/>
			<point x="202" y="118.667"/>
			<point x="202" y="153.333" type="curve" smooth="yes"/>
			<point x="202" y="191.667"/>
			<point x="170.333" y="213"/>
			<point x="137.333" y="213" type="curve" smooth="yes"/>
			<point x="119.333" y="213"/>
			<point x="105.667" y="210.333"/>
			<point x="96" y="207.667" type="curve"/>
			<point x="86" y="232.333" type="line"/>
			<point x="121.667" y="257.667"/>
			<point x="170.333" y="274.333"/>
			<point x="218.667" y="274.333" type="curve" smooth="yes"/>
			<point x="284.667" y="274.333"/>
			<point x="346.333" y="240.333"/>
			<point x="346.333" y="171.333" type="curve" smooth="yes"/>
			<point x="346.333" y="137"/>
			<point x="329.333" y="105"/>
			<point x="262" y="61" type="curve" smooth="yes"/>
			<point x="203.667" y="23"/>
			<point x="169.667" y="-32"/>
			<point x="169.667" y="-89.6667" type="curve" smooth="yes"/>
			<point x="169.667" y="-139"/>
			<point x="185.667" y="-174.667"/>
			<point x="218.333" y="-174.667" type="curve" smooth="yes"/>
			<point x="249" y="-174.667"/>
			<point x="271.667" y="-146"/>
			<point x="289.667" y="-65.6667" type="curve" smooth="yes"/>
			<point x="294.667" y="-43.3333"/>
			<point x="310" y="-33"/>
			<point x="336.333" y="-33" type="curve" smooth="yes"/>
			<point x="364" y="-33"/>
			<point x="410.667" y="-52.6667"/>
			<point x="410.667" y="-95" type="curve" smooth="yes"/>
			<point x="410.667" y="-139.333"/>
			<point x="352" y="-216.333"/>
			<point x="214" y="-217" type="curve"/>
			<point x="106" y="-217"/>
			<point x="26" y="-170.667"/>
		</contour>
		<contour>
			<point x="133" y="419.333" type="curve" smooth="yes"/>
			<point x="133" y="468"/>
			<point x="166.667" y="502"/>
			<point x="215.667" y="502" type="curve" smooth="yes"/>
			<point x="265" y="502"/>
			<point x="298" y="468"/>
			<point x="298.333" y="419.333" type="curve"/>
			<point x="298.333" y="370.667"/>
			<point x="265" y="336.333"/>
			<point x="215.667" y="336.333" type="curve" smooth="yes"/>
			<point x="166.667" y="336.333"/>
			<point x="133" y="370.667"/>
		</contour>
	</outline>
</glyph>
<glyph name="AE" format="2">
  <advance width="878"/>
  <unicode hex="00C6"/>
  <outline>
    <contour>
      <point x="-73" y="0" type="line"/>
      <point x="-73" y="35" type="line"/>
      <point x="-16.333" y="38"/>
      <point x="-2.667" y="47"/>
      <point x="19.333" y="88.333" type="curve" smooth="yes"/>
      <point x="289.333" y="611" type="line" smooth="yes"/>
      <point x="294.333" y="621.333"/>
      <point x="297" y="629.667"/>
      <point x="297" y="636" type="curve" smooth="yes"/>
      <point x="297" y="645"/>
      <point x="291.667" y="649.333"/>
      <point x="279.333" y="650.333" type="curve" smooth="yes"/>
      <point x="211.667" y="657" type="line"/>
      <point x="211.667" y="692" type="line"/>
      <point x="818" y="692" type="line"/>
      <point x="818" y="514" type="line"/>
      <point x="782.667" y="514" type="line"/>
      <point x="757.333" y="614.667"/>
      <point x="737.667" y="649.667"/>
      <point x="631" y="649.667" type="curve" smooth="yes"/>
      <point x="548.333" y="649.667" type="line" smooth="yes"/>
      <point x="519" y="649.667"/>
      <point x="512.667" y="643"/>
      <point x="512.667" y="613.667" type="curve" smooth="yes"/>
      <point x="512.667" y="385.667" type="line"/>
      <point x="622.667" y="385.667" type="line" smooth="yes"/>
      <point x="693" y="385.667"/>
      <point x="703" y="405"/>
      <point x="716.667" y="474.333" type="curve"/>
      <point x="752" y="474.333" type="line"/>
      <point x="752" y="249.333" type="line"/>
      <point x="716.667" y="249.333" type="line"/>
      <point x="703" y="319"/>
      <point x="693" y="338.333"/>
      <point x="622.667" y="338.333" type="curve" smooth="yes"/>
      <point x="512.667" y="338.333" type="line"/>
      <point x="512.667" y="121" type="line" smooth="yes"/>
      <point x="512.667" y="48.667"/>
      <point x="549" y="42.333"/>
      <point x="637.667" y="42.333" type="curve" smooth="yes"/>
      <point x="756.333" y="42.333"/>
      <point x="784.667" y="84.333"/>
      <point x="816.333" y="196.333" type="curve"/>
      <point x="851.667" y="196.333" type="line"/>
      <point x="839.667" y="0" type="line"/>
      <point x="293" y="0" type="line"/>
      <point x="293" y="35" type="line"/>
      <point x="369.333" y="39"/>
      <point x="375.667" y="43"/>
      <point x="375.667" y="96.333" type="curve" smooth="yes"/>
      <point x="375.667" y="338.333" type="line"/>
      <point x="213.667" y="338.333" type="line"/>
      <point x="86.333" y="76.667" type="line" smooth="yes"/>
      <point x="83" y="69.667"/>
      <point x="82" y="63.667"/>
      <point x="82" y="59" type="curve" smooth="yes"/>
      <point x="82" y="48.667"/>
      <point x="88.667" y="42.333"/>
      <point x="103.333" y="41.333" type="curve"/>
      <point x="168" y="35" type="line"/>
      <point x="168" y="0" type="line"/>
    </contour>
    <contour>
      <point x="236.667" y="385.667" type="line"/>
      <point x="375.667" y="385.667" type="line"/>
      <point x="375.667" y="644" type="line"/>
      <point x="367" y="644" type="line"/>
    </contour>
  </outline>
</glyph>
<glyph name="Eth" format="2">
  <advance width="784"/>
  <unicode hex="00D0"/>
  <outline>
    <contour>
      <point x="30" y="385.667" type="line"/>
      <point x="402.667" y="385.667" type="line"/>
      <point x="402.667" y="341" type="line"/>
      <point x="30" y="341" type="line"/>
    </contour>
    <contour>
      <point x="39.667" y="0" type="line"/>
      <point x="39.667" y="35" type="line"/>
      <point x="116.333" y="39"/>
      <point x="122.333" y="43"/>
      <point x="122.333" y="95.667" type="curve" smooth="yes"/>
      <point x="122.333" y="596.333" type="line" smooth="yes"/>
      <point x="122.333" y="649"/>
      <point x="116.333" y="653"/>
      <point x="39.667" y="657" type="curve"/>
      <point x="39.667" y="692" type="line"/>
      <point x="379" y="692" type="line" smooth="yes"/>
      <point x="630" y="692"/>
      <point x="739.667" y="569.333"/>
      <point x="739.667" y="353" type="curve" smooth="yes"/>
      <point x="739.667" y="73.667"/>
      <point x="549.333" y="0"/>
      <point x="343" y="0" type="curve" smooth="yes"/>
    </contour>
    <contour>
      <point x="262" y="101.667" type="line" smooth="yes"/>
      <point x="262" y="54"/>
      <point x="279" y="42.333"/>
      <point x="345.333" y="42.333" type="curve" smooth="yes"/>
      <point x="471.333" y="42.333"/>
      <point x="584.333" y="93.333"/>
      <point x="584.333" y="350" type="curve" smooth="yes"/>
      <point x="584.333" y="538.333"/>
      <point x="516" y="649.667"/>
      <point x="356" y="649.667" type="curve" smooth="yes"/>
      <point x="278.333" y="649.667"/>
      <point x="262" y="644.667"/>
      <point x="262" y="612" type="curve" smooth="yes"/>
    </contour>
  </outline>
</glyph>
<glyph name="multiply" format="2">
  <advance width="590"/>
  <unicode hex="00D7"/>
  <outline>
    <contour>
      <point x="71" y="76" type="line"/>
      <point x="240.667" y="248" type="line"/>
      <point x="71" y="419.333" type="line"/>
      <point x="123.333" y="476.667" type="line"/>
      <point x="295" y="303.333" type="line"/>
      <point x="465.667" y="476.667" type="line"/>
      <point x="519" y="419.333" type="line"/>
      <point x="349.333" y="248" type="line"/>
      <point x="519" y="76" type="line"/>
      <point x="465.667" y="20.667" type="line"/>
      <point x="295" y="193.333" type="line"/>
      <point x="123.333" y="20.667" type="line"/>
    </contour>
  </outline>
</glyph>
<glyph name="Oslash" format="2">
	<unicode hex="00D8"/>
	<advance width="766"/>
	<outline>
		<contour>
			<point x="144.333" y="-29.6667" type="line"/>
			<point x="184.333" y="-58.3333" type="line"/>
			<point x="617.667" y="720" type="line"/>
			<point x="575" y="744.333" type="line"/>
		</contour>
		<contour>
			<point x="44" y="346" type="curve" smooth="yes"/>
			<point x="44" y="123.667"/>
			<point x="155" y="-15"/>
			<point x="383" y="-15" type="curve" smooth="yes"/>
			<point x="611" y="-15"/>
			<point x="722" y="123.667"/>
			<point x="722" y="346" type="curve" smooth="yes"/>
			<point x="722" y="568.333"/>
			<point x="611" y="707"/>
			<point x="383" y="707" type="curve" smooth="yes"/>
			<point x="155" y="707"/>
			<point x="44" y="568.333"/>
		</contour>
		<contour>
			<point x="199.333" y="348" type="curve" smooth="yes"/>
			<point x="199.333" y="475.667"/>
			<point x="225.667" y="664.667"/>
			<point x="383" y="664.667" type="curve" smooth="yes"/>
			<point x="540.333" y="664.667"/>
			<point x="566.667" y="475.667"/>
			<point x="566.667" y="346" type="curve" smooth="yes"/>
			<point x="566.667" y="216.333"/>
			<point x="540.333" y="27.3333"/>
			<point x="383" y="27.3333" type="curve" smooth="yes"/>
			<point x="227" y="27.3333"/>
			<point x="199.333" y="216.333"/>
		</contour>
	</outline>
</glyph>
<glyph name="Thorn" format="2">
  <advance width="624"/>
  <unicode hex="00DE"/>
  <outline>
    <contour>
      <point x="33.667" y="0" type="line"/>
      <point x="33.667" y="35" type="line"/>
      <point x="110.333" y="39"/>
      <point x="116.333" y="43"/>
      <point x="116.333" y="95.667" type="curve" smooth="yes"/>
      <point x="116.333" y="596.333" type="line" smooth="yes"/>
      <point x="116.333" y="649"/>
      <point x="110.333" y="653"/>
      <point x="33.667" y="657" type="curve"/>
      <point x="33.667" y="692" type="line"/>
      <point x="338" y="692" type="line"/>
      <point x="338" y="657" type="line"/>
      <point x="262.333" y="653"/>
      <point x="256" y="649"/>
      <point x="256" y="596.333" type="curve" smooth="yes"/>
      <point x="256" y="549.667" type="line"/>
      <point x="340.333" y="549.667" type="line" smooth="yes"/>
      <point x="486.333" y="549.667"/>
      <point x="600" y="509"/>
      <point x="600" y="370" type="curve" smooth="yes"/>
      <point x="600" y="204.667"/>
      <point x="439" y="178"/>
      <point x="308.667" y="178" type="curve" smooth="yes"/>
      <point x="256" y="178" type="line"/>
      <point x="256" y="95.667" type="line" smooth="yes"/>
      <point x="256" y="43"/>
      <point x="262.333" y="39"/>
      <point x="352.667" y="35" type="curve"/>
      <point x="352.667" y="0" type="line"/>
    </contour>
    <contour>
      <point x="256" y="258" type="line" smooth="yes"/>
      <point x="256" y="229.333"/>
      <point x="269.667" y="220.333"/>
      <point x="311.333" y="220.333" type="curve" smooth="yes"/>
      <point x="411" y="220.333"/>
      <point x="452.333" y="274.667"/>
      <point x="452.333" y="361.333" type="curve" smooth="yes"/>
      <point x="452.333" y="466"/>
      <point x="394.667" y="507.333"/>
      <point x="322.333" y="507.333" type="curve" smooth="yes"/>
      <point x="265.667" y="507.333"/>
      <point x="256" y="499"/>
      <point x="256" y="469.667" type="curve" smooth="yes"/>
    </contour>
  </outline>
</glyph>
<glyph name="germandbls" format="2">
  <advance width="642"/>
  <unicode hex="00DF"/>
  <outline>
    <contour>
      <point x="26.667" y="0" type="line"/>
      <point x="26.667" y="33.667" type="line"/>
      <point x="87.333" y="38.667"/>
      <point x="93.667" y="42"/>
      <point x="93.667" y="85.667" type="curve" smooth="yes"/>
      <point x="93.667" y="478.333" type="line" smooth="yes"/>
      <point x="93.667" y="639.357"/>
      <point x="162.482" y="742"/>
      <point x="335.333" y="742" type="curve" smooth="yes"/>
      <point x="530.333" y="742"/>
      <point x="555.667" y="632"/>
      <point x="555.667" y="577.578" type="curve" smooth="yes"/>
      <point x="555.667" y="549"/>
      <point x="548.333" y="524.333"/>
      <point x="529.333" y="502.333" type="curve"/>
      <point x="462" y="495"/>
      <point x="423" y="460.667"/>
      <point x="423" y="413.888" type="curve" smooth="yes"/>
      <point x="423" y="364.333"/>
      <point x="468.667" y="330.333"/>
      <point x="508" y="303.667" type="curve" smooth="yes"/>
      <point x="557.638" y="269.959"/>
      <point x="622.333" y="220.667"/>
      <point x="622.333" y="133.111" type="curve" smooth="yes"/>
      <point x="622.333" y="44.667"/>
      <point x="556.667" y="-12"/>
      <point x="447.908" y="-12" type="curve" smooth="yes"/>
      <point x="369.333" y="-12"/>
      <point x="314.667" y="17.667"/>
      <point x="314.667" y="55.667" type="curve" smooth="yes"/>
      <point x="314.667" y="81.667"/>
      <point x="340" y="102.333"/>
      <point x="362.333" y="102.333" type="curve" smooth="yes"/>
      <point x="376" y="102.333"/>
      <point x="384" y="94"/>
      <point x="393.728" y="78.506" type="curve" smooth="yes"/>
      <point x="414.667" y="45"/>
      <point x="437.333" y="30.333"/>
      <point x="460.016" y="30.333" type="curve" smooth="yes"/>
      <point x="483.333" y="30.333"/>
      <point x="511.333" y="46"/>
      <point x="511.333" y="89.852" type="curve" smooth="yes"/>
      <point x="511.333" y="135.333"/>
      <point x="480" y="170"/>
      <point x="409.648" y="215.665" type="curve" smooth="yes"/>
      <point x="343" y="258.667"/>
      <point x="304.667" y="310.333"/>
      <point x="304.667" y="369.786" type="curve" smooth="yes"/>
      <point x="304.667" y="431.667"/>
      <point x="345" y="485"/>
      <point x="412.333" y="502.667" type="curve"/>
      <point x="429.667" y="525.667"/>
      <point x="433" y="557"/>
      <point x="433" y="576.756" type="curve" smooth="yes"/>
      <point x="433" y="649"/>
      <point x="393" y="699.667"/>
      <point x="332.442" y="699.667" type="curve" smooth="yes"/>
      <point x="254.946" y="699.667"/>
      <point x="225.667" y="616.727"/>
      <point x="225.667" y="490" type="curve" smooth="yes"/>
      <point x="225.667" y="85.667" type="line" smooth="yes"/>
      <point x="225.667" y="42"/>
      <point x="232.333" y="38.667"/>
      <point x="292.667" y="33.667" type="curve"/>
      <point x="292.667" y="0" type="line"/>
    </contour>
  </outline>
</glyph>
<glyph name="ae" format="2">
	<unicode hex="00E6"/>
	<advance width="803"/>
	<outline>
		<contour>
			<point x="43.6667" y="132.333" type="curve" smooth="yes"/>
			<point x="43.6667" y="185.667"/>
			<point x="68" y="233.333"/>
			<point x="144" y="255.667" type="curve" smooth="yes"/>
			<point x="214.333" y="276"/>
			<point x="297" y="302.333"/>
			<point x="334.667" y="327" type="curve"/>
			<point x="334.667" y="377.333" type="line" smooth="yes"/>
			<point x="334.667" y="441.667"/>
			<point x="300" y="459.667"/>
			<point x="267.667" y="459.667" type="curve" smooth="yes"/>
			<point x="235" y="459.667"/>
			<point x="200" y="441.667"/>
			<point x="174.333" y="361.333" type="curve" smooth="yes"/>
			<point x="167" y="337.667"/>
			<point x="157.667" y="323.667"/>
			<point x="136.333" y="323.667" type="curve" smooth="yes"/>
			<point x="112.667" y="323.667"/>
			<point x="58" y="340.333"/>
			<point x="58" y="385.667" type="curve" smooth="yes"/>
			<point x="58" y="443.667"/>
			<point x="147" y="502"/>
			<point x="279.333" y="502" type="curve" smooth="yes"/>
			<point x="350.333" y="502"/>
			<point x="393.333" y="479"/>
			<point x="418" y="442.667" type="curve"/>
			<point x="458" y="479.667"/>
			<point x="509.667" y="502"/>
			<point x="572.333" y="502" type="curve" smooth="yes"/>
			<point x="767.667" y="502"/>
			<point x="782.667" y="352.333"/>
			<point x="782.667" y="295.667" type="curve" smooth="yes"/>
			<point x="782.667" y="264"/>
			<point x="764.333" y="255.667"/>
			<point x="732.667" y="255.667" type="curve" smooth="yes"/>
			<point x="463.667" y="255.667" type="line"/>
			<point x="463.667" y="152"/>
			<point x="494" y="57.6667"/>
			<point x="601.667" y="57.6667" type="curve" smooth="yes"/>
			<point x="668.667" y="57.6667"/>
			<point x="710.667" y="93.6667"/>
			<point x="740" y="151" type="curve"/>
			<point x="774.667" y="132.333" type="line"/>
			<point x="742.333" y="48"/>
			<point x="678.667" y="-12"/>
			<point x="560.667" y="-12" type="curve" smooth="yes"/>
			<point x="473" y="-12"/>
			<point x="414.333" y="21.3333"/>
			<point x="380.333" y="75" type="curve"/>
			<point x="336.667" y="41.6667" type="line" smooth="yes"/>
			<point x="306" y="17.6667"/>
			<point x="255.667" y="-12"/>
			<point x="191" y="-12" type="curve" smooth="yes"/>
			<point x="92.6667" y="-12"/>
			<point x="43.6667" y="57.6667"/>
		</contour>
		<contour>
			<point x="179.333" y="153.667" type="curve" smooth="yes"/>
			<point x="179.333" y="93"/>
			<point x="212.667" y="57.6667"/>
			<point x="258.333" y="57.6667" type="curve" smooth="yes"/>
			<point x="290.667" y="57.6667"/>
			<point x="334.667" y="74.6667"/>
			<point x="334.667" y="137" type="curve" smooth="yes"/>
			<point x="334.667" y="280.333" type="line"/>
			<point x="311.333" y="266.667"/>
			<point x="270" y="249"/>
			<point x="241.333" y="239" type="curve" smooth="yes"/>
			<point x="195" y="223.333"/>
			<point x="179.333" y="195"/>
		</contour>
		<contour>
			<point x="464" y="299.667" type="curve"/>
			<point x="610" y="299.667" type="line" smooth="yes"/>
			<point x="634.667" y="299.667"/>
			<point x="642" y="308"/>
			<point x="642" y="339.333" type="curve" smooth="yes"/>
			<point x="642" y="377"/>
			<point x="631.667" y="459.667"/>
			<point x="560" y="459.667" type="curve" smooth="yes"/>
			<point x="482" y="459.667"/>
			<point x="464" y="363.333"/>
		</contour>
	</outline>
</glyph>
<glyph name="divide" format="2">
	<unicode hex="00F7"/>
	<advance width="590"/>
	<outline>
		<contour>
			<point x="53" y="213.667" type="line"/>
			<point x="53" y="286.667" type="line"/>
			<point x="537" y="286.667" type="line"/>
			<point x="537" y="213.667" type="line"/>
		</contour>
		<contour>
			<point x="229.667" y="79" type="curve" smooth="yes"/>
			<point x="229.667" y="116"/>
			<point x="258.667" y="145.333"/>
			<point x="295.333" y="145.333" type="curve" smooth="yes"/>
			<point x="331.333" y="145.333"/>
			<point x="361.333" y="116"/>
			<point x="361.333" y="79.6667" type="curve" smooth="yes"/>
			<point x="361.333" y="43.3333"/>
			<point x="331.667" y="12.6667"/>
			<point x="294.667" y="12.6667" type="curve" smooth="yes"/>
			<point x="258.333" y="12.6667"/>
			<point x="229.667" y="42"/>
		</contour>
		<contour>
			<point x="229.667" y="421" type="curve" smooth="yes"/>
			<point x="229.667" y="458"/>
			<point x="258.667" y="487.333"/>
			<point x="295.333" y="487.333" type="curve" smooth="yes"/>
			<point x="331.333" y="487.333"/>
			<point x="361.333" y="458"/>
			<point x="361.333" y="421.667" type="curve" smooth="yes"/>
			<point x="361.333" y="385.333"/>
			<point x="331.667" y="354.667"/>
			<point x="294.667" y="354.667" type="curve" smooth="yes"/>
			<point x="258.333" y="354.667"/>
			<point x="229.667" y="384"/>
		</contour>
	</outline>
</glyph>
<glyph name="oslash" format="2">
  <advance width="582"/>
  <unicode hex="00F8"/>
  <outline>
    <contour>
      <point x="440.667" y="534" type="line"/>
      <point x="477.333" y="511" type="line"/>
      <point x="133" y="-47.667" type="line"/>
      <point x="98" y="-21.333" type="line"/>
    </contour>
    <contour>
      <point x="39" y="245" type="curve" smooth="yes"/>
      <point x="39" y="405.667"/>
      <point x="116.667" y="502"/>
      <point x="291.667" y="502" type="curve" smooth="yes"/>
      <point x="466.667" y="502"/>
      <point x="544.333" y="405.667"/>
      <point x="544.333" y="245" type="curve" smooth="yes"/>
      <point x="544.333" y="84.333"/>
      <point x="466.667" y="-12"/>
      <point x="291.667" y="-12" type="curve" smooth="yes"/>
      <point x="116.667" y="-12"/>
      <point x="39" y="84.333"/>
    </contour>
    <contour>
      <point x="179.667" y="245" type="curve" smooth="yes"/>
      <point x="179.667" y="109.667"/>
      <point x="213.667" y="30.333"/>
      <point x="291.667" y="30.333" type="curve" smooth="yes"/>
      <point x="369.667" y="30.333"/>
      <point x="403.667" y="109.667"/>
      <point x="403.667" y="245" type="curve" smooth="yes"/>
      <point x="403.667" y="380.333"/>
      <point x="369.667" y="459.667"/>
      <point x="291.667" y="459.667" type="curve" smooth="yes"/>
      <point x="213.667" y="459.667"/>
      <point x="179.667" y="380.333"/>
    </contour>
  </outline>
</glyph>
<glyph name="thorn" format="2">
	<unicode hex="00FE"/>
	<advance width="608"/>
	<outline>
		<contour>
			<point x="16.3333" y="-195" type="line"/>
			<point x="77.6667" y="-191.333"/>
			<point x="84.6667" y="-187.333"/>
			<point x="84.6667" y="-143" type="curve" smooth="yes"/>
			<point x="84.6667" y="608" type="line" smooth="yes"/>
			<point x="84.6667" y="647.333"/>
			<point x="77.3333" y="655"/>
			<point x="58" y="658" type="curve" smooth="yes"/>
			<point x="22" y="663.333" type="line"/>
			<point x="22" y="695.667" type="line"/>
			<point x="209.667" y="722" type="line"/>
			<point x="216.667" y="716" type="line"/>
			<point x="216.667" y="432" type="line"/>
			<point x="262.333" y="464.333"/>
			<point x="312.333" y="502"/>
			<point x="383.333" y="502" type="curve" smooth="yes"/>
			<point x="506.667" y="502"/>
			<point x="569" y="392.333"/>
			<point x="569" y="258" type="curve" smooth="yes"/>
			<point x="569" y="42"/>
			<point x="451" y="-12"/>
			<point x="307.333" y="-12" type="curve" smooth="yes"/>
			<point x="274" y="-12"/>
			<point x="235" y="-5"/>
			<point x="216.667" y="3.66667" type="curve"/>
			<point x="216.667" y="-143" type="line" smooth="yes"/>
			<point x="216.667" y="-187.333"/>
			<point x="225.333" y="-191.333"/>
			<point x="302" y="-195" type="curve"/>
			<point x="302" y="-230" type="line"/>
			<point x="16.3333" y="-230" type="line"/>
		</contour>
		<contour>
			<point x="216.667" y="153.667" type="line" smooth="yes"/>
			<point x="216.667" y="133.333"/>
			<point x="217.667" y="115.333"/>
			<point x="221.667" y="99.3333" type="curve" smooth="yes"/>
			<point x="233" y="54.6667"/>
			<point x="263.667" y="30.3333"/>
			<point x="310.333" y="30.3333" type="curve" smooth="yes"/>
			<point x="395" y="30.3333"/>
			<point x="428.333" y="109.667"/>
			<point x="428.333" y="241.333" type="curve" smooth="yes"/>
			<point x="428.333" y="406.667"/>
			<point x="363.333" y="432.667"/>
			<point x="318.667" y="432.667" type="curve" smooth="yes"/>
			<point x="273" y="432.667"/>
			<point x="242" y="409.333"/>
			<point x="225.667" y="369.333" type="curve" smooth="yes"/>
			<point x="219.333" y="354"/>
			<point x="216.667" y="336"/>
			<point x="216.667" y="313.667" type="curve" smooth="yes"/>
		</contour>
	</outline>
</glyph>
<glyph name="Hbar" format="2">
	<unicode hex="0126"/>
	<advance width="804"/>
	<outline>
		<contour>
			<point x="33.6667" y="0" type="line"/>
			<point x="33.6667" y="35" type="line"/>
			<point x="110.333" y="39"/>
			<point x="116.333" y="43"/>
			<point x="116.333" y="95.6667" type="curve" smooth="yes"/>
			<point x="116.333" y="556.667" type="line"/>
			<point x="44" y="556.667" type="line"/>
			<point x="44" y="599" type="line"/>
			<point x="116.333" y="599" type="line"/>
			<point x="116.333" y="649"/>
			<point x="109" y="653"/>
			<point x="33.6667" y="657" type="curve"/>
			<point x="33.6667" y="692" type="line"/>
			<point x="338.667" y="692" type="line"/>
			<point x="338.667" y="657" type="line"/>
			<point x="263.667" y="653"/>
			<point x="256" y="649"/>
			<point x="256" y="599" type="curve"/>
			<point x="548" y="599" type="line"/>
			<point x="548" y="649"/>
			<point x="540.667" y="653"/>
			<point x="465.333" y="657" type="curve"/>
			<point x="465.333" y="692" type="line"/>
			<point x="770.333" y="692" type="line"/>
			<point x="770.333" y="657" type="line"/>
			<point x="695.333" y="653"/>
			<point x="687.667" y="649"/>
			<point x="687.667" y="599" type="curve"/>
			<point x="760" y="599" type="line"/>
			<point x="760" y="556.667" type="line"/>
			<point x="687.667" y="556.667" type="line"/>
			<point x="687.667" y="95.6667" type="line" smooth="yes"/>
			<point x="687.667" y="43"/>
			<point x="694" y="39"/>
			<point x="770.333" y="35" type="curve"/>
			<point x="770.333" y="0" type="line"/>
			<point x="465.333" y="0" type="line"/>
			<point x="465.333" y="35" type="line"/>
			<point x="542" y="39"/>
			<point x="548" y="43"/>
			<point x="548" y="95.6667" type="curve" smooth="yes"/>
			<point x="548" y="341" type="line"/>
			<point x="256" y="341" type="line"/>
			<point x="256" y="95.6667" type="line" smooth="yes"/>
			<point x="256" y="43"/>
			<point x="262.333" y="39"/>
			<point x="338.667" y="35" type="curve"/>
			<point x="338.667" y="0" type="line"/>
		</contour>
		<contour>
			<point x="256" y="385.667" type="line"/>
			<point x="548" y="385.667" type="line"/>
			<point x="548" y="556.667" type="line"/>
			<point x="256" y="556.667" type="line"/>
		</contour>
	</outline>
</glyph>
<glyph name="dotlessi" format="2">
  <advance width="308"/>
  <unicode hex="0131"/>
  <outline>
    <contour>
      <point x="28" y="0" type="line"/>
      <point x="28" y="35" type="line"/>
      <point x="90" y="38.667"/>
      <point x="96.333" y="42"/>
      <point x="96.333" y="87" type="curve" smooth="yes"/>
      <point x="96.333" y="388" type="line" smooth="yes"/>
      <point x="96.333" y="426.667"/>
      <point x="89" y="434.333"/>
      <point x="69.667" y="437" type="curve" smooth="yes"/>
      <point x="33.667" y="442" type="line"/>
      <point x="33.667" y="474.333" type="line"/>
      <point x="221.333" y="502" type="line"/>
      <point x="228.333" y="496" type="line"/>
      <point x="228.333" y="87" type="line" smooth="yes"/>
      <point x="228.333" y="42"/>
      <point x="235" y="38.667"/>
      <point x="296.667" y="35" type="curve"/>
      <point x="296.667" y="0" type="line"/>
    </contour>
  </outline>
</glyph>
<glyph name="ij" format="2">
	<unicode hex="0133"/>
	<advance width="612"/>
	<outline>
		<contour>
			<point x="28" y="0" type="line"/>
			<point x="28" y="35" type="line"/>
			<point x="90" y="38.6667"/>
			<point x="96.3333" y="42"/>
			<point x="96.3333" y="87" type="curve" smooth="yes"/>
			<point x="96.3333" y="388" type="line" smooth="yes"/>
			<point x="96.3333" y="426.667"/>
			<point x="89" y="434.333"/>
			<point x="69.6667" y="437" type="curve" smooth="yes"/>
			<point x="33.6667" y="442" type="line"/>
			<point x="33.6667" y="474.333" type="line"/>
			<point x="221.333" y="502" type="line"/>
			<point x="228.333" y="496" type="line"/>
			<point x="228.333" y="87" type="line" smooth="yes"/>
			<point x="228.333" y="42"/>
			<point x="235" y="38.6667"/>
			<point x="296.667" y="35" type="curve"/>
			<point x="296.667" y="0" type="line"/>
		</contour>
		<contour>
			<point x="77.3333" y="640" type="curve" smooth="yes"/>
			<point x="77.3333" y="683.333"/>
			<point x="109" y="718.333"/>
			<point x="158.333" y="718.333" type="curve" smooth="yes"/>
			<point x="208.333" y="718.333"/>
			<point x="240" y="683.333"/>
			<point x="240" y="640" type="curve" smooth="yes"/>
			<point x="240" y="596"/>
			<point x="207" y="561"/>
			<point x="158.333" y="561" type="curve" smooth="yes"/>
			<point x="109" y="561"/>
			<point x="77.3333" y="596"/>
		</contour>
		<contour>
			<point x="288.667" y="-206.667" type="line"/>
			<point x="327" y="-195.667"/>
			<point x="355" y="-181.333"/>
			<point x="374.333" y="-153" type="curve" smooth="yes"/>
			<point x="396" y="-120.667"/>
			<point x="408.333" y="-58"/>
			<point x="408.333" y="32.6667" type="curve" smooth="yes"/>
			<point x="408.333" y="388" type="line" smooth="yes"/>
			<point x="408.333" y="426"/>
			<point x="401" y="434.333"/>
			<point x="381.667" y="437" type="curve" smooth="yes"/>
			<point x="345.667" y="442" type="line"/>
			<point x="345.667" y="474.333" type="line"/>
			<point x="533.333" y="502" type="line"/>
			<point x="540.333" y="496" type="line"/>
			<point x="540.333" y="19" type="line" smooth="yes"/>
			<point x="540.333" y="-95.3333"/>
			<point x="515.667" y="-176.333"/>
			<point x="427.333" y="-209.667" type="curve"/>
			<point x="384.667" y="-229"/>
			<point x="337.333" y="-235.333"/>
			<point x="292" y="-235.333" type="curve"/>
		</contour>
		<contour>
			<point x="389.667" y="640" type="curve" smooth="yes"/>
			<point x="389.667" y="683.333"/>
			<point x="421.333" y="718.333"/>
			<point x="470.667" y="718.333" type="curve" smooth="yes"/>
			<point x="520.667" y="718.333"/>
			<point x="552.333" y="683.333"/>
			<point x="552.333" y="640" type="curve" smooth="yes"/>
			<point x="552.333" y="596"/>
			<point x="519.333" y="561"/>
			<point x="470.667" y="561" type="curve" smooth="yes"/>
			<point x="421.333" y="561"/>
			<point x="389.667" y="596"/>
		</contour>
	</outline>
</glyph>
